LondrinaSolid-Thin.ufo
<glyph name="numbersign" format="1">
  <advance width="669"/>
  <unicode hex="0023"/>
  <outline>
    <contour>
      <point x="646" y="419" type="line"/>
      <point x="497" y="416" type="line"/>
      <point x="486" y="381"/>
      <point x="456" y="260"/>
      <point x="445" y="228" type="qcurve"/>
      <point x="456" y="227"/>
      <point x="577" y="228"/>
      <point x="628" y="224" type="qcurve"/>
      <point x="631" y="216"/>
      <point x="633" y="189"/>
      <point x="635" y="180" type="qcurve"/>
      <point x="635" y="178" type="line"/>
      <point x="619" y="176"/>
      <point x="591" y="175"/>
      <point x="555" y="175"/>
      <point x="504" y="175"/>
      <point x="431" y="174" type="qcurve"/>
      <point x="430" y="174" type="line"/>
      <point x="428" y="174" type="line"/>
      <point x="426" y="171"/>
      <point x="415" y="135"/>
      <point x="399" y="69"/>
      <point x="381" y="20"/>
      <point x="374" y="2" type="qcurve"/>
      <point x="373" y="1" type="line"/>
      <point x="371" y="1" type="line"/>
      <point x="369" y="1"/>
      <point x="369" y="-1"/>
      <point x="328" y="1" type="qcurve"/>
      <point x="339" y="45"/>
      <point x="369" y="140"/>
      <point x="379" y="177" type="qcurve"/>
      <point x="378" y="177" type="line"/>
      <point x="378" y="177"/>
      <point x="367" y="178"/>
      <point x="341" y="178"/>
      <point x="233" y="178"/>
      <point x="186" y="177" type="qcurve"/>
      <point x="167" y="134"/>
      <point x="134" y="27"/>
      <point x="131" y="0"/>
      <point x="123" y="0" type="qcurve"/>
      <point x="99" y="2"/>
      <point x="74" y="0" type="qcurve"/>
      <point x="102" y="86"/>
      <point x="116" y="137"/>
      <point x="130" y="175" type="qcurve"/>
      <point x="43" y="172"/>
      <point x="28" y="173" type="qcurve"/>
      <point x="26" y="185"/>
      <point x="26" y="212"/>
      <point x="25" y="229" type="qcurve"/>
      <point x="26" y="228"/>
      <point x="36" y="226"/>
      <point x="59" y="228"/>
      <point x="150" y="228" type="qcurve"/>
      <point x="153" y="231"/>
      <point x="165" y="278"/>
      <point x="190" y="378"/>
      <point x="202" y="416" type="qcurve"/>
      <point x="202" y="416"/>
      <point x="196" y="416"/>
      <point x="169" y="416"/>
      <point x="87" y="415"/>
      <point x="38" y="415" type="qcurve"/>
      <point x="36" y="470" type="line"/>
      <point x="36" y="470"/>
      <point x="43" y="468"/>
      <point x="70" y="465"/>
      <point x="189" y="465" type="qcurve"/>
      <point x="196" y="465"/>
      <point x="214" y="464"/>
      <point x="220" y="465" type="qcurve"/>
      <point x="220" y="466"/>
      <point x="221" y="466"/>
      <point x="221" y="467" type="qcurve"/>
      <point x="224" y="473"/>
      <point x="237" y="511"/>
      <point x="252" y="578"/>
      <point x="265" y="623"/>
      <point x="268" y="637" type="qcurve"/>
      <point x="268" y="638" type="line"/>
      <point x="277" y="637"/>
      <point x="274" y="636"/>
      <point x="273" y="636"/>
      <point x="286" y="634"/>
      <point x="318" y="633" type="qcurve"/>
      <point x="318" y="631"/>
      <point x="315" y="617"/>
      <point x="305" y="584"/>
      <point x="287" y="509"/>
      <point x="274" y="466" type="qcurve"/>
      <point x="301" y="465"/>
      <point x="403" y="467"/>
      <point x="460" y="466" type="qcurve"/>
      <point x="468" y="479"/>
      <point x="494" y="579"/>
      <point x="508" y="639" type="qcurve"/>
      <point x="509" y="639" type="line"/>
      <point x="510" y="639" type="line"/>
      <point x="555" y="638" type="line"/>
      <point x="556" y="632"/>
      <point x="554" y="619"/>
      <point x="545" y="589"/>
      <point x="528" y="511"/>
      <point x="514" y="463" type="qcurve"/>
      <point x="530" y="463"/>
      <point x="561" y="462"/>
      <point x="639" y="462" type="qcurve"/>
      <point x="639" y="458" type="line"/>
    </contour>
    <contour>
      <point x="394" y="229" type="line"/>
      <point x="394" y="230"/>
      <point x="395" y="231"/>
      <point x="395" y="232" type="qcurve"/>
      <point x="404" y="268"/>
      <point x="436" y="380"/>
      <point x="447" y="418" type="qcurve"/>
      <point x="411" y="418"/>
      <point x="310" y="419"/>
      <point x="258" y="419" type="qcurve"/>
      <point x="256" y="419" type="line"/>
      <point x="256" y="418" type="line"/>
      <point x="242" y="383"/>
      <point x="203" y="228" type="qcurve"/>
    </contour>
  </outline>
</glyph>
<glyph name="dollar" format="1">
  <advance width="445"/>
  <unicode hex="0024"/>
  <outline>
    <contour>
      <point x="340" y="325" type="qcurve"/>
      <point x="360" y="311"/>
      <point x="394" y="282"/>
      <point x="414" y="231"/>
      <point x="422" y="181"/>
      <point x="422" y="160" type="qcurve"/>
      <point x="422" y="128"/>
      <point x="395" y="70"/>
      <point x="363" y="44" type="qcurve"/>
      <point x="360" y="41"/>
      <point x="341" y="29"/>
      <point x="306" y="16"/>
      <point x="257" y="6"/>
      <point x="255" y="6" type="qcurve"/>
      <point x="255" y="3"/>
      <point x="254" y="-18"/>
      <point x="254" y="-41"/>
      <point x="254" y="-62"/>
      <point x="254" y="-65" type="qcurve"/>
      <point x="254" y="-69" type="line"/>
      <point x="257" y="-95"/>
      <point x="237" y="-96"/>
      <point x="224" y="-97" type="qcurve"/>
      <point x="221" y="-97"/>
      <point x="208" y="-91"/>
      <point x="203" y="-63"/>
      <point x="206" y="-38"/>
      <point x="203" y="-14"/>
      <point x="191" y="6"/>
      <point x="168" y="7" type="qcurve"/>
      <point x="90" y="23"/>
      <point x="47" y="57"/>
      <point x="26" y="102"/>
      <point x="20" y="158"/>
      <point x="20" y="191" type="qcurve"/>
      <point x="20" y="206"/>
      <point x="21" y="226"/>
      <point x="30" y="237"/>
      <point x="49" y="242"/>
      <point x="69" y="240"/>
      <point x="74" y="222"/>
      <point x="74" y="207" type="qcurve"/>
      <point x="74" y="199"/>
      <point x="75" y="184"/>
      <point x="75" y="176" type="qcurve"/>
      <point x="64" y="83"/>
      <point x="239" y="33"/>
      <point x="304" y="57" type="qcurve"/>
      <point x="348" y="82"/>
      <point x="372" y="130"/>
      <point x="373" y="167" type="qcurve"/>
      <point x="380" y="278"/>
      <point x="189" y="316"/>
      <point x="104" y="349"/>
      <point x="82" y="373" type="qcurve"/>
      <point x="59" y="399"/>
      <point x="28" y="471"/>
      <point x="28" y="507" type="qcurve"/>
      <point x="28" y="532"/>
      <point x="45" y="578"/>
      <point x="64" y="597" type="qcurve"/>
      <point x="81" y="614"/>
      <point x="162" y="651"/>
      <point x="201" y="658" type="qcurve"/>
      <point x="206" y="660"/>
      <point x="204" y="667"/>
      <point x="204" y="672" type="qcurve"/>
      <point x="204" y="674"/>
      <point x="202" y="696"/>
      <point x="201" y="722"/>
      <point x="199" y="732"/>
      <point x="199" y="734" type="qcurve"/>
      <point x="199" y="741"/>
      <point x="210" y="748"/>
      <point x="234" y="752"/>
      <point x="250" y="748"/>
      <point x="253" y="742" type="qcurve"/>
      <point x="255" y="672" type="line"/>
      <point x="255" y="659"/>
      <point x="268" y="658" type="qcurve"/>
      <point x="328" y="642"/>
      <point x="360" y="624"/>
      <point x="387" y="600"/>
      <point x="406" y="573"/>
      <point x="412" y="561" type="qcurve"/>
      <point x="423" y="538"/>
      <point x="426" y="495"/>
      <point x="426" y="468" type="qcurve"/>
      <point x="427" y="443"/>
      <point x="408" y="442"/>
      <point x="377" y="443"/>
      <point x="377" y="569"/>
      <point x="268" y="634"/>
      <point x="135" y="604"/>
      <point x="89" y="560"/>
      <point x="72" y="513"/>
      <point x="87" y="456"/>
      <point x="87" y="453" type="qcurve"/>
      <point x="117" y="373"/>
      <point x="173" y="360"/>
      <point x="232" y="354" type="curve"/>
      <point x="239" y="353"/>
      <point x="313" y="338"/>
    </contour>
  </outline>
</glyph>
<glyph name="percent" format="1">
  <advance width="604"/>
  <unicode hex="0025"/>
  <outline>
    <contour>
      <point x="250" y="151" type="line"/>
      <point x="256" y="166"/>
      <point x="267" y="196"/>
      <point x="272" y="211" type="qcurve"/>
      <point x="293" y="265"/>
      <point x="330" y="373"/>
      <point x="349" y="428" type="qcurve"/>
      <point x="358" y="455"/>
      <point x="376" y="510"/>
      <point x="386" y="538" type="qcurve"/>
      <point x="408" y="604"/>
      <point x="428" y="669"/>
      <point x="432" y="683" type="qcurve"/>
      <point x="434" y="689"/>
      <point x="436" y="696"/>
      <point x="438" y="701" type="qcurve"/>
      <point x="426" y="707"/>
      <point x="393" y="709" type="qcurve"/>
      <point x="386" y="681"/>
      <point x="370" y="627"/>
      <point x="317" y="467"/>
      <point x="306" y="438" type="qcurve"/>
      <point x="276" y="357"/>
      <point x="242" y="261"/>
      <point x="215" y="189"/>
      <point x="180" y="90" type="qcurve"/>
      <point x="179" y="86"/>
      <point x="167" y="57"/>
      <point x="156" y="25"/>
      <point x="150" y="6"/>
      <point x="147" y="0" type="qcurve"/>
      <point x="187" y="1"/>
      <point x="193" y="2" type="qcurve"/>
      <point x="194" y="3"/>
      <point x="196" y="7" type="qcurve"/>
    </contour>
    <contour>
      <point x="389" y="321" type="qcurve"/>
      <point x="391" y="324"/>
      <point x="395" y="326" type="qcurve"/>
      <point x="407" y="344"/>
      <point x="445" y="364"/>
      <point x="468" y="364" type="qcurve"/>
      <point x="492" y="366"/>
      <point x="532" y="348"/>
      <point x="559" y="319"/>
      <point x="577" y="281"/>
      <point x="581" y="261" type="qcurve"/>
      <point x="583" y="245"/>
      <point x="585" y="218"/>
      <point x="585" y="204" type="qcurve"/>
      <point x="585" y="184"/>
      <point x="581" y="143"/>
      <point x="569" y="103"/>
      <point x="551" y="66"/>
      <point x="524" y="40"/>
      <point x="488" y="24"/>
      <point x="468" y="26" type="qcurve"/>
      <point x="449" y="28"/>
      <point x="433" y="32" type="qcurve"/>
      <point x="409" y="42"/>
      <point x="381" y="73"/>
      <point x="370" y="111"/>
      <point x="366" y="152"/>
      <point x="366" y="176" type="qcurve"/>
      <point x="364" y="194"/>
      <point x="364" y="232"/>
      <point x="368" y="269"/>
      <point x="379" y="305"/>
    </contour>
    <contour>
      <point x="473" y="65" type="qcurve"/>
      <point x="507" y="67"/>
      <point x="542" y="120"/>
      <point x="548" y="146"/>
      <point x="548" y="163"/>
      <point x="548" y="174" type="qcurve"/>
      <point x="550" y="184"/>
      <point x="550" y="211"/>
      <point x="548" y="256"/>
      <point x="519" y="313"/>
      <point x="480" y="319" type="qcurve"/>
      <point x="436" y="321"/>
      <point x="409" y="273"/>
      <point x="405" y="256"/>
      <point x="401" y="242"/>
      <point x="401" y="230" type="qcurve"/>
      <point x="401" y="206"/>
      <point x="401" y="163"/>
      <point x="405" y="130" type="qcurve"/>
      <point x="413" y="65"/>
    </contour>
    <contour>
      <point x="44" y="639" type="qcurve"/>
      <point x="46" y="642"/>
      <point x="50" y="644" type="qcurve"/>
      <point x="62" y="662"/>
      <point x="100" y="682"/>
      <point x="123" y="682" type="qcurve"/>
      <point x="147" y="684"/>
      <point x="187" y="666"/>
      <point x="214" y="637"/>
      <point x="232" y="599"/>
      <point x="236" y="579" type="qcurve"/>
      <point x="238" y="563"/>
      <point x="240" y="536"/>
      <point x="240" y="522" type="qcurve"/>
      <point x="240" y="502"/>
      <point x="236" y="461"/>
      <point x="224" y="421"/>
      <point x="206" y="384"/>
      <point x="179" y="358"/>
      <point x="143" y="342"/>
      <point x="123" y="344" type="qcurve"/>
      <point x="104" y="346"/>
      <point x="88" y="350" type="qcurve"/>
      <point x="64" y="360"/>
      <point x="36" y="391"/>
      <point x="25" y="429"/>
      <point x="21" y="470"/>
      <point x="21" y="494" type="qcurve"/>
      <point x="19" y="512"/>
      <point x="19" y="550"/>
      <point x="23" y="587"/>
      <point x="34" y="623"/>
    </contour>
    <contour>
      <point x="128" y="383" type="qcurve"/>
      <point x="162" y="385"/>
      <point x="197" y="438"/>
      <point x="203" y="464"/>
      <point x="203" y="481"/>
      <point x="203" y="492" type="qcurve"/>
      <point x="205" y="502"/>
      <point x="205" y="529"/>
      <point x="203" y="574"/>
      <point x="174" y="631"/>
      <point x="135" y="637" type="qcurve"/>
      <point x="91" y="639"/>
      <point x="64" y="591"/>
      <point x="60" y="574"/>
      <point x="56" y="560"/>
      <point x="56" y="548" type="qcurve"/>
      <point x="56" y="524"/>
      <point x="56" y="481"/>
      <point x="60" y="448" type="qcurve"/>
      <point x="68" y="383"/>
    </contour>
  </outline>
</glyph>
<glyph name="ampersand" format="1">
  <advance width="565"/>
  <unicode hex="0026"/>
  <outline>
    <contour>
      <point x="553" y="2" type="line"/>
      <point x="509" y="-2"/>
      <point x="495" y="28"/>
      <point x="448" y="90" type="qcurve"/>
      <point x="393" y="24"/>
      <point x="318" y="2"/>
      <point x="219" y="-1" type="qcurve"/>
      <point x="169" y="-1"/>
      <point x="94" y="38"/>
      <point x="44" y="101"/>
      <point x="18" y="180"/>
      <point x="18" y="220" type="qcurve"/>
      <point x="18" y="247"/>
      <point x="35" y="299"/>
      <point x="63" y="348"/>
      <point x="99" y="392"/>
      <point x="118" y="410" type="qcurve"/>
      <point x="106" y="426"/>
      <point x="79" y="466"/>
      <point x="56" y="510"/>
      <point x="41" y="557"/>
      <point x="41" y="580" type="qcurve"/>
      <point x="41" y="612"/>
      <point x="74" y="667"/>
      <point x="129" y="708"/>
      <point x="198" y="731"/>
      <point x="234" y="731" type="qcurve"/>
      <point x="272" y="731"/>
      <point x="336" y="706"/>
      <point x="381" y="664"/>
      <point x="406" y="609"/>
      <point x="406" y="579" type="qcurve"/>
      <point x="406" y="542"/>
      <point x="391" y="479"/>
      <point x="373" y="449" type="qcurve"/>
      <point x="367" y="440"/>
      <point x="355" y="428"/>
      <point x="340" y="395"/>
      <point x="397" y="357"/>
      <point x="452" y="270"/>
      <point x="479" y="328"/>
      <point x="485" y="355" type="qcurve"/>
      <point x="495" y="379"/>
      <point x="501" y="399"/>
      <point x="536" y="387"/>
      <point x="554" y="381"/>
      <point x="544" y="348" type="qcurve"/>
      <point x="541" y="319"/>
      <point x="523" y="270"/>
      <point x="477" y="170"/>
      <point x="477" y="165" type="qcurve"/>
      <point x="477" y="159"/>
      <point x="494" y="140"/>
      <point x="503" y="128" type="qcurve"/>
      <point x="503" y="129" type="line"/>
      <point x="517" y="111"/>
      <point x="548" y="69"/>
      <point x="564" y="29" type="qcurve"/>
    </contour>
    <contour>
      <point x="265" y="695" type="qcurve"/>
      <point x="185" y="707"/>
      <point x="81" y="630"/>
      <point x="78" y="582" type="qcurve"/>
      <point x="77" y="557"/>
      <point x="102" y="495"/>
      <point x="151" y="430"/>
      <point x="216" y="420" type="qcurve"/>
      <point x="314" y="422"/>
      <point x="387" y="562"/>
      <point x="360" y="628" type="qcurve" smooth="yes"/>
      <point x="326" y="685"/>
    </contour>
    <contour>
      <point x="316" y="54" type="qcurve"/>
      <point x="358" y="69"/>
      <point x="380" y="89" type="qcurve"/>
      <point x="497" y="222"/>
      <point x="346" y="406"/>
      <point x="202" y="379" type="curve"/>
      <point x="96" y="366"/>
      <point x="36" y="226"/>
      <point x="77" y="145" type="curve"/>
      <point x="104" y="102"/>
      <point x="137" y="66"/>
      <point x="194" y="42"/>
      <point x="237" y="42" type="qcurve"/>
      <point x="257" y="42"/>
      <point x="290" y="46"/>
    </contour>
  </outline>
</glyph>
<glyph name="parenleft" format="1">
  <advance width="314"/>
  <unicode hex="0028"/>
  <outline>
    <contour>
      <point x="108" y="41" type="qcurve"/>
      <point x="86" y="58"/>
      <point x="70" y="80" type="qcurve"/>
      <point x="69" y="81"/>
      <point x="66" y="87" type="qcurve"/>
      <point x="47" y="121"/>
      <point x="34" y="177"/>
      <point x="32" y="203" type="qcurve"/>
      <point x="34" y="256"/>
      <point x="39" y="369"/>
      <point x="38" y="420" type="qcurve"/>
      <point x="38" y="444" type="line"/>
      <point x="39" y="466"/>
      <point x="38" y="512"/>
      <point x="41" y="557"/>
      <point x="50" y="601"/>
      <point x="62" y="621" type="qcurve"/>
      <point x="87" y="669"/>
      <point x="167" y="710"/>
      <point x="212" y="711" type="qcurve"/>
      <point x="229" y="710"/>
      <point x="268" y="707"/>
      <point x="285" y="705" type="qcurve"/>
      <point x="286" y="704" type="line"/>
      <point x="290" y="673"/>
      <point x="285" y="664" type="qcurve"/>
      <point x="271" y="660"/>
      <point x="183" y="660"/>
      <point x="123" y="628"/>
      <point x="104" y="601"/>
      <point x="96" y="566"/>
      <point x="95" y="559" type="qcurve"/>
      <point x="73" y="207"/>
      <point x="88" y="166" type="qcurve"/>
      <point x="108" y="98"/>
      <point x="196" y="41"/>
      <point x="289" y="57" type="qcurve"/>
      <point x="287" y="9" type="line"/>
      <point x="281" y="1"/>
      <point x="256" y="0"/>
      <point x="245" y="0" type="qcurve"/>
      <point x="228" y="0" type="line"/>
      <point x="196" y="1"/>
      <point x="163" y="11" type="qcurve"/>
      <point x="134" y="21"/>
    </contour>
  </outline>
</glyph>
<glyph name="asterisk" format="1">
  <advance width="367"/>
  <unicode hex="002A"/>
  <outline>
    <contour>
      <point x="293" y="398" type="qcurve"/>
      <point x="291" y="396"/>
      <point x="290" y="398" type="qcurve"/>
      <point x="288" y="401"/>
      <point x="273" y="416"/>
      <point x="271" y="417" type="qcurve"/>
      <point x="267" y="421"/>
      <point x="251" y="436"/>
      <point x="198" y="488"/>
      <point x="184" y="500"/>
      <point x="182" y="501" type="qcurve"/>
      <point x="178" y="499"/>
      <point x="162" y="483"/>
      <point x="104" y="429"/>
      <point x="84" y="411"/>
      <point x="77" y="406" type="qcurve"/>
      <point x="75" y="404"/>
      <point x="72" y="402"/>
      <point x="70" y="402" type="qcurve"/>
      <point x="45" y="424" type="line"/>
      <point x="48" y="429"/>
      <point x="64" y="447"/>
      <point x="84" y="469"/>
      <point x="140" y="526"/>
      <point x="148" y="535" type="qcurve"/>
      <point x="149" y="536"/>
      <point x="143" y="544" type="qcurve"/>
      <point x="119" y="568"/>
      <point x="98" y="593"/>
      <point x="75" y="620"/>
      <point x="55" y="642"/>
      <point x="53" y="647" type="qcurve"/>
      <point x="57" y="648"/>
      <point x="68" y="662"/>
      <point x="75" y="667" type="qcurve"/>
      <point x="76" y="668" type="line"/>
      <point x="79" y="667"/>
      <point x="101" y="647"/>
      <point x="127" y="623"/>
      <point x="176" y="575"/>
      <point x="180" y="572" type="qcurve"/>
      <point x="181" y="573"/>
      <point x="236" y="624"/>
      <point x="264" y="650"/>
      <point x="286" y="670"/>
      <point x="285" y="669" type="qcurve"/>
      <point x="287" y="666"/>
      <point x="305" y="649"/>
      <point x="308" y="646" type="qcurve"/>
      <point x="307" y="637"/>
      <point x="289" y="615"/>
      <point x="266" y="593"/>
      <point x="217" y="545"/>
      <point x="214" y="537" type="qcurve"/>
      <point x="215" y="537"/>
      <point x="273" y="478"/>
      <point x="297" y="449"/>
      <point x="318" y="424"/>
      <point x="320" y="423" type="qcurve"/>
      <point x="321" y="419"/>
    </contour>
  </outline>
</glyph>
<glyph name="comma" format="1">
  <advance width="188"/>
  <unicode hex="002C"/>
  <outline>
    <contour>
      <point x="118" y="-61" type="line"/>
      <point x="116" y="-71"/>
      <point x="112" y="-90"/>
      <point x="110" y="-100" type="qcurve"/>
      <point x="105" y="-98"/>
      <point x="73" y="-98" type="qcurve"/>
      <point x="71" y="-96"/>
      <point x="76" y="-76"/>
      <point x="84" y="-47"/>
      <point x="91" y="-15"/>
      <point x="93" y="-1" type="qcurve"/>
      <point x="74" y="3" type="line"/>
      <point x="72" y="3"/>
      <point x="71" y="4" type="qcurve"/>
      <point x="71" y="5"/>
      <point x="71" y="11"/>
      <point x="72" y="33"/>
      <point x="73" y="78"/>
      <point x="75" y="119" type="qcurve"/>
      <point x="75" y="120" type="line"/>
      <point x="76" y="120" type="line"/>
      <point x="104" y="121"/>
      <point x="136" y="119" type="qcurve"/>
      <point x="137" y="119" type="line"/>
      <point x="133" y="4" type="line"/>
      <point x="131" y="4" type="line"/>
      <point x="131" y="3"/>
      <point x="130" y="2"/>
      <point x="130" y="1" type="qcurve"/>
      <point x="130" y="-3"/>
      <point x="127" y="-16"/>
      <point x="126" y="-21" type="qcurve"/>
    </contour>
  </outline>
</glyph>
<glyph name="hyphen" format="1">
  <advance width="521"/>
  <unicode hex="002D"/>
  <outline>
    <contour>
      <point x="36" y="272" type="qcurve"/>
      <point x="36" y="284"/>
      <point x="38" y="292"/>
      <point x="39" y="320"/>
      <point x="39" y="323" type="qcurve"/>
      <point x="40" y="323"/>
      <point x="100" y="323"/>
      <point x="191" y="323"/>
      <point x="299" y="323"/>
      <point x="396" y="323"/>
      <point x="470" y="323"/>
      <point x="482" y="323" type="qcurve"/>
      <point x="483" y="295"/>
      <point x="485" y="265" type="qcurve"/>
      <point x="484" y="265" type="line"/>
      <point x="479" y="265"/>
      <point x="411" y="265"/>
      <point x="315" y="267"/>
      <point x="205" y="269"/>
      <point x="109" y="270"/>
      <point x="41" y="272"/>
    </contour>
  </outline>
</glyph>
<glyph name="period" format="1">
  <advance width="189"/>
  <unicode hex="002E"/>
  <outline>
    <contour>
      <point x="77" y="1" type="line"/>
      <point x="74" y="1" type="line"/>
      <point x="72" y="12"/>
      <point x="71" y="46"/>
      <point x="72" y="80"/>
      <point x="73" y="110"/>
      <point x="73" y="117" type="qcurve"/>
      <point x="83" y="121"/>
      <point x="105" y="125"/>
      <point x="118" y="122"/>
      <point x="125" y="119" type="qcurve"/>
      <point x="125" y="118"/>
      <point x="123" y="87"/>
      <point x="121" y="47"/>
      <point x="119" y="9"/>
      <point x="119" y="2" type="qcurve"/>
      <point x="119" y="1" type="line"/>
      <point x="119" y="0" type="line"/>
      <point x="117" y="0" type="line"/>
    </contour>
  </outline>
</glyph>
<glyph name="slash" format="1">
  <advance width="412"/>
  <unicode hex="002F"/>
  <outline>
    <contour>
      <point x="162" y="151" type="line"/>
      <point x="168" y="166"/>
      <point x="179" y="196"/>
      <point x="184" y="211" type="qcurve"/>
      <point x="205" y="265"/>
      <point x="242" y="373"/>
      <point x="261" y="428" type="qcurve"/>
      <point x="270" y="455"/>
      <point x="288" y="510"/>
      <point x="298" y="538" type="qcurve"/>
      <point x="320" y="604"/>
      <point x="340" y="669"/>
      <point x="344" y="683" type="qcurve"/>
      <point x="346" y="689"/>
      <point x="348" y="696"/>
      <point x="350" y="701" type="qcurve"/>
      <point x="338" y="707"/>
      <point x="305" y="709" type="qcurve"/>
      <point x="298" y="681"/>
      <point x="282" y="627"/>
      <point x="229" y="467"/>
      <point x="218" y="438" type="qcurve"/>
      <point x="188" y="357"/>
      <point x="154" y="261"/>
      <point x="127" y="189"/>
      <point x="92" y="90" type="qcurve"/>
      <point x="91" y="86"/>
      <point x="79" y="57"/>
      <point x="68" y="25"/>
      <point x="62" y="6"/>
      <point x="59" y="0" type="qcurve"/>
      <point x="99" y="1"/>
      <point x="105" y="2" type="qcurve"/>
      <point x="106" y="3"/>
      <point x="108" y="7" type="qcurve"/>
    </contour>
  </outline>
</glyph>
<glyph name="zero" format="1">
  <advance width="513"/>
  <unicode hex="0030"/>
  <outline>
    <contour>
      <point x="82" y="618" type="qcurve"/>
      <point x="86" y="625"/>
      <point x="92" y="631" type="qcurve"/>
      <point x="122" y="665"/>
      <point x="196" y="708"/>
      <point x="247" y="710" type="qcurve"/>
      <point x="298" y="712"/>
      <point x="378" y="676"/>
      <point x="436" y="615"/>
      <point x="472" y="535"/>
      <point x="480" y="493" type="qcurve"/>
      <point x="485" y="461"/>
      <point x="490" y="402"/>
      <point x="488" y="373" type="qcurve"/>
      <point x="490" y="334"/>
      <point x="482" y="247"/>
      <point x="459" y="162"/>
      <point x="420" y="87"/>
      <point x="365" y="30"/>
      <point x="291" y="-1"/>
      <point x="244" y="2" type="qcurve"/>
      <point x="204" y="4"/>
      <point x="174" y="15" type="qcurve"/>
      <point x="123" y="34"/>
      <point x="67" y="99"/>
      <point x="40" y="180"/>
      <point x="33" y="270"/>
      <point x="32" y="315" type="qcurve"/>
      <point x="30" y="353"/>
      <point x="28" y="432"/>
      <point x="37" y="510"/>
      <point x="60" y="584"/>
    </contour>
    <contour>
      <point x="257" y="40" type="qcurve"/>
      <point x="338" y="45"/>
      <point x="424" y="173"/>
      <point x="438" y="238"/>
      <point x="440" y="284"/>
      <point x="442" y="310" type="qcurve"/>
      <point x="443" y="336"/>
      <point x="444" y="399"/>
      <point x="439" y="509"/>
      <point x="366" y="652"/>
      <point x="274" y="667" type="qcurve"/>
      <point x="165" y="669"/>
      <point x="99" y="554"/>
      <point x="87" y="513"/>
      <point x="80" y="478"/>
      <point x="77" y="448" type="qcurve"/>
      <point x="78" y="385"/>
      <point x="78" y="283"/>
      <point x="88" y="200" type="qcurve"/>
      <point x="108" y="40"/>
    </contour>
  </outline>
</glyph>
<glyph name="three" format="1">
  <advance width="492"/>
  <unicode hex="0033"/>
  <outline>
    <contour>
      <point x="70" y="44" type="qcurve"/>
      <point x="56" y="58"/>
      <point x="39" y="95"/>
      <point x="37" y="115" type="qcurve"/>
      <point x="33" y="138"/>
      <point x="29" y="187"/>
      <point x="28" y="218" type="qcurve"/>
      <point x="28" y="219"/>
      <point x="29" y="219" type="qcurve"/>
      <point x="30" y="219" type="line"/>
      <point x="60" y="217"/>
      <point x="77" y="220" type="qcurve"/>
      <point x="78" y="220" type="line"/>
      <point x="79" y="219" type="line"/>
      <point x="76" y="215"/>
      <point x="102" y="38"/>
      <point x="374" y="54"/>
      <point x="407" y="216"/>
      <point x="394" y="323"/>
      <point x="331" y="348"/>
      <point x="195" y="343"/>
      <point x="170" y="344" type="qcurve"/>
      <point x="164" y="357"/>
      <point x="167" y="402"/>
      <point x="165" y="393" type="qcurve"/>
      <point x="165" y="394" type="line"/>
      <point x="182" y="400"/>
      <point x="329" y="394"/>
      <point x="392" y="392"/>
      <point x="409" y="467"/>
      <point x="396" y="644"/>
      <point x="238" y="674"/>
      <point x="136" y="647"/>
      <point x="75" y="585"/>
      <point x="82" y="489" type="qcurve"/>
      <point x="51" y="489"/>
      <point x="30" y="487"/>
      <point x="28" y="487" type="qcurve"/>
      <point x="28" y="489" type="line"/>
      <point x="28" y="509"/>
      <point x="24" y="560"/>
      <point x="32" y="582" type="qcurve"/>
      <point x="44" y="622"/>
      <point x="105" y="676"/>
      <point x="184" y="706"/>
      <point x="273" y="711"/>
      <point x="356" y="693"/>
      <point x="423" y="653"/>
      <point x="440" y="623" type="qcurve"/>
      <point x="450" y="607"/>
      <point x="455" y="570"/>
      <point x="454" y="551" type="qcurve"/>
      <point x="456" y="466"/>
      <point x="455" y="301"/>
      <point x="452" y="220" type="qcurve"/>
      <point x="450" y="191"/>
      <point x="448" y="131"/>
      <point x="435" y="104" type="qcurve"/>
      <point x="421" y="71"/>
      <point x="372" y="23"/>
      <point x="335" y="11" type="qcurve"/>
      <point x="298" y="0"/>
      <point x="210" y="-1"/>
      <point x="172" y="4" type="qcurve"/>
      <point x="158" y="6"/>
      <point x="131" y="14"/>
      <point x="117" y="18" type="qcurve"/>
      <point x="96" y="24"/>
      <point x="72" y="42"/>
    </contour>
  </outline>
</glyph>
<glyph name="four" format="1">
  <advance width="469"/>
  <unicode hex="0034"/>
  <outline>
    <contour>
      <point x="391" y="320" type="line"/>
      <point x="440" y="318"/>
      <point x="452" y="318" type="qcurve"/>
      <point x="446" y="259" type="line"/>
      <point x="430" y="254"/>
      <point x="385" y="256" type="qcurve"/>
      <point x="385" y="257"/>
      <point x="383" y="234"/>
      <point x="380" y="164"/>
      <point x="377" y="78"/>
      <point x="379" y="38"/>
      <point x="377" y="8"/>
      <point x="376" y="4" type="qcurve"/>
      <point x="370" y="-3"/>
      <point x="307" y="-2" type="qcurve"/>
      <point x="306" y="-1"/>
      <point x="308" y="27"/>
      <point x="310" y="68"/>
      <point x="313" y="116"/>
      <point x="318" y="259"/>
      <point x="318" y="261" type="qcurve"/>
      <point x="314" y="262"/>
      <point x="273" y="264"/>
      <point x="146" y="263"/>
      <point x="93" y="262"/>
      <point x="48" y="262"/>
      <point x="18" y="263"/>
      <point x="17" y="265" type="qcurve"/>
      <point x="12" y="296"/>
      <point x="18" y="315" type="qcurve"/>
      <point x="234" y="606"/>
      <point x="311" y="703" type="qcurve"/>
      <point x="311" y="704"/>
      <point x="312" y="704" type="qcurve"/>
      <point x="316" y="704"/>
      <point x="374" y="705"/>
      <point x="382" y="705"/>
      <point x="390" y="704" type="qcurve"/>
      <point x="392" y="704" type="line"/>
      <point x="392" y="703"/>
      <point x="390" y="651"/>
      <point x="388" y="572"/>
      <point x="385" y="479"/>
      <point x="384" y="364"/>
      <point x="384" y="326"/>
      <point x="385" y="319" type="qcurve"/>
    </contour>
    <contour>
      <point x="336" y="642" type="line"/>
      <point x="335" y="648"/>
      <point x="316" y="621"/>
      <point x="208" y="478"/>
      <point x="88" y="322"/>
      <point x="87" y="320" type="qcurve"/>
      <point x="87" y="320"/>
      <point x="164" y="319"/>
      <point x="210" y="318"/>
      <point x="318" y="321"/>
      <point x="325" y="322" type="qcurve"/>
    </contour>
  </outline>
</glyph>
<glyph name="five" format="1">
  <advance width="503"/>
  <unicode hex="0035"/>
  <outline>
    <contour>
      <point x="100" y="216" type="line"/>
      <point x="100" y="215" type="line"/>
      <point x="100" y="214"/>
      <point x="101" y="212"/>
      <point x="101" y="211" type="qcurve"/>
      <point x="78" y="132"/>
      <point x="159" y="36"/>
      <point x="367" y="46"/>
      <point x="434" y="177"/>
      <point x="421" y="322"/>
      <point x="373" y="385"/>
      <point x="275" y="398"/>
      <point x="119" y="391"/>
      <point x="65" y="389"/>
      <point x="44" y="391" type="qcurve"/>
      <point x="42" y="391"/>
      <point x="42" y="392" type="qcurve"/>
      <point x="38" y="401"/>
      <point x="38" y="486"/>
      <point x="37" y="567"/>
      <point x="36" y="649"/>
      <point x="36" y="696" type="qcurve"/>
      <point x="37" y="696" type="line"/>
      <point x="40" y="696"/>
      <point x="102" y="698"/>
      <point x="193" y="700"/>
      <point x="298" y="702"/>
      <point x="390" y="703"/>
      <point x="456" y="703"/>
      <point x="463" y="702" type="qcurve"/>
      <point x="464" y="701"/>
      <point x="464" y="676"/>
      <point x="464" y="656"/>
      <point x="464" y="656" type="qcurve"/>
      <point x="457" y="655"/>
      <point x="414" y="653"/>
      <point x="357" y="652"/>
      <point x="294" y="650"/>
      <point x="238" y="649"/>
      <point x="100" y="647"/>
      <point x="94" y="647" type="qcurve"/>
      <point x="93" y="647" type="line"/>
      <point x="93" y="645" type="line"/>
      <point x="93" y="644" type="line"/>
      <point x="93" y="643"/>
      <point x="94" y="642"/>
      <point x="94" y="641" type="qcurve"/>
      <point x="96" y="633"/>
      <point x="98" y="446"/>
      <point x="102" y="440" type="qcurve"/>
      <point x="103" y="439" type="line"/>
      <point x="104" y="438" type="line"/>
      <point x="105" y="438" type="line"/>
      <point x="258" y="451"/>
      <point x="426" y="427"/>
      <point x="473" y="317"/>
      <point x="478" y="193"/>
      <point x="470" y="134" type="qcurve"/>
      <point x="460" y="88"/>
      <point x="388" y="23"/>
      <point x="291" y="-9"/>
      <point x="183" y="-9"/>
      <point x="94" y="27"/>
      <point x="36" y="100"/>
      <point x="37" y="156" type="qcurve"/>
      <point x="37" y="182"/>
      <point x="43" y="214" type="qcurve"/>
      <point x="43" y="216" type="line"/>
    </contour>
  </outline>
</glyph>
<glyph name="seven" format="1">
  <advance width="476"/>
  <unicode hex="0037"/>
  <outline>
    <contour>
      <point x="27" y="651" type="line"/>
      <point x="26" y="676"/>
      <point x="27" y="706" type="qcurve"/>
      <point x="27" y="707" type="line"/>
      <point x="79" y="708"/>
      <point x="191" y="712"/>
      <point x="304" y="713"/>
      <point x="413" y="710"/>
      <point x="462" y="705" type="qcurve"/>
      <point x="462" y="704" type="line"/>
      <point x="462" y="675"/>
      <point x="462" y="647" type="qcurve"/>
      <point x="335" y="357"/>
      <point x="231" y="132"/>
      <point x="168" y="7" type="qcurve"/>
      <point x="146" y="7"/>
      <point x="118" y="2"/>
      <point x="103" y="6" type="qcurve"/>
      <point x="178" y="152"/>
      <point x="393" y="645"/>
      <point x="394" y="653" type="qcurve"/>
      <point x="365" y="655"/>
      <point x="293" y="655"/>
      <point x="119" y="655"/>
      <point x="54" y="652"/>
      <point x="29" y="651" type="qcurve"/>
    </contour>
  </outline>
</glyph>
<glyph name="nine" format="1">
  <advance width="513"/>
  <unicode hex="0039"/>
  <outline>
    <contour>
      <point x="476" y="323" type="line"/>
      <point x="477" y="290"/>
      <point x="481" y="225"/>
      <point x="477" y="192" type="qcurve"/>
      <point x="472" y="155"/>
      <point x="448" y="86"/>
      <point x="427" y="57" type="qcurve"/>
      <point x="406" y="32"/>
      <point x="344" y="3"/>
      <point x="273" y="-7"/>
      <point x="197" y="2"/>
      <point x="128" y="26"/>
      <point x="71" y="64"/>
      <point x="54" y="89" type="qcurve"/>
      <point x="20" y="140"/>
      <point x="30" y="217" type="qcurve"/>
      <point x="30" y="222" type="line"/>
      <point x="65" y="223"/>
      <point x="97" y="222" type="qcurve"/>
      <point x="72" y="90"/>
      <point x="269" y="26"/>
      <point x="341" y="56" type="qcurve"/>
      <point x="420" y="80"/>
      <point x="419" y="270"/>
      <point x="419" y="318"/>
      <point x="421" y="347" type="qcurve"/>
      <point x="420" y="348" type="line"/>
      <point x="347" y="285"/>
      <point x="198" y="286"/>
      <point x="133" y="308"/>
      <point x="78" y="349"/>
      <point x="59" y="378" type="qcurve"/>
      <point x="45" y="399"/>
      <point x="30" y="457"/>
      <point x="27" y="518"/>
      <point x="35" y="576"/>
      <point x="44" y="598" type="qcurve"/>
      <point x="49" y="607"/>
      <point x="59" y="624"/>
      <point x="66" y="632" type="qcurve"/>
      <point x="99" y="671"/>
      <point x="201" y="707"/>
      <point x="256" y="709" type="qcurve"/>
      <point x="281" y="708"/>
      <point x="334" y="708"/>
      <point x="383" y="699"/>
      <point x="425" y="676"/>
      <point x="440" y="653" type="qcurve"/>
      <point x="463" y="618"/>
      <point x="473" y="522"/>
      <point x="474" y="471" type="qcurve"/>
    </contour>
    <contour>
      <point x="419" y="467" type="qcurve"/>
      <point x="422" y="482"/>
      <point x="422" y="506" type="qcurve"/>
      <point x="424" y="552"/>
      <point x="392" y="639"/>
      <point x="303" y="668"/>
      <point x="207" y="671"/>
      <point x="164" y="650" type="qcurve"/>
      <point x="127" y="633"/>
      <point x="76" y="580"/>
      <point x="76" y="535" type="qcurve"/>
      <point x="79" y="505"/>
      <point x="85" y="444"/>
      <point x="95" y="417" type="qcurve"/>
      <point x="115" y="373"/>
      <point x="197" y="326"/>
      <point x="285" y="319"/>
      <point x="367" y="357"/>
      <point x="414" y="409"/>
    </contour>
  </outline>
</glyph>
<glyph name="colon" format="1">
  <advance width="205"/>
  <unicode hex="003A"/>
  <outline>
    <contour>
      <point x="83" y="1" type="line"/>
      <point x="80" y="1" type="line"/>
      <point x="78" y="12"/>
      <point x="77" y="46"/>
      <point x="78" y="80"/>
      <point x="79" y="110"/>
      <point x="79" y="117" type="qcurve"/>
      <point x="89" y="121"/>
      <point x="111" y="125"/>
      <point x="124" y="122"/>
      <point x="131" y="119" type="qcurve"/>
      <point x="131" y="118"/>
      <point x="129" y="87"/>
      <point x="127" y="47"/>
      <point x="125" y="9"/>
      <point x="125" y="2" type="qcurve"/>
      <point x="125" y="1" type="line"/>
      <point x="125" y="0" type="line"/>
      <point x="123" y="0" type="line"/>
    </contour>
    <contour>
      <point x="84" y="337" type="line"/>
      <point x="81" y="337" type="line"/>
      <point x="79" y="348"/>
      <point x="78" y="382"/>
      <point x="79" y="416"/>
      <point x="80" y="446"/>
      <point x="80" y="453" type="qcurve"/>
      <point x="90" y="457"/>
      <point x="112" y="461"/>
      <point x="125" y="458"/>
      <point x="132" y="455" type="qcurve"/>
      <point x="132" y="454"/>
      <point x="130" y="423"/>
      <point x="128" y="383"/>
      <point x="126" y="345"/>
      <point x="126" y="338" type="qcurve"/>
      <point x="126" y="337" type="line"/>
      <point x="126" y="336" type="line"/>
      <point x="124" y="336" type="line"/>
    </contour>
  </outline>
</glyph>
<glyph name="question" format="1">
  <advance width="451"/>
  <unicode hex="003F"/>
  <outline>
    <contour>
      <point x="229" y="232" type="line"/>
      <point x="236" y="277"/>
      <point x="273" y="338"/>
      <point x="348" y="420"/>
      <point x="385" y="485"/>
      <point x="393" y="567"/>
      <point x="340" y="646"/>
      <point x="257" y="677"/>
      <point x="118" y="646"/>
      <point x="65" y="537"/>
      <point x="67" y="497" type="qcurve"/>
      <point x="46" y="497"/>
      <point x="16" y="498" type="qcurve"/>
      <point x="16" y="499" type="line"/>
      <point x="18" y="537"/>
      <point x="48" y="610"/>
      <point x="100" y="668"/>
      <point x="170" y="705"/>
      <point x="213" y="707" type="qcurve"/>
      <point x="259" y="711"/>
      <point x="342" y="685"/>
      <point x="403" y="631"/>
      <point x="435" y="555"/>
      <point x="430" y="511" type="qcurve"/>
      <point x="426" y="479"/>
      <point x="400" y="427"/>
      <point x="383" y="405" type="qcurve"/>
      <point x="367" y="383"/>
      <point x="338" y="356"/>
      <point x="323" y="336" type="qcurve"/>
      <point x="302" y="307"/>
      <point x="275" y="257"/>
      <point x="268" y="188"/>
      <point x="270" y="180" type="qcurve"/>
      <point x="270" y="179" type="line"/>
      <point x="227" y="177" type="line"/>
      <point x="226" y="177" type="line"/>
      <point x="226" y="200"/>
      <point x="226" y="205" type="qcurve"/>
    </contour>
    <contour>
      <point x="228" y="0" type="line"/>
      <point x="225" y="0" type="line"/>
      <point x="223" y="11"/>
      <point x="222" y="45"/>
      <point x="223" y="79"/>
      <point x="224" y="109"/>
      <point x="224" y="116" type="qcurve"/>
      <point x="234" y="120"/>
      <point x="243" y="120"/>
      <point x="260" y="122"/>
      <point x="267" y="119" type="qcurve"/>
      <point x="267" y="118"/>
      <point x="265" y="87"/>
      <point x="263" y="47"/>
      <point x="261" y="9"/>
      <point x="261" y="2" type="qcurve"/>
      <point x="261" y="1" type="line"/>
      <point x="261" y="0" type="line"/>
      <point x="259" y="0" type="line"/>
    </contour>
  </outline>
</glyph>
<glyph name="A" format="1">
  <advance width="434"/>
  <unicode hex="0041"/>
  <outline>
    <contour>
      <point x="437" y="1" type="line"/>
      <point x="437" y="0" type="line"/>
      <point x="391" y="-6"/>
      <point x="394" y="0" type="qcurve"/>
      <point x="393" y="0" type="line"/>
      <point x="387" y="16"/>
      <point x="376" y="60"/>
      <point x="365" y="106"/>
      <point x="348" y="169" type="qcurve"/>
      <point x="83" y="172" type="line"/>
      <point x="72" y="111"/>
      <point x="63" y="64"/>
      <point x="52" y="3" type="qcurve"/>
      <point x="51" y="3"/>
      <point x="44" y="2"/>
      <point x="4" y="2" type="qcurve"/>
      <point x="6" y="9"/>
      <point x="16" y="73"/>
      <point x="34" y="175"/>
      <point x="59" y="308"/>
      <point x="93" y="458"/>
      <point x="133" y="620"/>
      <point x="166" y="700" type="qcurve"/>
      <point x="173" y="701"/>
      <point x="189" y="701"/>
      <point x="206" y="701"/>
      <point x="247" y="702"/>
      <point x="280" y="705" type="qcurve"/>
      <point x="283" y="692"/>
      <point x="296" y="639"/>
      <point x="311" y="572"/>
      <point x="328" y="496"/>
      <point x="344" y="426"/>
      <point x="358" y="368"/>
      <point x="362" y="351" type="qcurve"/>
    </contour>
    <contour>
      <point x="347" y="213" type="qcurve"/>
      <point x="256" y="659"/>
      <point x="239" y="659"/>
      <point x="202" y="659"/>
      <point x="183" y="658"/>
      <point x="136" y="451"/>
      <point x="88" y="213" type="qcurve"/>
      <point x="100" y="212"/>
      <point x="215" y="210"/>
    </contour>
  </outline>
</glyph>
<glyph name="F" format="1">
  <advance width="494"/>
  <unicode hex="0046"/>
  <outline>
    <contour>
      <point x="351" y="318" type="line"/>
      <point x="306" y="319"/>
      <point x="255" y="319"/>
      <point x="88" y="314" type="qcurve"/>
      <point x="87" y="314" type="line"/>
      <point x="89" y="183"/>
      <point x="87" y="58"/>
      <point x="86" y="1" type="qcurve"/>
      <point x="59" y="-1"/>
      <point x="94" y="-3"/>
      <point x="46" y="-1"/>
      <point x="42" y="1" type="qcurve"/>
      <point x="41" y="2" type="line"/>
      <point x="41" y="62"/>
      <point x="41" y="167"/>
      <point x="42" y="265"/>
      <point x="42" y="364"/>
      <point x="43" y="474"/>
      <point x="43" y="601"/>
      <point x="43" y="679" type="qcurve"/>
      <point x="43" y="680" type="line"/>
      <point x="60" y="683"/>
      <point x="124" y="689"/>
      <point x="205" y="695"/>
      <point x="296" y="698"/>
      <point x="384" y="697"/>
      <point x="462" y="689"/>
      <point x="490" y="682" type="qcurve"/>
      <point x="490" y="669"/>
      <point x="489" y="648" type="qcurve"/>
      <point x="408" y="652"/>
      <point x="339" y="656"/>
      <point x="268" y="653"/>
      <point x="197" y="649"/>
      <point x="85" y="643" type="qcurve"/>
      <point x="85" y="483"/>
      <point x="83" y="385"/>
      <point x="88" y="359" type="qcurve"/>
      <point x="89" y="358"/>
      <point x="90" y="358" type="qcurve"/>
      <point x="178" y="358"/>
      <point x="277" y="358"/>
      <point x="317" y="357"/>
      <point x="342" y="357"/>
      <point x="353" y="358" type="qcurve"/>
      <point x="355" y="354"/>
      <point x="355" y="331"/>
      <point x="354" y="320"/>
      <point x="353" y="318" type="qcurve"/>
    </contour>
  </outline>
</glyph>
<glyph name="G" format="1">
  <advance width="481"/>
  <unicode hex="0047"/>
  <outline>
    <contour>
      <point x="243" y="348" type="qcurve"/>
      <point x="256" y="356"/>
      <point x="315" y="359"/>
      <point x="381" y="357"/>
      <point x="438" y="352"/>
      <point x="448" y="352" type="qcurve"/>
      <point x="450" y="352" type="line"/>
      <point x="451" y="351" type="line"/>
      <point x="457" y="298"/>
      <point x="461" y="179"/>
      <point x="451" y="125" type="qcurve"/>
      <point x="446" y="74"/>
      <point x="394" y="20"/>
      <point x="356" y="6" type="qcurve"/>
      <point x="331" y="-1"/>
      <point x="277" y="-12"/>
      <point x="221" y="-17"/>
      <point x="168" y="-11"/>
      <point x="144" y="-1" type="qcurve"/>
      <point x="104" y="16"/>
      <point x="62" y="74"/>
      <point x="50" y="117" type="qcurve"/>
      <point x="47" y="128"/>
      <point x="40" y="167"/>
      <point x="38" y="187" type="qcurve"/>
      <point x="35" y="219"/>
      <point x="31" y="271"/>
      <point x="28" y="322"/>
      <point x="27" y="379"/>
      <point x="28" y="416" type="qcurve"/>
      <point x="29" y="448"/>
      <point x="33" y="515"/>
      <point x="38" y="547" type="qcurve"/>
      <point x="43" y="580"/>
      <point x="68" y="642"/>
      <point x="97" y="662" type="qcurve"/>
      <point x="117" y="679"/>
      <point x="167" y="695"/>
      <point x="194" y="699" type="qcurve"/>
      <point x="249" y="706"/>
      <point x="349" y="685"/>
      <point x="421" y="631"/>
      <point x="457" y="542"/>
      <point x="450" y="481" type="qcurve"/>
      <point x="449" y="475" type="line"/>
      <point x="447" y="472"/>
      <point x="433" y="472"/>
      <point x="401" y="483" type="qcurve"/>
      <point x="398" y="493"/>
      <point x="406" y="545"/>
      <point x="372" y="644"/>
      <point x="242" y="671"/>
      <point x="158" y="653"/>
      <point x="102" y="609"/>
      <point x="88" y="549"/>
      <point x="86" y="541" type="qcurve"/>
      <point x="79" y="517"/>
      <point x="76" y="438"/>
      <point x="71" y="371"/>
      <point x="68" y="290"/>
      <point x="71" y="253" type="qcurve"/>
      <point x="82" y="129"/>
      <point x="123" y="71"/>
      <point x="142" y="56" type="qcurve"/>
      <point x="151" y="50"/>
      <point x="173" y="36" type="qcurve"/>
      <point x="233" y="18"/>
      <point x="307" y="22"/>
      <point x="351" y="42"/>
      <point x="387" y="58"/>
      <point x="411" y="124" type="qcurve"/>
      <point x="416" y="189"/>
      <point x="409" y="276"/>
      <point x="403" y="296"/>
      <point x="402" y="312"/>
      <point x="399" y="313" type="qcurve"/>
      <point x="393" y="314"/>
      <point x="292" y="315"/>
      <point x="269" y="314"/>
      <point x="250" y="315"/>
      <point x="245" y="317" type="qcurve"/>
      <point x="242" y="327"/>
      <point x="240" y="345" type="qcurve"/>
      <point x="240" y="346" type="line"/>
      <point x="240" y="347"/>
      <point x="241" y="347" type="qcurve"/>
      <point x="241" y="347"/>
    </contour>
  </outline>
</glyph>
<glyph name="I" format="1">
  <advance width="260"/>
  <unicode hex="0049"/>
  <outline>
    <contour>
      <point x="155" y="703" type="qcurve"/>
      <point x="155" y="699" type="line"/>
      <point x="155" y="613"/>
      <point x="150" y="439"/>
      <point x="152" y="264"/>
      <point x="149" y="90"/>
      <point x="154" y="1" type="qcurve"/>
      <point x="144" y="0"/>
      <point x="133" y="-1"/>
      <point x="106" y="-1"/>
      <point x="96" y="-4" type="qcurve"/>
      <point x="98" y="118"/>
      <point x="96" y="447"/>
      <point x="95" y="622"/>
      <point x="104" y="706" type="qcurve"/>
      <point x="104" y="708" type="line"/>
      <point x="120" y="709"/>
      <point x="126" y="706"/>
      <point x="128" y="706" type="qcurve"/>
      <point x="136" y="705"/>
    </contour>
  </outline>
</glyph>
<glyph name="N" format="1">
  <advance width="498"/>
  <unicode hex="004E"/>
  <outline>
    <contour>
      <point x="412" y="4" type="qcurve"/>
      <point x="379" y="78"/>
      <point x="316" y="173"/>
      <point x="119" y="533" type="qcurve"/>
      <point x="102" y="568"/>
      <point x="95" y="587"/>
      <point x="92" y="569" type="qcurve"/>
      <point x="95" y="537"/>
      <point x="93" y="463"/>
      <point x="101" y="125"/>
      <point x="101" y="83" type="qcurve"/>
      <point x="101" y="60"/>
      <point x="101" y="17"/>
      <point x="102" y="0" type="qcurve"/>
      <point x="91" y="-3"/>
      <point x="65" y="1"/>
      <point x="42" y="1" type="qcurve"/>
      <point x="42" y="71" type="line"/>
      <point x="42" y="166"/>
      <point x="39" y="338"/>
      <point x="39" y="432" type="qcurve"/>
      <point x="39" y="501"/>
      <point x="43" y="636"/>
      <point x="48" y="700" type="qcurve"/>
      <point x="58" y="702"/>
      <point x="96" y="696"/>
      <point x="96" y="694" type="qcurve"/>
      <point x="103" y="676"/>
      <point x="115" y="652"/>
      <point x="142" y="603"/>
      <point x="151" y="582" type="qcurve"/>
      <point x="153" y="577"/>
      <point x="373" y="191"/>
      <point x="402" y="135"/>
      <point x="410" y="124" type="qcurve"/>
      <point x="410" y="173"/>
      <point x="410" y="190" type="qcurve"/>
      <point x="410" y="242"/>
      <point x="407" y="311"/>
      <point x="407" y="347" type="qcurve"/>
      <point x="402" y="640"/>
      <point x="398" y="683"/>
      <point x="398" y="708" type="qcurve"/>
      <point x="427" y="710"/>
      <point x="456" y="704" type="qcurve"/>
      <point x="456" y="382" type="line"/>
      <point x="457" y="340"/>
      <point x="457" y="254"/>
      <point x="457" y="211" type="qcurve"/>
      <point x="457" y="182"/>
      <point x="456" y="128"/>
      <point x="456" y="100" type="qcurve"/>
      <point x="451" y="66"/>
      <point x="457" y="20" type="qcurve"/>
      <point x="457" y="0" type="line"/>
      <point x="455" y="-1"/>
    </contour>
  </outline>
</glyph>
<glyph name="Q" format="1">
  <advance width="495"/>
  <unicode hex="0051"/>
  <outline>
    <contour>
      <point x="456" y="165" type="qcurve"/>
      <point x="455" y="153"/>
      <point x="451" y="139" type="qcurve"/>
      <point x="445" y="115"/>
      <point x="380" y="50" type="qcurve"/>
      <point x="387" y="42"/>
      <point x="399" y="27"/>
      <point x="415" y="15"/>
      <point x="377" y="-8" type="qcurve"/>
      <point x="371" y="-8"/>
      <point x="346" y="16"/>
      <point x="340" y="24" type="qcurve"/>
      <point x="334" y="17"/>
      <point x="310" y="5"/>
      <point x="280" y="-3"/>
      <point x="246" y="-7"/>
      <point x="231" y="-6" type="qcurve"/>
      <point x="206" y="-4"/>
      <point x="167" y="5"/>
      <point x="134" y="20"/>
      <point x="105" y="40"/>
      <point x="90" y="54" type="qcurve"/>
      <point x="65" y="78"/>
      <point x="40" y="135"/>
      <point x="30" y="200"/>
      <point x="30" y="270"/>
      <point x="30" y="307" type="qcurve"/>
      <point x="30" y="342"/>
      <point x="30" y="421"/>
      <point x="33" y="502"/>
      <point x="42" y="582"/>
      <point x="52" y="618" type="qcurve"/>
      <point x="59" y="639"/>
      <point x="95" y="674"/>
      <point x="148" y="700"/>
      <point x="214" y="714"/>
      <point x="253" y="714" type="qcurve"/>
      <point x="288" y="714"/>
      <point x="342" y="709"/>
      <point x="386" y="687"/>
      <point x="422" y="642"/>
      <point x="439" y="602" type="qcurve"/>
      <point x="456" y="548"/>
      <point x="468" y="428"/>
      <point x="468" y="368" type="qcurve"/>
      <point x="468" y="337"/>
      <point x="467" y="294"/>
      <point x="465" y="264" type="qcurve"/>
      <point x="463" y="239"/>
      <point x="462" y="189"/>
    </contour>
    <contour>
      <point x="319" y="121" type="line"/>
      <point x="335" y="105"/>
      <point x="341" y="98"/>
      <point x="354" y="85"/>
      <point x="360" y="79" type="qcurve"/>
      <point x="377" y="99"/>
      <point x="426" y="168"/>
      <point x="434" y="357"/>
      <point x="418" y="519"/>
      <point x="398" y="594" type="qcurve"/>
      <point x="388" y="628"/>
      <point x="345" y="664"/>
      <point x="309" y="669" type="qcurve"/>
      <point x="233" y="673"/>
      <point x="128" y="653"/>
      <point x="85" y="594"/>
      <point x="79" y="508"/>
      <point x="77" y="483" type="qcurve"/>
      <point x="75" y="462"/>
      <point x="72" y="427"/>
      <point x="72" y="384"/>
      <point x="71" y="349"/>
      <point x="71" y="328" type="qcurve"/>
      <point x="71" y="314"/>
      <point x="69" y="278"/>
      <point x="73" y="228"/>
      <point x="77" y="181"/>
      <point x="85" y="149" type="qcurve"/>
      <point x="113" y="60"/>
      <point x="268" y="23"/>
      <point x="308" y="42" type="qcurve"/>
      <point x="322" y="52"/>
      <point x="319" y="62"/>
      <point x="293" y="91"/>
      <point x="290" y="97" type="qcurve"/>
    </contour>
  </outline>
</glyph>
<glyph name="S" format="1">
  <advance width="485"/>
  <unicode hex="0053"/>
  <outline>
    <contour>
      <point x="462" y="474" type="line"/>
      <point x="431" y="470"/>
      <point x="410" y="473" type="qcurve"/>
      <point x="430" y="599"/>
      <point x="265" y="670"/>
      <point x="118" y="626"/>
      <point x="63" y="534"/>
      <point x="72" y="429"/>
      <point x="145" y="368"/>
      <point x="281" y="367"/>
      <point x="390" y="349"/>
      <point x="446" y="309"/>
      <point x="465" y="262"/>
      <point x="464" y="193"/>
      <point x="453" y="136"/>
      <point x="441" y="110" type="qcurve"/>
      <point x="429" y="79"/>
      <point x="389" y="35"/>
      <point x="338" y="7"/>
      <point x="279" y="-6"/>
      <point x="248" y="-5" type="qcurve"/>
      <point x="204" y="-4"/>
      <point x="117" y="25"/>
      <point x="49" y="77"/>
      <point x="9" y="152"/>
      <point x="12" y="206" type="qcurve"/>
      <point x="40" y="208"/>
      <point x="63" y="206" type="qcurve"/>
      <point x="60" y="154"/>
      <point x="127" y="71"/>
      <point x="302" y="28"/>
      <point x="423" y="135"/>
      <point x="418" y="218" type="qcurve"/>
      <point x="411" y="290"/>
      <point x="301" y="328"/>
      <point x="149" y="318"/>
      <point x="43" y="379"/>
      <point x="16" y="481"/>
      <point x="40" y="581"/>
      <point x="107" y="663"/>
      <point x="155" y="683" type="qcurve"/>
      <point x="179" y="693"/>
      <point x="237" y="700"/>
      <point x="296" y="697"/>
      <point x="353" y="683"/>
      <point x="377" y="672" type="qcurve"/>
      <point x="425" y="647"/>
      <point x="477" y="549"/>
      <point x="463" y="474" type="qcurve"/>
    </contour>
  </outline>
</glyph>
<glyph name="T" format="1">
  <advance width="443"/>
  <unicode hex="0054"/>
  <outline>
    <contour>
      <point x="432" y="695" type="qcurve"/>
      <point x="433" y="671"/>
      <point x="429" y="645" type="qcurve"/>
      <point x="410" y="649"/>
      <point x="334" y="647"/>
      <point x="250" y="647" type="qcurve"/>
      <point x="252" y="637"/>
      <point x="251" y="616"/>
      <point x="250" y="466"/>
      <point x="251" y="393"/>
      <point x="253" y="278"/>
      <point x="255" y="117"/>
      <point x="257" y="8" type="qcurve"/>
      <point x="257" y="7" type="line"/>
      <point x="257" y="6" type="line"/>
      <point x="237" y="3"/>
      <point x="215" y="4"/>
      <point x="193" y="-1" type="qcurve"/>
      <point x="192" y="3"/>
      <point x="194" y="67"/>
      <point x="195" y="194"/>
      <point x="192" y="392"/>
      <point x="187" y="637" type="qcurve"/>
      <point x="187" y="644" type="line"/>
      <point x="174" y="644"/>
      <point x="118" y="647"/>
      <point x="52" y="648"/>
      <point x="22" y="648"/>
      <point x="16" y="650" type="qcurve"/>
      <point x="14" y="654"/>
      <point x="9" y="678"/>
      <point x="11" y="702" type="qcurve"/>
      <point x="11" y="703"/>
      <point x="10" y="703"/>
      <point x="10" y="704" type="qcurve"/>
      <point x="112" y="705"/>
      <point x="329" y="706"/>
    </contour>
  </outline>
</glyph>
<glyph name="U" format="1">
  <advance width="505"/>
  <unicode hex="0055"/>
  <outline>
    <contour>
      <point x="469" y="669" type="qcurve"/>
      <point x="475" y="541"/>
      <point x="471" y="280"/>
      <point x="457" y="151" type="qcurve"/>
      <point x="449" y="85"/>
      <point x="365" y="-7"/>
      <point x="293" y="-14" type="qcurve"/>
      <point x="251" y="-18"/>
      <point x="161" y="-3"/>
      <point x="88" y="36"/>
      <point x="46" y="122"/>
      <point x="44" y="168" type="qcurve"/>
      <point x="37" y="279"/>
      <point x="43" y="547"/>
      <point x="41" y="679" type="qcurve"/>
      <point x="40" y="680" type="line"/>
      <point x="41" y="680" type="line"/>
      <point x="56" y="680"/>
      <point x="94" y="680" type="qcurve"/>
      <point x="85" y="283"/>
      <point x="110" y="63"/>
      <point x="294" y="16"/>
      <point x="407" y="116"/>
      <point x="422" y="322"/>
      <point x="417" y="555"/>
      <point x="420" y="671" type="qcurve"/>
      <point x="457" y="676"/>
    </contour>
  </outline>
</glyph>
<glyph name="V" format="1">
  <advance width="440"/>
  <unicode hex="0056"/>
  <outline>
    <contour>
      <point x="445" y="684" type="qcurve"/>
      <point x="394" y="471"/>
      <point x="306" y="161"/>
      <point x="252" y="1" type="qcurve"/>
      <point x="244" y="1"/>
      <point x="205" y="-2"/>
      <point x="189" y="3" type="qcurve"/>
      <point x="123" y="206"/>
      <point x="59" y="471"/>
      <point x="16" y="681" type="qcurve"/>
      <point x="16" y="682" type="line"/>
      <point x="22" y="689"/>
      <point x="61" y="692"/>
      <point x="69" y="690" type="qcurve"/>
      <point x="73" y="670"/>
      <point x="107" y="461"/>
      <point x="178" y="200"/>
      <point x="224" y="63" type="qcurve"/>
      <point x="290" y="284"/>
      <point x="394" y="686" type="qcurve"/>
      <point x="394" y="688"/>
      <point x="428" y="687"/>
    </contour>
  </outline>
</glyph>
<glyph name="X" format="1">
  <advance width="436"/>
  <unicode hex="0058"/>
  <outline>
    <contour>
      <point x="439" y="698" type="qcurve"/>
      <point x="425" y="654"/>
      <point x="388" y="575"/>
      <point x="279" y="366" type="qcurve"/>
      <point x="323" y="282"/>
      <point x="388" y="128"/>
      <point x="414" y="43"/>
      <point x="424" y="2" type="qcurve"/>
      <point x="402" y="0"/>
      <point x="379" y="-1" type="qcurve"/>
      <point x="276" y="274"/>
      <point x="231" y="339" type="qcurve"/>
      <point x="147" y="161"/>
      <point x="85" y="54"/>
      <point x="57" y="2" type="qcurve"/>
      <point x="59" y="6"/>
      <point x="26" y="-2"/>
      <point x="6" y="1" type="qcurve"/>
      <point x="16" y="38"/>
      <point x="75" y="127"/>
      <point x="183" y="367" type="qcurve"/>
      <point x="117" y="471"/>
      <point x="-1" y="689" type="qcurve"/>
      <point x="41" y="690"/>
      <point x="63" y="690"/>
      <point x="66" y="685" type="qcurve"/>
      <point x="72" y="664"/>
      <point x="170" y="494"/>
      <point x="233" y="402" type="qcurve"/>
      <point x="331" y="566"/>
      <point x="392" y="698" type="qcurve"/>
      <point x="392" y="699" type="line"/>
      <point x="409" y="701"/>
      <point x="439" y="700" type="qcurve"/>
      <point x="440" y="700" type="line"/>
      <point x="440" y="699"/>
      <point x="439" y="699"/>
    </contour>
  </outline>
</glyph>
<glyph name="Z" format="1">
  <advance width="474"/>
  <unicode hex="005A"/>
  <outline>
    <contour>
      <point x="454" y="650" type="qcurve"/>
      <point x="260" y="303"/>
      <point x="93" y="46" type="qcurve"/>
      <point x="140" y="45"/>
      <point x="197" y="49"/>
      <point x="250" y="50"/>
      <point x="309" y="51"/>
      <point x="445" y="50" type="qcurve"/>
      <point x="446" y="36"/>
      <point x="443" y="0" type="qcurve"/>
      <point x="443" y="-2" type="line"/>
      <point x="348" y="3"/>
      <point x="141" y="5"/>
      <point x="34" y="-1" type="qcurve"/>
      <point x="37" y="17"/>
      <point x="35" y="48" type="qcurve"/>
      <point x="107" y="157"/>
      <point x="247" y="382"/>
      <point x="379" y="611"/>
      <point x="403" y="652" type="qcurve"/>
      <point x="385" y="655"/>
      <point x="165" y="654"/>
      <point x="95" y="657"/>
      <point x="32" y="654"/>
      <point x="14" y="654" type="qcurve"/>
      <point x="15" y="665"/>
      <point x="13" y="690" type="qcurve"/>
      <point x="116" y="700"/>
      <point x="336" y="695"/>
      <point x="451" y="694" type="qcurve"/>
      <point x="456" y="655"/>
    </contour>
  </outline>
</glyph>
<glyph name="bracketleft" format="1">
  <advance width="321"/>
  <unicode hex="005B"/>
  <outline>
    <contour>
      <point x="197" y="0" type="line"/>
      <point x="184" y="0"/>
      <point x="141" y="0"/>
      <point x="95" y="0"/>
      <point x="54" y="-1"/>
      <point x="43" y="-2" type="qcurve"/>
      <point x="43" y="2" type="line"/>
      <point x="44" y="86"/>
      <point x="43" y="263"/>
      <point x="43" y="441"/>
      <point x="47" y="618"/>
      <point x="53" y="704" type="qcurve"/>
      <point x="53" y="705" type="line"/>
      <point x="85" y="709"/>
      <point x="147" y="708"/>
      <point x="208" y="705"/>
      <point x="268" y="703"/>
      <point x="297" y="706" type="qcurve"/>
      <point x="293" y="659" type="line"/>
      <point x="292" y="659" type="line"/>
      <point x="290" y="659" type="line"/>
      <point x="263" y="661"/>
      <point x="130" y="656"/>
      <point x="103" y="658" type="qcurve"/>
      <point x="100" y="597" type="line"/>
      <point x="94" y="421"/>
      <point x="95" y="305"/>
      <point x="100" y="162"/>
      <point x="100" y="62" type="qcurve"/>
      <point x="100" y="61" type="line"/>
      <point x="210" y="54"/>
      <point x="267" y="52"/>
      <point x="292" y="50" type="qcurve"/>
      <point x="296" y="33"/>
      <point x="294" y="1" type="qcurve"/>
    </contour>
  </outline>
</glyph>
<glyph name="backslash" format="1">
  <advance width="412"/>
  <unicode hex="005C"/>
  <outline>
    <contour>
      <point x="256" y="151" type="line"/>
      <point x="250" y="166"/>
      <point x="239" y="196"/>
      <point x="234" y="211" type="qcurve"/>
      <point x="213" y="265"/>
      <point x="176" y="373"/>
      <point x="157" y="428" type="qcurve"/>
      <point x="148" y="455"/>
      <point x="130" y="510"/>
      <point x="120" y="538" type="qcurve"/>
      <point x="98" y="604"/>
      <point x="78" y="669"/>
      <point x="74" y="683" type="qcurve"/>
      <point x="72" y="689"/>
      <point x="70" y="696"/>
      <point x="68" y="701" type="qcurve"/>
      <point x="80" y="707"/>
      <point x="113" y="709" type="qcurve"/>
      <point x="120" y="681"/>
      <point x="136" y="627"/>
      <point x="189" y="467"/>
      <point x="200" y="438" type="qcurve"/>
      <point x="230" y="357"/>
      <point x="264" y="261"/>
      <point x="291" y="189"/>
      <point x="326" y="90" type="qcurve"/>
      <point x="327" y="86"/>
      <point x="339" y="57"/>
      <point x="350" y="25"/>
      <point x="356" y="6"/>
      <point x="359" y="0" type="qcurve"/>
      <point x="319" y="1"/>
      <point x="313" y="2" type="qcurve"/>
      <point x="312" y="3"/>
      <point x="310" y="7" type="qcurve"/>
    </contour>
  </outline>
</glyph>
<glyph name="bracketright" format="1">
  <advance width="321"/>
  <unicode hex="005D"/>
  <outline>
    <contour>
      <point x="124" y="0" type="line"/>
      <point x="137" y="0"/>
      <point x="180" y="0"/>
      <point x="226" y="0"/>
      <point x="267" y="-1"/>
      <point x="278" y="-2" type="qcurve"/>
      <point x="278" y="2" type="line"/>
      <point x="277" y="86"/>
      <point x="278" y="263"/>
      <point x="278" y="441"/>
      <point x="274" y="618"/>
      <point x="268" y="704" type="qcurve"/>
      <point x="268" y="705" type="line"/>
      <point x="236" y="709"/>
      <point x="174" y="708"/>
      <point x="113" y="705"/>
      <point x="53" y="703"/>
      <point x="24" y="706" type="qcurve"/>
      <point x="28" y="659" type="line"/>
      <point x="29" y="659" type="line"/>
      <point x="31" y="659" type="line"/>
      <point x="58" y="661"/>
      <point x="191" y="656"/>
      <point x="218" y="658" type="qcurve"/>
      <point x="221" y="597" type="line"/>
      <point x="227" y="421"/>
      <point x="226" y="305"/>
      <point x="221" y="162"/>
      <point x="221" y="62" type="qcurve"/>
      <point x="221" y="61" type="line"/>
      <point x="111" y="54"/>
      <point x="54" y="52"/>
      <point x="29" y="50" type="qcurve"/>
      <point x="25" y="33"/>
      <point x="27" y="1" type="qcurve"/>
    </contour>
  </outline>
</glyph>
<glyph name="underscore" format="1">
  <advance width="650"/>
  <unicode hex="005F"/>
  <outline>
    <contour>
      <point x="41" y="-93" type="qcurve"/>
      <point x="45" y="-93"/>
      <point x="97" y="-92"/>
      <point x="176" y="-91"/>
      <point x="274" y="-90"/>
      <point x="377" y="-89"/>
      <point x="475" y="-88"/>
      <point x="554" y="-88"/>
      <point x="606" y="-88"/>
      <point x="610" y="-88" type="qcurve"/>
      <point x="611" y="-88" type="line"/>
      <point x="608" y="-108"/>
      <point x="607" y="-129"/>
      <point x="607" y="-150" type="qcurve"/>
      <point x="595" y="-150"/>
      <point x="504" y="-150"/>
      <point x="379" y="-150"/>
      <point x="240" y="-149"/>
      <point x="122" y="-148"/>
      <point x="44" y="-148"/>
      <point x="43" y="-148" type="qcurve"/>
      <point x="43" y="-145"/>
      <point x="42" y="-120"/>
      <point x="41" y="-105"/>
    </contour>
  </outline>
</glyph>
<glyph name="g" format="1">
  <advance width="467"/>
  <unicode hex="0067"/>
  <outline>
    <contour>
      <point x="66" y="224" type="line"/>
      <point x="61" y="178"/>
      <point x="75" y="104" type="qcurve"/>
      <point x="106" y="31"/>
      <point x="277" y="35"/>
      <point x="328" y="49" type="qcurve"/>
      <point x="345" y="54"/>
      <point x="373" y="73"/>
      <point x="384" y="104"/>
      <point x="385" y="209"/>
      <point x="386" y="374"/>
      <point x="373" y="401" type="qcurve"/>
      <point x="344" y="444"/>
      <point x="296" y="461"/>
      <point x="232" y="463"/>
      <point x="163" y="459"/>
      <point x="100" y="418"/>
      <point x="79" y="379"/>
      <point x="70" y="303" type="qcurve"/>
      <point x="66" y="286"/>
      <point x="66" y="254"/>
      <point x="66" y="239" type="qcurve"/>
    </contour>
    <contour>
      <point x="308" y="-200" type="qcurve"/>
      <point x="298" y="-202"/>
      <point x="246" y="-200"/>
      <point x="205" y="-200" type="qcurve"/>
      <point x="158" y="-200"/>
      <point x="84" y="-160"/>
      <point x="61" y="-126" type="qcurve"/>
      <point x="57" y="-119"/>
      <point x="50" y="-96"/>
      <point x="45" y="-72"/>
      <point x="44" y="-50"/>
      <point x="45" y="-42" type="qcurve"/>
      <point x="55" y="-38"/>
      <point x="86" y="-43" type="qcurve"/>
      <point x="86" y="-69"/>
      <point x="128" y="-163"/>
      <point x="387" y="-153"/>
      <point x="387" y="-35"/>
      <point x="389" y="-14"/>
      <point x="388" y="-6" type="qcurve"/>
      <point x="386" y="11"/>
      <point x="388" y="29" type="qcurve"/>
      <point x="378" y="18"/>
      <point x="351" y="8"/>
      <point x="313" y="4"/>
      <point x="194" y="-1"/>
      <point x="180" y="-2" type="qcurve"/>
      <point x="161" y="-2"/>
      <point x="122" y="4"/>
      <point x="87" y="18"/>
      <point x="59" y="42"/>
      <point x="50" y="61" type="qcurve"/>
      <point x="36" y="88"/>
      <point x="24" y="147"/>
      <point x="22" y="178" type="qcurve"/>
      <point x="22" y="225"/>
      <point x="26" y="333"/>
      <point x="57" y="428"/>
      <point x="125" y="493"/>
      <point x="189" y="497" type="qcurve"/>
      <point x="309" y="500"/>
      <point x="364" y="479"/>
      <point x="376" y="451" type="qcurve"/>
      <point x="380" y="449"/>
      <point x="381" y="460"/>
      <point x="380" y="477"/>
      <point x="379" y="494"/>
      <point x="382" y="499" type="qcurve"/>
      <point x="429" y="499" type="line"/>
      <point x="433" y="374"/>
      <point x="434" y="101"/>
      <point x="428" y="-43" type="qcurve"/>
      <point x="427" y="-67"/>
      <point x="429" y="-114"/>
      <point x="419" y="-130" type="qcurve"/>
      <point x="405" y="-152"/>
      <point x="376" y="-178"/>
      <point x="348" y="-193"/>
      <point x="320" y="-199"/>
    </contour>
  </outline>
</glyph>
<glyph name="i" format="1">
  <advance width="207"/>
  <unicode hex="0069"/>
  <outline>
    <contour>
      <point x="139" y="503" type="qcurve"/>
      <point x="139" y="500" type="line"/>
      <point x="138" y="379"/>
      <point x="131" y="127"/>
      <point x="139" y="0" type="qcurve"/>
      <point x="112" y="2"/>
      <point x="90" y="0"/>
      <point x="83" y="-2" type="qcurve"/>
      <point x="83" y="108"/>
      <point x="83" y="214"/>
      <point x="83" y="319"/>
      <point x="81" y="444"/>
      <point x="87" y="503" type="qcurve"/>
      <point x="87" y="504" type="line"/>
      <point x="91" y="505"/>
    </contour>
    <contour>
      <point x="135" y="718" type="line"/>
      <point x="135" y="712"/>
      <point x="136" y="681"/>
      <point x="137" y="644"/>
      <point x="137" y="607"/>
      <point x="138" y="583" type="qcurve"/>
      <point x="102" y="581"/>
      <point x="87" y="581" type="qcurve"/>
      <point x="87" y="610"/>
      <point x="82" y="673"/>
      <point x="83" y="719" type="qcurve"/>
    </contour>
  </outline>
</glyph>
<glyph name="j" format="1">
  <advance width="204"/>
  <unicode hex="006A"/>
  <outline>
    <contour>
      <point x="125" y="500" type="line"/>
      <point x="154" y="502"/>
      <point x="167" y="500" type="qcurve"/>
      <point x="170" y="476"/>
      <point x="170" y="409"/>
      <point x="169" y="342"/>
      <point x="167" y="281"/>
      <point x="169" y="263" type="qcurve"/>
      <point x="169" y="214"/>
      <point x="170" y="125"/>
      <point x="169" y="38"/>
      <point x="168" y="-41"/>
      <point x="154" y="-99" type="qcurve"/>
      <point x="141" y="-130"/>
      <point x="82" y="-166"/>
      <point x="6" y="-184"/>
      <point x="-80" y="-189"/>
      <point x="-120" y="-187" type="qcurve"/>
      <point x="-122" y="-153"/>
      <point x="-120" y="-139" type="qcurve"/>
      <point x="-103" y="-140"/>
      <point x="-58" y="-138"/>
      <point x="49" y="-130"/>
      <point x="116" y="-96"/>
      <point x="128" y="54"/>
      <point x="124" y="261"/>
      <point x="127" y="361" type="qcurve"/>
    </contour>
    <contour>
      <point x="165" y="718" type="line"/>
      <point x="165" y="712"/>
      <point x="166" y="681"/>
      <point x="167" y="644"/>
      <point x="168" y="605"/>
      <point x="168" y="590" type="qcurve"/>
      <point x="164" y="584"/>
      <point x="138" y="582"/>
      <point x="119" y="585" type="qcurve"/>
      <point x="119" y="610"/>
      <point x="114" y="673"/>
      <point x="115" y="719" type="qcurve"/>
    </contour>
  </outline>
</glyph>
<glyph name="m" format="1">
  <advance width="684"/>
  <unicode hex="006D"/>
  <outline>
    <contour>
      <point x="91" y="440" type="qcurve"/>
      <point x="108" y="463"/>
      <point x="163" y="493"/>
      <point x="247" y="499"/>
      <point x="317" y="489"/>
      <point x="338" y="471" type="qcurve"/>
      <point x="343" y="466"/>
      <point x="348" y="454" type="qcurve"/>
      <point x="353" y="457"/>
      <point x="369" y="475"/>
      <point x="426" y="499"/>
      <point x="556" y="496"/>
      <point x="608" y="482"/>
      <point x="629" y="464" type="qcurve"/>
      <point x="639" y="455"/>
      <point x="650" y="398"/>
      <point x="653" y="318"/>
      <point x="652" y="223"/>
      <point x="650" y="126"/>
      <point x="648" y="36"/>
      <point x="650" y="2" type="qcurve"/>
      <point x="626" y="-3"/>
      <point x="606" y="-2" type="qcurve"/>
      <point x="604" y="21"/>
      <point x="604" y="79"/>
      <point x="605" y="141"/>
      <point x="608" y="204"/>
      <point x="609" y="289" type="qcurve"/>
      <point x="608" y="301"/>
      <point x="609" y="388"/>
      <point x="599" y="418" type="qcurve"/>
      <point x="587" y="456"/>
      <point x="463" y="467"/>
      <point x="385" y="430"/>
      <point x="377" y="361"/>
      <point x="378" y="314" type="qcurve"/>
      <point x="380" y="285"/>
      <point x="378" y="198"/>
      <point x="376" y="113"/>
      <point x="375" y="31"/>
      <point x="377" y="1" type="qcurve"/>
      <point x="356" y="-2"/>
      <point x="326" y="-2" type="qcurve"/>
      <point x="324" y="21"/>
      <point x="324" y="79"/>
      <point x="325" y="141"/>
      <point x="328" y="267"/>
      <point x="334" y="401"/>
      <point x="293" y="459"/>
      <point x="151" y="450"/>
      <point x="85" y="371"/>
      <point x="87" y="296"/>
      <point x="85" y="269" type="qcurve"/>
      <point x="83" y="234"/>
      <point x="85" y="167"/>
      <point x="84" y="110"/>
      <point x="84" y="51"/>
      <point x="84" y="1" type="qcurve"/>
      <point x="84" y="-3" type="line"/>
      <point x="61" y="-1"/>
      <point x="37" y="-3" type="qcurve"/>
      <point x="37" y="120"/>
      <point x="32" y="366"/>
      <point x="36" y="498" type="qcurve"/>
      <point x="48" y="497"/>
      <point x="73" y="497"/>
      <point x="89" y="496"/>
      <point x="89" y="493" type="qcurve"/>
      <point x="91" y="476"/>
      <point x="90" y="454"/>
    </contour>
  </outline>
</glyph>
<glyph name="n" format="1">
  <advance width="450"/>
  <unicode hex="006E"/>
  <outline>
    <contour>
      <point x="97" y="442" type="qcurve"/>
      <point x="102" y="445"/>
      <point x="117" y="453"/>
      <point x="122" y="457" type="qcurve"/>
      <point x="143" y="472"/>
      <point x="267" y="494"/>
      <point x="322" y="496"/>
      <point x="374" y="482"/>
      <point x="395" y="464" type="qcurve"/>
      <point x="405" y="455"/>
      <point x="416" y="398"/>
      <point x="419" y="318"/>
      <point x="418" y="223"/>
      <point x="416" y="126"/>
      <point x="414" y="36"/>
      <point x="416" y="2" type="qcurve"/>
      <point x="404" y="0"/>
      <point x="365" y="0" type="qcurve"/>
      <point x="363" y="23"/>
      <point x="363" y="81"/>
      <point x="364" y="143"/>
      <point x="369" y="240"/>
      <point x="369" y="320"/>
      <point x="363" y="459"/>
      <point x="183" y="444"/>
      <point x="120" y="410"/>
      <point x="93" y="364"/>
      <point x="91" y="337" type="qcurve"/>
      <point x="89" y="302"/>
      <point x="91" y="169"/>
      <point x="94" y="102"/>
      <point x="94" y="36"/>
      <point x="93" y="3" type="qcurve"/>
      <point x="93" y="-1" type="line"/>
      <point x="62" y="-1"/>
      <point x="38" y="-3" type="qcurve"/>
      <point x="38" y="120"/>
      <point x="33" y="366"/>
      <point x="37" y="498" type="qcurve"/>
      <point x="49" y="497"/>
      <point x="79" y="499"/>
      <point x="95" y="498"/>
      <point x="95" y="495" type="qcurve"/>
      <point x="97" y="478"/>
      <point x="96" y="456"/>
    </contour>
  </outline>
</glyph>
<glyph name="o" format="1">
  <advance width="448"/>
  <unicode hex="006F"/>
  <outline>
    <contour>
      <point x="45" y="456" type="qcurve"/>
      <point x="52" y="471"/>
      <point x="83" y="493"/>
      <point x="124" y="508"/>
      <point x="171" y="514"/>
      <point x="195" y="514" type="qcurve"/>
      <point x="215" y="512"/>
      <point x="252" y="515"/>
      <point x="273" y="513" type="qcurve"/>
      <point x="305" y="511"/>
      <point x="363" y="490"/>
      <point x="384" y="470" type="qcurve"/>
      <point x="398" y="461"/>
      <point x="414" y="421"/>
      <point x="422" y="368"/>
      <point x="424" y="305"/>
      <point x="425" y="272" type="qcurve"/>
      <point x="424" y="243"/>
      <point x="421" y="169"/>
      <point x="414" y="101"/>
      <point x="403" y="47"/>
      <point x="393" y="37" type="qcurve"/>
      <point x="376" y="13"/>
      <point x="321" y="-7"/>
      <point x="257" y="-12"/>
      <point x="189" y="-7"/>
      <point x="161" y="-7" type="qcurve"/>
      <point x="110" y="2"/>
      <point x="75" y="37" type="qcurve"/>
      <point x="48" y="61"/>
      <point x="28" y="133"/>
      <point x="24" y="212"/>
      <point x="27" y="292"/>
      <point x="24" y="325" type="qcurve"/>
      <point x="24" y="343"/>
      <point x="26" y="378"/>
      <point x="29" y="397" type="qcurve"/>
      <point x="30" y="408"/>
      <point x="37" y="434"/>
    </contour>
    <contour>
      <point x="90" y="432" type="qcurve"/>
      <point x="71" y="403"/>
      <point x="63" y="336"/>
      <point x="65" y="236"/>
      <point x="76" y="133" type="qcurve"/>
      <point x="84" y="69"/>
      <point x="145" y="33"/>
      <point x="210" y="24"/>
      <point x="291" y="29"/>
      <point x="326" y="41" type="qcurve"/>
      <point x="379" y="59"/>
      <point x="379" y="157" type="qcurve"/>
      <point x="379" y="195"/>
      <point x="384" y="298"/>
      <point x="377" y="378" type="qcurve"/>
      <point x="377" y="448"/>
      <point x="260" y="482"/>
      <point x="194" y="476" type="qcurve"/>
      <point x="116" y="465"/>
    </contour>
  </outline>
</glyph>
<glyph name="r" format="1">
  <advance width="296"/>
  <unicode hex="0072"/>
  <outline>
    <contour>
      <point x="83" y="462" type="qcurve"/>
      <point x="87" y="464"/>
      <point x="116" y="476"/>
      <point x="130" y="481" type="qcurve"/>
      <point x="149" y="487"/>
      <point x="197" y="494"/>
      <point x="239" y="496"/>
      <point x="268" y="495"/>
      <point x="268" y="494" type="qcurve"/>
      <point x="268" y="463"/>
      <point x="268" y="443" type="qcurve"/>
      <point x="257" y="449" type="line"/>
      <point x="240" y="457"/>
      <point x="190" y="456"/>
      <point x="151" y="450"/>
      <point x="97" y="435"/>
      <point x="77" y="410"/>
      <point x="79" y="363" type="qcurve"/>
      <point x="80" y="334"/>
      <point x="82" y="272"/>
      <point x="82" y="209"/>
      <point x="82" y="41"/>
      <point x="82" y="4" type="qcurve"/>
      <point x="82" y="0" type="line"/>
      <point x="65" y="-5"/>
      <point x="38" y="-3" type="qcurve"/>
      <point x="38" y="120"/>
      <point x="33" y="366"/>
      <point x="37" y="498" type="qcurve"/>
      <point x="49" y="497"/>
      <point x="65" y="499"/>
      <point x="82" y="498"/>
      <point x="82" y="496" type="qcurve"/>
      <point x="82" y="488"/>
      <point x="82" y="480"/>
      <point x="82" y="475"/>
      <point x="83" y="469"/>
    </contour>
  </outline>
</glyph>
<glyph name="s" format="1">
  <advance width="450"/>
  <unicode hex="0073"/>
  <outline>
    <contour>
      <point x="436" y="346" type="qcurve"/>
      <point x="413" y="341"/>
      <point x="389" y="347" type="qcurve"/>
      <point x="392" y="359"/>
      <point x="379" y="455"/>
      <point x="244" y="497"/>
      <point x="96" y="467"/>
      <point x="66" y="400"/>
      <point x="71" y="340"/>
      <point x="107" y="297"/>
      <point x="179" y="268"/>
      <point x="354" y="272"/>
      <point x="424" y="204"/>
      <point x="434" y="129"/>
      <point x="415" y="74" type="qcurve"/>
      <point x="392" y="25"/>
      <point x="294" y="-17"/>
      <point x="236" y="-16" type="qcurve"/>
      <point x="185" y="-18"/>
      <point x="103" y="4"/>
      <point x="44" y="48"/>
      <point x="11" y="112"/>
      <point x="11" y="152" type="qcurve"/>
      <point x="11" y="155" type="line"/>
      <point x="11" y="157" type="line"/>
      <point x="44" y="161"/>
      <point x="56" y="158" type="qcurve"/>
      <point x="51" y="119"/>
      <point x="113" y="28"/>
      <point x="311" y="12"/>
      <point x="393" y="103"/>
      <point x="392" y="184"/>
      <point x="336" y="233"/>
      <point x="227" y="228"/>
      <point x="160" y="233"/>
      <point x="132" y="245" type="qcurve"/>
      <point x="76" y="264"/>
      <point x="20" y="335"/>
      <point x="23" y="422"/>
      <point x="76" y="496"/>
      <point x="125" y="509" type="qcurve"/>
      <point x="144" y="514"/>
      <point x="199" y="520"/>
      <point x="261" y="520"/>
      <point x="329" y="514"/>
      <point x="396" y="485"/>
      <point x="436" y="400"/>
    </contour>
  </outline>
</glyph>
<glyph name="v" format="1">
  <advance width="429"/>
  <unicode hex="0076"/>
  <outline>
    <contour>
      <point x="55" y="499" type="qcurve"/>
      <point x="134" y="247"/>
      <point x="192" y="104"/>
      <point x="216" y="51" type="qcurve"/>
      <point x="230" y="79"/>
      <point x="267" y="173"/>
      <point x="340" y="365"/>
      <point x="385" y="497" type="qcurve"/>
      <point x="407" y="500"/>
      <point x="428" y="499" type="qcurve"/>
      <point x="407" y="442"/>
      <point x="357" y="291"/>
      <point x="310" y="175"/>
      <point x="243" y="4" type="qcurve"/>
      <point x="227" y="1"/>
      <point x="211" y="2"/>
      <point x="186" y="2" type="qcurve"/>
      <point x="67" y="316"/>
      <point x="43" y="382"/>
      <point x="11" y="500" type="qcurve"/>
      <point x="42" y="496"/>
    </contour>
  </outline>
</glyph>
<glyph name="x" format="1">
  <advance width="413"/>
  <unicode hex="0078"/>
  <outline>
    <contour>
      <point x="412" y="500" type="qcurve"/>
      <point x="378" y="461"/>
      <point x="301" y="354"/>
      <point x="237" y="259" type="qcurve"/>
      <point x="324" y="125"/>
      <point x="351" y="82"/>
      <point x="401" y="0" type="qcurve"/>
      <point x="396" y="1"/>
      <point x="362" y="1"/>
      <point x="352" y="2" type="qcurve"/>
      <point x="351" y="2" type="line"/>
      <point x="261" y="154"/>
      <point x="210" y="222" type="qcurve"/>
      <point x="57" y="1" type="line"/>
      <point x="48" y="1"/>
      <point x="9" y="1" type="qcurve"/>
      <point x="73" y="97"/>
      <point x="132" y="176"/>
      <point x="184" y="260" type="qcurve"/>
      <point x="98" y="374"/>
      <point x="65" y="421"/>
      <point x="2" y="497" type="qcurve"/>
      <point x="45" y="496" type="line"/>
      <point x="53" y="496"/>
      <point x="54" y="495" type="qcurve"/>
      <point x="147" y="373"/>
      <point x="211" y="295" type="qcurve"/>
      <point x="263" y="369"/>
      <point x="359" y="499" type="qcurve"/>
      <point x="368" y="500"/>
      <point x="399" y="501"/>
      <point x="412" y="501" type="qcurve"/>
      <point x="413" y="501" type="line"/>
      <point x="413" y="500"/>
    </contour>
  </outline>
</glyph>
<glyph name="z" format="1">
  <advance width="456"/>
  <unicode hex="007A"/>
  <outline>
    <contour>
      <point x="434" y="497" type="qcurve"/>
      <point x="434" y="453" type="line"/>
      <point x="409" y="406"/>
      <point x="244" y="239"/>
      <point x="86" y="48" type="qcurve"/>
      <point x="136" y="52"/>
      <point x="376" y="46"/>
      <point x="430" y="54" type="qcurve"/>
      <point x="431" y="7" type="line"/>
      <point x="385" y="6"/>
      <point x="282" y="4"/>
      <point x="176" y="2"/>
      <point x="72" y="1"/>
      <point x="24" y="1" type="qcurve"/>
      <point x="25" y="24"/>
      <point x="23" y="47" type="qcurve"/>
      <point x="47" y="78"/>
      <point x="173" y="230"/>
      <point x="339" y="404"/>
      <point x="382" y="456" type="qcurve"/>
      <point x="338" y="454"/>
      <point x="278" y="452"/>
      <point x="50" y="452"/>
      <point x="28" y="449" type="qcurve"/>
      <point x="29" y="475"/>
      <point x="28" y="497" type="qcurve"/>
      <point x="109" y="497"/>
      <point x="252" y="498"/>
      <point x="306" y="498" type="qcurve"/>
      <point x="395" y="498"/>
      <point x="430" y="499"/>
    </contour>
  </outline>
</glyph>
<glyph name="exclamdown" format="1">
  <advance width="216"/>
  <unicode hex="00A1"/>
  <outline>
    <contour>
      <point x="77" y="631" type="qcurve"/>
      <point x="74" y="631"/>
      <point x="74" y="605"/>
      <point x="76" y="568"/>
      <point x="80" y="528"/>
      <point x="80" y="514" type="qcurve"/>
      <point x="80" y="513" type="line"/>
      <point x="92" y="508"/>
      <point x="115" y="511"/>
      <point x="130" y="511" type="qcurve"/>
      <point x="129" y="539"/>
      <point x="127" y="602"/>
      <point x="127" y="631" type="qcurve"/>
      <point x="120" y="631" type="line"/>
      <point x="113" y="631"/>
    </contour>
    <contour>
      <point x="87" y="-70" type="line"/>
      <point x="101" y="-72"/>
      <point x="115" y="-74"/>
      <point x="133" y="-72" type="qcurve"/>
      <point x="131" y="56"/>
      <point x="128" y="329"/>
      <point x="134" y="457" type="qcurve"/>
      <point x="116" y="460"/>
      <point x="99" y="461"/>
      <point x="82" y="462" type="qcurve"/>
      <point x="81" y="462" type="line"/>
      <point x="82" y="396"/>
      <point x="81" y="264"/>
      <point x="79" y="132"/>
      <point x="80" y="-2"/>
      <point x="84" y="-70" type="qcurve"/>
    </contour>
  </outline>
</glyph>
<glyph name="currency" format="1">
  <advance width="607"/>
  <unicode hex="00A4"/>
  <outline>
    <contour>
      <point x="134" y="544" type="qcurve"/>
      <point x="142" y="545"/>
      <point x="205" y="560"/>
      <point x="277" y="564" type="qcurve"/>
      <point x="319" y="568"/>
      <point x="444" y="552"/>
      <point x="473" y="547" type="qcurve"/>
      <point x="498" y="570"/>
      <point x="526" y="596"/>
      <point x="549" y="621" type="qcurve"/>
      <point x="589" y="578" type="line"/>
      <point x="571" y="557"/>
      <point x="528" y="509"/>
      <point x="506" y="484" type="qcurve"/>
      <point x="520" y="459"/>
      <point x="526" y="426" type="qcurve"/>
      <point x="530" y="406"/>
      <point x="536" y="299" type="qcurve"/>
      <point x="536" y="262"/>
      <point x="533" y="211"/>
      <point x="513" y="156" type="qcurve"/>
      <point x="542" y="116"/>
      <point x="573" y="83"/>
      <point x="588" y="61" type="qcurve"/>
      <point x="540" y="19"/>
      <point x="533" y="20" type="qcurve"/>
      <point x="514" y="41"/>
      <point x="474" y="114" type="qcurve"/>
      <point x="428" y="105"/>
      <point x="259" y="92"/>
      <point x="136" y="112" type="qcurve"/>
      <point x="125" y="97"/>
      <point x="92" y="53"/>
      <point x="67" y="19" type="qcurve"/>
      <point x="59" y="18"/>
      <point x="18" y="66" type="qcurve"/>
      <point x="36" y="87"/>
      <point x="60" y="115"/>
      <point x="77" y="135"/>
      <point x="87" y="149"/>
      <point x="92" y="155" type="qcurve"/>
      <point x="92" y="156" type="line"/>
      <point x="87" y="171"/>
      <point x="83" y="196"/>
      <point x="81" y="209" type="qcurve"/>
      <point x="79" y="277"/>
      <point x="77" y="340"/>
      <point x="79" y="406"/>
      <point x="86" y="468"/>
      <point x="92" y="491" type="qcurve"/>
      <point x="74" y="515"/>
      <point x="56" y="534"/>
      <point x="44" y="546"/>
      <point x="31" y="560"/>
      <point x="18" y="578" type="qcurve"/>
      <point x="61" y="621" type="line"/>
      <point x="83" y="597"/>
      <point x="105" y="575"/>
    </contour>
    <contour>
      <point x="205" y="502" type="qcurve"/>
      <point x="146" y="484"/>
      <point x="133" y="419" type="qcurve"/>
      <point x="126" y="376"/>
      <point x="131" y="250" type="qcurve"/>
      <point x="131" y="213"/>
      <point x="171" y="156"/>
      <point x="212" y="149" type="qcurve"/>
      <point x="250" y="145"/>
      <point x="369" y="148"/>
      <point x="407" y="154" type="qcurve"/>
      <point x="483" y="176"/>
      <point x="481" y="317"/>
      <point x="477" y="435"/>
      <point x="456" y="464" type="qcurve"/>
      <point x="439" y="488"/>
      <point x="414" y="496" type="qcurve"/>
      <point x="360" y="513"/>
      <point x="253" y="512"/>
    </contour>
  </outline>
</glyph>
<glyph name="yen" format="1">
  <advance width="530"/>
  <unicode hex="00A5"/>
  <outline>
    <contour>
      <point x="22" y="120" type="qcurve"/>
      <point x="22" y="133"/>
      <point x="24" y="141"/>
      <point x="25" y="170"/>
      <point x="25" y="173" type="qcurve"/>
      <point x="235" y="173" type="line"/>
      <point x="252" y="216"/>
      <point x="266" y="250" type="qcurve"/>
      <point x="209" y="251"/>
      <point x="159" y="251" type="qcurve"/>
      <point x="105" y="252"/>
      <point x="28" y="254"/>
      <point x="22" y="254" type="qcurve"/>
      <point x="22" y="267"/>
      <point x="24" y="275"/>
      <point x="25" y="304"/>
      <point x="25" y="307" type="qcurve"/>
      <point x="280" y="307" type="line"/>
      <point x="238" y="378"/>
      <point x="218" y="412" type="qcurve"/>
      <point x="197" y="449"/>
      <point x="145" y="538"/>
      <point x="88" y="650"/>
      <point x="78" y="692" type="qcurve"/>
      <point x="98" y="692"/>
      <point x="118" y="695"/>
      <point x="123" y="693" type="qcurve"/>
      <point x="173" y="576"/>
      <point x="275" y="408"/>
      <point x="317" y="347" type="qcurve"/>
      <point x="385" y="496"/>
      <point x="457" y="670"/>
      <point x="466" y="692" type="qcurve"/>
      <point x="479" y="694"/>
      <point x="486" y="695"/>
      <point x="506" y="694"/>
      <point x="512" y="693" type="qcurve"/>
      <point x="512" y="692" type="line"/>
      <point x="484" y="602"/>
      <point x="408" y="430"/>
      <point x="367" y="344" type="qcurve"/>
      <point x="358" y="325"/>
      <point x="349" y="307" type="qcurve"/>
      <point x="459" y="307" type="line"/>
      <point x="461" y="278"/>
      <point x="463" y="247" type="qcurve"/>
      <point x="456" y="247" type="line"/>
      <point x="448" y="247"/>
      <point x="393" y="248" type="qcurve"/>
      <point x="359" y="248"/>
      <point x="322" y="249" type="qcurve"/>
      <point x="307" y="214"/>
      <point x="293" y="180" type="qcurve"/>
      <point x="292" y="177"/>
      <point x="290" y="173" type="qcurve"/>
      <point x="459" y="173" type="line"/>
      <point x="461" y="144"/>
      <point x="463" y="113" type="qcurve"/>
      <point x="456" y="113" type="line"/>
      <point x="448" y="113"/>
      <point x="339" y="115"/>
      <point x="276" y="116" type="qcurve"/>
      <point x="266" y="116" type="line"/>
      <point x="244" y="62"/>
      <point x="218" y="0" type="qcurve"/>
      <point x="212" y="1"/>
      <point x="171" y="-1"/>
      <point x="165" y="0" type="qcurve"/>
      <point x="163" y="0" type="line"/>
      <point x="189" y="63"/>
      <point x="212" y="116" type="qcurve"/>
      <point x="185" y="117"/>
      <point x="159" y="117" type="qcurve"/>
      <point x="105" y="118"/>
      <point x="28" y="120"/>
    </contour>
  </outline>
</glyph>
<glyph name="copyright" format="1">
  <advance width="553"/>
  <unicode hex="00A9"/>
  <outline>
    <contour>
      <point x="216" y="349" type="curve"/>
      <point x="213" y="422"/>
      <point x="226" y="460"/>
      <point x="256" y="459" type="curve" smooth="yes"/>
      <point x="283" y="458"/>
      <point x="301" y="454"/>
      <point x="308" y="444" type="curve" smooth="yes"/>
      <point x="317" y="433"/>
      <point x="322" y="425"/>
      <point x="323" y="419" type="curve" smooth="yes"/>
      <point x="326" y="407"/>
      <point x="327" y="372"/>
      <point x="326" y="364" type="curve"/>
      <point x="339" y="361"/>
      <point x="348" y="362"/>
      <point x="358" y="364" type="curve"/>
      <point x="377" y="432"/>
      <point x="327" y="495"/>
      <point x="263" y="495" type="curve" smooth="yes"/>
      <point x="252" y="495"/>
      <point x="240" y="494"/>
      <point x="230" y="491" type="curve"/>
      <point x="232" y="491" type="line"/>
      <point x="224" y="489"/>
      <point x="217" y="486"/>
      <point x="209" y="480" type="curve" smooth="yes"/>
      <point x="198" y="470"/>
      <point x="189" y="456"/>
      <point x="184" y="443" type="curve" smooth="yes"/>
      <point x="183" y="439"/>
      <point x="181" y="431"/>
      <point x="180" y="415" type="curve" smooth="yes"/>
      <point x="179" y="382"/>
      <point x="178" y="356"/>
      <point x="178" y="334" type="curve" smooth="yes"/>
      <point x="178" y="302"/>
      <point x="179" y="281"/>
      <point x="181" y="260" type="curve" smooth="yes"/>
      <point x="187" y="214"/>
      <point x="238" y="197"/>
      <point x="276" y="202" type="curve"/>
      <point x="338" y="205"/>
      <point x="370" y="268"/>
      <point x="358" y="334" type="curve"/>
      <point x="341" y="331"/>
      <point x="331" y="331"/>
      <point x="324" y="331" type="curve"/>
      <point x="331" y="268"/>
      <point x="306" y="240"/>
      <point x="277" y="236" type="curve"/>
      <point x="245" y="233"/>
      <point x="216" y="244"/>
      <point x="216" y="289" type="curve"/>
      <point x="215" y="303"/>
      <point x="215" y="323"/>
    </contour>
    <contour>
      <point x="506" y="249" type="qcurve"/>
      <point x="494" y="202"/>
      <point x="458" y="168" type="qcurve"/>
      <point x="438" y="148"/>
      <point x="390" y="127"/>
      <point x="336" y="118"/>
      <point x="281" y="115"/>
      <point x="255" y="113" type="qcurve"/>
      <point x="227" y="113"/>
      <point x="173" y="119"/>
      <point x="147" y="127" type="qcurve"/>
      <point x="103" y="147"/>
      <point x="50" y="205"/>
      <point x="45" y="247" type="qcurve"/>
      <point x="37" y="296"/>
      <point x="36" y="395"/>
      <point x="40" y="446" type="qcurve"/>
      <point x="44" y="493"/>
      <point x="77" y="532" type="qcurve"/>
      <point x="99" y="560"/>
      <point x="163" y="591"/>
      <point x="198" y="596" type="qcurve"/>
      <point x="239" y="598"/>
      <point x="321" y="601"/>
      <point x="361" y="593" type="qcurve"/>
      <point x="382" y="589"/>
      <point x="424" y="574"/>
      <point x="444" y="561" type="qcurve"/>
      <point x="447" y="559"/>
      <point x="453" y="555"/>
      <point x="456" y="553" type="qcurve"/>
      <point x="490" y="529"/>
      <point x="517" y="458"/>
      <point x="521" y="377"/>
      <point x="510" y="290"/>
    </contour>
    <contour>
      <point x="465" y="507" type="qcurve"/>
      <point x="452" y="524"/>
      <point x="396" y="551"/>
      <point x="365" y="557" type="qcurve"/>
      <point x="274" y="568"/>
      <point x="183" y="557" type="qcurve"/>
      <point x="181" y="557"/>
      <point x="180" y="556"/>
      <point x="177" y="556" type="qcurve"/>
      <point x="135" y="549"/>
      <point x="83" y="492"/>
      <point x="79" y="457" type="qcurve"/>
      <point x="72" y="402"/>
      <point x="78" y="292"/>
      <point x="81" y="238" type="qcurve"/>
      <point x="81" y="217"/>
      <point x="103" y="184"/>
      <point x="136" y="157"/>
      <point x="181" y="143"/>
      <point x="204" y="142" type="qcurve"/>
      <point x="244" y="145"/>
      <point x="339" y="146"/>
      <point x="383" y="155" type="qcurve"/>
      <point x="406" y="159"/>
      <point x="442" y="184"/>
      <point x="467" y="218"/>
      <point x="479" y="262"/>
      <point x="483" y="283" type="qcurve"/>
      <point x="485" y="314"/>
      <point x="488" y="382"/>
      <point x="487" y="414" type="qcurve"/>
      <point x="486" y="438"/>
      <point x="483" y="487"/>
    </contour>
  </outline>
</glyph>
<glyph name="registered" format="1">
  <advance width="553"/>
  <unicode hex="00AE"/>
  <outline>
    <contour>
      <point x="400" y="204" type="curve"/>
      <point x="374" y="199"/>
      <point x="355" y="205"/>
      <point x="349" y="203" type="curve"/>
      <point x="280" y="267" type="line"/>
      <point x="256" y="285"/>
      <point x="243" y="296"/>
      <point x="219" y="315" type="curve"/>
      <point x="219" y="300" type="line"/>
      <point x="219" y="286"/>
      <point x="218" y="271"/>
      <point x="218" y="262" type="curve" smooth="yes"/>
      <point x="218" y="254"/>
      <point x="219" y="246"/>
      <point x="220" y="239" type="curve" smooth="yes"/>
      <point x="221" y="229"/>
      <point x="221" y="216"/>
      <point x="221" y="207" type="curve"/>
      <point x="201" y="202"/>
      <point x="192" y="203"/>
      <point x="184" y="204" type="curve"/>
      <point x="182" y="223"/>
      <point x="179" y="253"/>
      <point x="179" y="292" type="curve" smooth="yes"/>
      <point x="179" y="367"/>
      <point x="176" y="478"/>
      <point x="172" y="502" type="curve"/>
      <point x="175" y="502"/>
      <point x="188" y="503"/>
      <point x="191" y="503" type="curve" smooth="yes"/>
      <point x="218" y="507"/>
      <point x="256" y="511"/>
      <point x="289" y="508" type="curve"/>
      <point x="340" y="502"/>
      <point x="382" y="460"/>
      <point x="382" y="413" type="curve" smooth="yes"/>
      <point x="382" y="397"/>
      <point x="377" y="381"/>
      <point x="367" y="366" type="curve"/>
      <point x="368" y="367" type="line"/>
      <point x="362" y="355"/>
      <point x="355" y="346"/>
      <point x="345" y="339" type="curve"/>
      <point x="335" y="333"/>
      <point x="300" y="329"/>
      <point x="264" y="328" type="curve"/>
      <point x="274" y="320"/>
      <point x="280" y="315"/>
      <point x="286" y="309" type="curve" smooth="yes"/>
      <point x="293" y="303"/>
      <point x="299" y="298"/>
      <point x="304" y="294" type="curve" smooth="yes"/>
      <point x="314" y="286"/>
      <point x="357" y="245"/>
    </contour>
    <contour>
      <point x="212" y="472" type="move"/>
    </contour>
    <contour>
      <point x="263" y="475" type="curve" smooth="yes"/>
      <point x="250" y="475"/>
      <point x="233" y="474"/>
      <point x="212" y="472" type="curve"/>
      <point x="212" y="464" type="line"/>
      <point x="212" y="459"/>
      <point x="213" y="453"/>
      <point x="213" y="446" type="curve" smooth="yes"/>
      <point x="213" y="437"/>
      <point x="214" y="429"/>
      <point x="214" y="423" type="curve" smooth="yes"/>
      <point x="214" y="417"/>
      <point x="215" y="413"/>
      <point x="215" y="410" type="curve"/>
      <point x="215" y="384" type="line"/>
      <point x="215" y="371"/>
      <point x="213" y="371"/>
      <point x="215" y="368" type="curve"/>
      <point x="240" y="367"/>
      <point x="258" y="367"/>
      <point x="276" y="367" type="curve" smooth="yes"/>
      <point x="301" y="367"/>
      <point x="316" y="368"/>
      <point x="325" y="371" type="curve" smooth="yes"/>
      <point x="335" y="375"/>
      <point x="341" y="386"/>
      <point x="344" y="403" type="curve" smooth="yes"/>
      <point x="347" y="421"/>
      <point x="344" y="437"/>
      <point x="337" y="446" type="curve" smooth="yes"/>
      <point x="333" y="455"/>
      <point x="326" y="462"/>
      <point x="316" y="466" type="curve" smooth="yes"/>
      <point x="305" y="471"/>
      <point x="289" y="475"/>
    </contour>
    <contour>
      <point x="506" y="249" type="qcurve"/>
      <point x="494" y="202"/>
      <point x="458" y="168" type="qcurve"/>
      <point x="438" y="148"/>
      <point x="390" y="127"/>
      <point x="336" y="118"/>
      <point x="281" y="115"/>
      <point x="255" y="113" type="qcurve"/>
      <point x="227" y="113"/>
      <point x="173" y="119"/>
      <point x="147" y="127" type="qcurve"/>
      <point x="103" y="147"/>
      <point x="50" y="205"/>
      <point x="45" y="247" type="qcurve"/>
      <point x="37" y="296"/>
      <point x="36" y="395"/>
      <point x="40" y="446" type="qcurve"/>
      <point x="44" y="493"/>
      <point x="77" y="532" type="qcurve"/>
      <point x="99" y="560"/>
      <point x="163" y="591"/>
      <point x="198" y="596" type="qcurve"/>
      <point x="239" y="598"/>
      <point x="321" y="601"/>
      <point x="361" y="593" type="qcurve"/>
      <point x="382" y="589"/>
      <point x="424" y="574"/>
      <point x="444" y="561" type="qcurve"/>
      <point x="447" y="559"/>
      <point x="453" y="555"/>
      <point x="456" y="553" type="qcurve"/>
      <point x="490" y="529"/>
      <point x="517" y="458"/>
      <point x="521" y="377"/>
      <point x="510" y="290"/>
    </contour>
    <contour>
      <point x="465" y="507" type="qcurve"/>
      <point x="452" y="524"/>
      <point x="396" y="551"/>
      <point x="365" y="557" type="qcurve"/>
      <point x="274" y="568"/>
      <point x="183" y="557" type="qcurve"/>
      <point x="181" y="557"/>
      <point x="180" y="556"/>
      <point x="177" y="556" type="qcurve"/>
      <point x="135" y="549"/>
      <point x="83" y="492"/>
      <point x="79" y="457" type="qcurve"/>
      <point x="72" y="402"/>
      <point x="78" y="292"/>
      <point x="81" y="238" type="qcurve"/>
      <point x="81" y="217"/>
      <point x="103" y="184"/>
      <point x="136" y="157"/>
      <point x="181" y="143"/>
      <point x="204" y="142" type="qcurve"/>
      <point x="244" y="145"/>
      <point x="339" y="146"/>
      <point x="383" y="155" type="qcurve"/>
      <point x="406" y="159"/>
      <point x="442" y="184"/>
      <point x="467" y="218"/>
      <point x="479" y="262"/>
      <point x="483" y="283" type="qcurve"/>
      <point x="485" y="314"/>
      <point x="488" y="382"/>
      <point x="487" y="414" type="qcurve"/>
      <point x="486" y="438"/>
      <point x="483" y="487"/>
    </contour>
  </outline>
</glyph>
<glyph name="twosuperior" format="1">
  <advance width="264"/>
  <unicode hex="00B2"/>
  <outline>
    <contour>
      <point x="53" y="335" type="line"/>
      <point x="33" y="335" type="line"/>
      <point x="33" y="336"/>
      <point x="33" y="337" type="qcurve"/>
      <point x="32" y="349"/>
      <point x="34" y="372"/>
      <point x="42" y="384" type="qcurve"/>
      <point x="56" y="407"/>
      <point x="131" y="467"/>
      <point x="207" y="505"/>
      <point x="210" y="530" type="qcurve"/>
      <point x="212" y="546"/>
      <point x="202" y="613"/>
      <point x="165" y="636"/>
      <point x="134" y="636" type="qcurve"/>
      <point x="123" y="636"/>
      <point x="78" y="624"/>
      <point x="58" y="582"/>
      <point x="61" y="535"/>
      <point x="61" y="526" type="qcurve"/>
      <point x="61" y="525" type="line"/>
      <point x="61" y="525" type="line"/>
      <point x="51" y="522"/>
      <point x="36" y="524" type="qcurve"/>
      <point x="35" y="524" type="line"/>
      <point x="35" y="524" type="line"/>
      <point x="30" y="556"/>
      <point x="41" y="610"/>
      <point x="58" y="628" type="qcurve"/>
      <point x="67" y="640"/>
      <point x="100" y="653"/>
      <point x="138" y="656"/>
      <point x="174" y="652"/>
      <point x="186" y="647" type="qcurve"/>
      <point x="207" y="636"/>
      <point x="228" y="597"/>
      <point x="230" y="572" type="qcurve"/>
      <point x="230" y="563"/>
      <point x="231" y="541"/>
      <point x="231" y="531" type="qcurve"/>
      <point x="230" y="515"/>
      <point x="216" y="492"/>
      <point x="196" y="475"/>
      <point x="171" y="462"/>
      <point x="133" y="439"/>
      <point x="73" y="388" type="qcurve"/>
      <point x="69" y="381"/>
      <point x="67" y="370"/>
      <point x="67" y="363"/>
      <point x="68" y="362" type="qcurve"/>
      <point x="98" y="361"/>
      <point x="192" y="361"/>
      <point x="223" y="364" type="qcurve"/>
      <point x="225" y="352"/>
      <point x="224" y="343"/>
      <point x="225" y="338" type="qcurve"/>
      <point x="225" y="338"/>
      <point x="224" y="338" type="qcurve"/>
    </contour>
  </outline>
</glyph>
<glyph name="acute" format="1">
  <advance width="255"/>
  <unicode hex="00B4"/>
  <outline>
    <contour>
      <point x="186" y="679" type="line"/>
      <point x="174" y="666"/>
      <point x="138" y="629"/>
      <point x="96" y="590"/>
      <point x="51" y="541"/>
      <point x="34" y="525" type="qcurve"/>
      <point x="41" y="523"/>
      <point x="71" y="520"/>
      <point x="99" y="523" type="qcurve"/>
      <point x="104" y="531"/>
      <point x="131" y="557"/>
      <point x="165" y="592"/>
      <point x="218" y="647"/>
      <point x="220" y="643" type="qcurve"/>
    </contour>
  </outline>
</glyph>
<glyph name="mu" format="1">
  <advance width="458"/>
  <unicode hex="00B5"/>
  <outline>
    <contour>
      <point x="368" y="53" type="qcurve"/>
      <point x="363" y="50"/>
      <point x="322" y="21"/>
      <point x="219" y="2"/>
      <point x="128" y="2"/>
      <point x="102" y="9" type="qcurve"/>
      <point x="85" y="13"/>
      <point x="73" y="21" type="qcurve"/>
      <point x="73" y="-22"/>
      <point x="74" y="-61" type="qcurve"/>
      <point x="75" y="-119"/>
      <point x="77" y="-159" type="qcurve"/>
      <point x="72" y="-165"/>
      <point x="50" y="-166"/>
      <point x="34" y="-163"/>
      <point x="27" y="-165" type="qcurve"/>
      <point x="34" y="-75"/>
      <point x="29" y="259" type="qcurve"/>
      <point x="34" y="374"/>
      <point x="36" y="464"/>
      <point x="34" y="498" type="qcurve"/>
      <point x="79" y="498" type="line"/>
      <point x="77" y="460" type="line"/>
      <point x="76" y="428"/>
      <point x="75" y="336" type="qcurve"/>
      <point x="75" y="311" type="line"/>
      <point x="75" y="267"/>
      <point x="73" y="49"/>
      <point x="227" y="31"/>
      <point x="370" y="94"/>
      <point x="376" y="183"/>
      <point x="374" y="251"/>
      <point x="371" y="393"/>
      <point x="370" y="459"/>
      <point x="369" y="492" type="qcurve"/>
      <point x="369" y="496" type="line"/>
      <point x="387" y="501"/>
      <point x="412" y="503" type="qcurve"/>
      <point x="412" y="380"/>
      <point x="417" y="134"/>
      <point x="413" y="2" type="qcurve"/>
      <point x="391" y="-2"/>
      <point x="381" y="-4"/>
      <point x="370" y="-3"/>
      <point x="370" y="0" type="qcurve"/>
      <point x="369" y="39"/>
    </contour>
  </outline>
</glyph>
<glyph name="periodcentered" format="1">
  <advance width="164"/>
  <unicode hex="00B7"/>
  <outline>
    <contour>
      <point x="105" y="392" type="line"/>
      <point x="105" y="386"/>
      <point x="106" y="355"/>
      <point x="107" y="318"/>
      <point x="108" y="279"/>
      <point x="108" y="264" type="qcurve"/>
      <point x="104" y="258"/>
      <point x="88" y="254"/>
      <point x="80" y="256"/>
      <point x="61" y="255" type="qcurve"/>
      <point x="61" y="284"/>
      <point x="56" y="347"/>
      <point x="57" y="393" type="qcurve"/>
    </contour>
  </outline>
</glyph>
<glyph name="cedilla" format="1">
  <advance width="190"/>
  <unicode hex="00B8"/>
  <outline>
    <contour>
      <point x="137" y="-6" type="qcurve"/>
      <point x="136" y="-6" type="line"/>
      <point x="134" y="-14"/>
      <point x="121" y="-52"/>
      <point x="106" y="-97"/>
      <point x="92" y="-138"/>
      <point x="89" y="-147" type="qcurve"/>
      <point x="89" y="-148" type="line"/>
      <point x="81" y="-148"/>
      <point x="71" y="-148"/>
      <point x="43" y="-148"/>
      <point x="43" y="-147" type="qcurve"/>
      <point x="58" y="-105"/>
      <point x="73" y="-65"/>
      <point x="80" y="-42"/>
      <point x="86" y="-22"/>
      <point x="94" y="0" type="qcurve"/>
      <point x="99" y="-1"/>
    </contour>
  </outline>
</glyph>
<glyph name="onesuperior" format="1">
  <advance width="187"/>
  <unicode hex="00B9"/>
  <outline>
    <contour>
      <point x="124" y="340" type="qcurve"/>
      <point x="120" y="340"/>
      <point x="107" y="339"/>
      <point x="99" y="340" type="qcurve"/>
      <point x="99" y="340" type="line"/>
      <point x="99" y="381" type="line"/>
      <point x="100" y="423"/>
      <point x="103" y="511"/>
      <point x="103" y="603" type="qcurve"/>
      <point x="103" y="605"/>
      <point x="103" y="609"/>
      <point x="103" y="611" type="qcurve"/>
      <point x="101" y="611"/>
      <point x="97" y="604"/>
      <point x="50" y="530"/>
      <point x="47" y="530" type="qcurve"/>
      <point x="45" y="530"/>
      <point x="26" y="536"/>
      <point x="26" y="538" type="qcurve"/>
      <point x="39" y="561"/>
      <point x="65" y="602"/>
      <point x="80" y="626"/>
      <point x="88" y="638"/>
      <point x="89" y="639" type="qcurve"/>
      <point x="99" y="640"/>
      <point x="127" y="639" type="qcurve"/>
      <point x="128" y="621"/>
      <point x="127" y="586"/>
      <point x="127" y="568" type="qcurve"/>
      <point x="129" y="519"/>
      <point x="124" y="423"/>
      <point x="124" y="375" type="qcurve"/>
      <point x="124" y="367"/>
      <point x="124" y="353"/>
    </contour>
  </outline>
</glyph>
<glyph name="ordmasculine" format="1">
  <advance width="254"/>
  <unicode hex="00BA"/>
  <outline>
    <contour>
      <point x="51" y="604" type="qcurve"/>
      <point x="53" y="607"/>
      <point x="55" y="610" type="qcurve"/>
      <point x="68" y="624"/>
      <point x="100" y="643"/>
      <point x="122" y="644" type="qcurve"/>
      <point x="145" y="645"/>
      <point x="179" y="629"/>
      <point x="205" y="603"/>
      <point x="220" y="568"/>
      <point x="223" y="549" type="qcurve"/>
      <point x="226" y="536"/>
      <point x="228" y="510"/>
      <point x="227" y="498" type="qcurve"/>
      <point x="228" y="480"/>
      <point x="224" y="443"/>
      <point x="215" y="406"/>
      <point x="197" y="373"/>
      <point x="173" y="348"/>
      <point x="141" y="335"/>
      <point x="122" y="336" type="qcurve"/>
      <point x="104" y="337"/>
      <point x="90" y="342" type="qcurve"/>
      <point x="68" y="350"/>
      <point x="43" y="379"/>
      <point x="33" y="413"/>
      <point x="29" y="453"/>
      <point x="29" y="472" type="qcurve"/>
      <point x="28" y="489"/>
      <point x="27" y="523"/>
      <point x="31" y="557"/>
      <point x="41" y="590"/>
    </contour>
    <contour>
      <point x="126" y="352" type="qcurve"/>
      <point x="162" y="355"/>
      <point x="199" y="411"/>
      <point x="205" y="438"/>
      <point x="206" y="458"/>
      <point x="207" y="470" type="qcurve"/>
      <point x="208" y="481"/>
      <point x="208" y="508"/>
      <point x="206" y="557"/>
      <point x="173" y="618"/>
      <point x="134" y="625" type="qcurve"/>
      <point x="86" y="626"/>
      <point x="58" y="576"/>
      <point x="53" y="559"/>
      <point x="50" y="544"/>
      <point x="48" y="530" type="qcurve"/>
      <point x="48" y="503"/>
      <point x="48" y="458"/>
      <point x="53" y="422" type="qcurve"/>
      <point x="61" y="352"/>
    </contour>
  </outline>
</glyph>
<glyph name="guillemotright" format="1">
  <advance width="583"/>
  <unicode hex="00BB"/>
  <outline>
    <contour>
      <point x="35" y="32" type="line"/>
      <point x="50" y="19" type="line"/>
      <point x="51" y="20" type="line"/>
      <point x="81" y="51"/>
      <point x="146" y="108"/>
      <point x="207" y="168"/>
      <point x="274" y="232"/>
      <point x="302" y="270" type="qcurve"/>
      <point x="283" y="294"/>
      <point x="237" y="343"/>
      <point x="187" y="394"/>
      <point x="137" y="445"/>
      <point x="114" y="469" type="qcurve"/>
      <point x="99" y="485"/>
      <point x="71" y="514"/>
      <point x="57" y="528" type="qcurve"/>
      <point x="48" y="523"/>
      <point x="30" y="504"/>
      <point x="27" y="497" type="qcurve"/>
      <point x="42" y="478"/>
      <point x="86" y="432"/>
      <point x="171" y="343"/>
      <point x="220" y="291"/>
      <point x="239" y="267" type="qcurve"/>
      <point x="189" y="212"/>
      <point x="65" y="92"/>
      <point x="17" y="53" type="qcurve"/>
    </contour>
    <contour>
      <point x="259" y="32" type="line"/>
      <point x="274" y="19" type="line"/>
      <point x="275" y="20" type="line"/>
      <point x="305" y="51"/>
      <point x="370" y="108"/>
      <point x="431" y="168"/>
      <point x="498" y="232"/>
      <point x="526" y="270" type="qcurve"/>
      <point x="507" y="294"/>
      <point x="461" y="343"/>
      <point x="411" y="394"/>
      <point x="361" y="445"/>
      <point x="338" y="469" type="qcurve"/>
      <point x="323" y="485"/>
      <point x="295" y="514"/>
      <point x="281" y="528" type="qcurve"/>
      <point x="272" y="523"/>
      <point x="254" y="504"/>
      <point x="251" y="497" type="qcurve"/>
      <point x="266" y="478"/>
      <point x="310" y="432"/>
      <point x="395" y="343"/>
      <point x="444" y="291"/>
      <point x="463" y="267" type="qcurve"/>
      <point x="413" y="212"/>
      <point x="289" y="92"/>
      <point x="241" y="53" type="qcurve"/>
    </contour>
  </outline>
</glyph>
<glyph name="onequarter" format="1">
  <advance width="595"/>
  <unicode hex="00BC"/>
  <outline>
    <contour>
      <point x="162" y="308" type="qcurve"/>
      <point x="143" y="308"/>
      <point x="129" y="307"/>
      <point x="119" y="308" type="qcurve"/>
      <point x="119" y="308" type="line"/>
      <point x="119" y="355" type="line"/>
      <point x="120" y="405"/>
      <point x="123" y="507"/>
      <point x="125" y="598" type="qcurve"/>
      <point x="125" y="600"/>
      <point x="125" y="606"/>
      <point x="125" y="608" type="qcurve"/>
      <point x="123" y="608"/>
      <point x="119" y="599"/>
      <point x="74" y="524"/>
      <point x="70" y="524" type="qcurve"/>
      <point x="68" y="524"/>
      <point x="34" y="536"/>
      <point x="34" y="538" type="qcurve"/>
      <point x="49" y="565"/>
      <point x="79" y="613"/>
      <point x="97" y="641"/>
      <point x="107" y="655"/>
      <point x="108" y="656" type="qcurve"/>
      <point x="119" y="657"/>
      <point x="165" y="656" type="qcurve"/>
      <point x="166" y="635"/>
      <point x="165" y="594"/>
      <point x="165" y="573" type="qcurve"/>
      <point x="167" y="516"/>
      <point x="162" y="405"/>
      <point x="162" y="348" type="qcurve"/>
      <point x="162" y="340"/>
      <point x="162" y="323"/>
    </contour>
    <contour>
      <point x="246" y="151" type="line"/>
      <point x="252" y="166"/>
      <point x="263" y="196"/>
      <point x="268" y="211" type="qcurve"/>
      <point x="289" y="265"/>
      <point x="326" y="373"/>
      <point x="345" y="428" type="qcurve"/>
      <point x="354" y="455"/>
      <point x="372" y="510"/>
      <point x="382" y="538" type="qcurve"/>
      <point x="404" y="604"/>
      <point x="424" y="669"/>
      <point x="428" y="683" type="qcurve"/>
      <point x="430" y="689"/>
      <point x="432" y="696"/>
      <point x="434" y="701" type="qcurve"/>
      <point x="422" y="707"/>
      <point x="389" y="709" type="qcurve"/>
      <point x="382" y="681"/>
      <point x="366" y="627"/>
      <point x="313" y="467"/>
      <point x="302" y="438" type="qcurve"/>
      <point x="272" y="357"/>
      <point x="238" y="261"/>
      <point x="211" y="189"/>
      <point x="176" y="90" type="qcurve"/>
      <point x="175" y="86"/>
      <point x="163" y="57"/>
      <point x="152" y="25"/>
      <point x="146" y="6"/>
      <point x="143" y="0" type="qcurve"/>
      <point x="183" y="1"/>
      <point x="189" y="2" type="qcurve"/>
      <point x="190" y="3"/>
      <point x="192" y="7" type="qcurve"/>
    </contour>
    <contour>
      <point x="540" y="171" type="line"/>
      <point x="565" y="170"/>
      <point x="571" y="170" type="qcurve"/>
      <point x="568" y="129" type="line"/>
      <point x="560" y="127"/>
      <point x="537" y="128" type="qcurve"/>
      <point x="537" y="128"/>
      <point x="536" y="117"/>
      <point x="535" y="81"/>
      <point x="533" y="38"/>
      <point x="534" y="18"/>
      <point x="533" y="3"/>
      <point x="533" y="1" type="qcurve"/>
      <point x="530" y="-3"/>
      <point x="486" y="-2" type="qcurve"/>
      <point x="485" y="-2"/>
      <point x="486" y="12"/>
      <point x="487" y="33"/>
      <point x="489" y="57"/>
      <point x="491" y="129"/>
      <point x="491" y="130" type="qcurve"/>
      <point x="489" y="131"/>
      <point x="469" y="132"/>
      <point x="417" y="131"/>
      <point x="390" y="131"/>
      <point x="367" y="131"/>
      <point x="352" y="131"/>
      <point x="352" y="132" type="qcurve"/>
      <point x="349" y="148"/>
      <point x="352" y="157" type="qcurve"/>
      <point x="461" y="304"/>
      <point x="500" y="353" type="qcurve"/>
      <point x="500" y="354"/>
      <point x="500" y="354" type="qcurve"/>
      <point x="502" y="354"/>
      <point x="532" y="354"/>
      <point x="536" y="354"/>
      <point x="540" y="354" type="qcurve"/>
      <point x="541" y="354" type="line"/>
      <point x="541" y="353"/>
      <point x="540" y="327"/>
      <point x="539" y="287"/>
      <point x="537" y="240"/>
      <point x="537" y="182"/>
      <point x="537" y="174"/>
      <point x="537" y="170" type="qcurve"/>
    </contour>
    <contour>
      <point x="493" y="282" type="line"/>
      <point x="493" y="285"/>
      <point x="483" y="272"/>
      <point x="449" y="220"/>
      <point x="412" y="173"/>
      <point x="412" y="172" type="qcurve"/>
      <point x="412" y="172"/>
      <point x="453" y="171"/>
      <point x="449" y="170"/>
      <point x="487" y="171"/>
      <point x="491" y="172" type="qcurve"/>
    </contour>
  </outline>
</glyph>
<glyph name="questiondown" format="1">
  <advance width="450"/>
  <unicode hex="00BF"/>
  <outline>
    <contour>
      <point x="220" y="385" type="line"/>
      <point x="213" y="340"/>
      <point x="176" y="279"/>
      <point x="101" y="197"/>
      <point x="64" y="132"/>
      <point x="56" y="50"/>
      <point x="109" y="-29"/>
      <point x="192" y="-60"/>
      <point x="331" y="-29"/>
      <point x="384" y="80"/>
      <point x="382" y="120" type="qcurve"/>
      <point x="403" y="120"/>
      <point x="433" y="119" type="qcurve"/>
      <point x="433" y="118" type="line"/>
      <point x="431" y="80"/>
      <point x="401" y="7"/>
      <point x="349" y="-51"/>
      <point x="279" y="-88"/>
      <point x="236" y="-90" type="qcurve"/>
      <point x="190" y="-94"/>
      <point x="107" y="-68"/>
      <point x="46" y="-14"/>
      <point x="14" y="62"/>
      <point x="19" y="106" type="qcurve"/>
      <point x="23" y="138"/>
      <point x="49" y="190"/>
      <point x="66" y="212" type="qcurve"/>
      <point x="82" y="234"/>
      <point x="111" y="261"/>
      <point x="126" y="281" type="qcurve"/>
      <point x="147" y="310"/>
      <point x="174" y="360"/>
      <point x="181" y="429"/>
      <point x="179" y="437" type="qcurve"/>
      <point x="179" y="438" type="line"/>
      <point x="222" y="440" type="line"/>
      <point x="223" y="440" type="line"/>
      <point x="223" y="417"/>
      <point x="223" y="412" type="qcurve"/>
    </contour>
    <contour>
      <point x="221" y="617" type="line"/>
      <point x="224" y="617" type="line"/>
      <point x="226" y="606"/>
      <point x="227" y="572"/>
      <point x="226" y="538"/>
      <point x="225" y="508"/>
      <point x="225" y="501" type="qcurve"/>
      <point x="215" y="497"/>
      <point x="206" y="497"/>
      <point x="189" y="495"/>
      <point x="182" y="498" type="qcurve"/>
      <point x="182" y="499"/>
      <point x="184" y="530"/>
      <point x="186" y="570"/>
      <point x="188" y="608"/>
      <point x="188" y="615" type="qcurve"/>
      <point x="188" y="616" type="line"/>
      <point x="188" y="617" type="line"/>
      <point x="190" y="617" type="line"/>
    </contour>
  </outline>
</glyph>
<glyph name="Acircumflex" format="1">
  <advance width="434"/>
  <unicode hex="00C2"/>
  <outline>
    <contour>
      <point x="437" y="1" type="line"/>
      <point x="437" y="0" type="line"/>
      <point x="391" y="-6"/>
      <point x="394" y="0" type="qcurve"/>
      <point x="393" y="0" type="line"/>
      <point x="387" y="16"/>
      <point x="376" y="60"/>
      <point x="365" y="106"/>
      <point x="348" y="169" type="qcurve"/>
      <point x="83" y="172" type="line"/>
      <point x="72" y="111"/>
      <point x="63" y="64"/>
      <point x="52" y="3" type="qcurve"/>
      <point x="51" y="3"/>
      <point x="44" y="2"/>
      <point x="4" y="2" type="qcurve"/>
      <point x="6" y="9"/>
      <point x="16" y="73"/>
      <point x="34" y="175"/>
      <point x="59" y="308"/>
      <point x="93" y="458"/>
      <point x="133" y="620"/>
      <point x="166" y="700" type="qcurve"/>
      <point x="173" y="701"/>
      <point x="189" y="701"/>
      <point x="206" y="701"/>
      <point x="247" y="702"/>
      <point x="280" y="705" type="qcurve"/>
      <point x="283" y="692"/>
      <point x="296" y="639"/>
      <point x="311" y="572"/>
      <point x="328" y="496"/>
      <point x="344" y="426"/>
      <point x="358" y="368"/>
      <point x="362" y="351" type="qcurve"/>
    </contour>
    <contour>
      <point x="347" y="213" type="qcurve"/>
      <point x="256" y="659"/>
      <point x="239" y="659"/>
      <point x="202" y="659"/>
      <point x="183" y="658"/>
      <point x="136" y="451"/>
      <point x="88" y="213" type="qcurve"/>
      <point x="100" y="212"/>
      <point x="215" y="210"/>
    </contour>
    <contour>
      <point x="381" y="754" type="line"/>
      <point x="379" y="755"/>
      <point x="355" y="752"/>
      <point x="336" y="749" type="qcurve"/>
      <point x="332" y="749"/>
      <point x="255" y="823"/>
      <point x="241" y="840"/>
      <point x="226" y="855"/>
      <point x="222" y="857" type="qcurve"/>
      <point x="217" y="856"/>
      <point x="200" y="838"/>
      <point x="185" y="821"/>
      <point x="122" y="754"/>
      <point x="118" y="753" type="qcurve"/>
      <point x="109" y="752"/>
      <point x="91" y="752"/>
      <point x="60" y="753" type="qcurve"/>
      <point x="107" y="808"/>
      <point x="176" y="874"/>
      <point x="220" y="915" type="qcurve"/>
    </contour>
  </outline>
</glyph>
<glyph name="Atilde" format="1">
  <advance width="434"/>
  <unicode hex="00C3"/>
  <outline>
    <contour>
      <point x="61" y="757" type="line"/>
      <point x="49" y="758"/>
      <point x="32" y="758"/>
      <point x="17" y="757" type="qcurve"/>
      <point x="20" y="768"/>
      <point x="33" y="803"/>
      <point x="49" y="841"/>
      <point x="67" y="875"/>
      <point x="77" y="886" type="qcurve"/>
      <point x="90" y="899"/>
      <point x="124" y="917"/>
      <point x="160" y="923"/>
      <point x="196" y="916"/>
      <point x="212" y="905" type="qcurve"/>
      <point x="227" y="894"/>
      <point x="244" y="866"/>
      <point x="271" y="775"/>
      <point x="367" y="794"/>
      <point x="388" y="872"/>
      <point x="382" y="912" type="qcurve"/>
      <point x="419" y="913" type="line"/>
      <point x="419" y="912" type="line"/>
      <point x="423" y="887"/>
      <point x="414" y="834"/>
      <point x="390" y="788"/>
      <point x="351" y="755"/>
      <point x="325" y="751" type="qcurve"/>
      <point x="294" y="746"/>
      <point x="236" y="764"/>
      <point x="216" y="829" type="qcurve"/>
      <point x="200" y="872"/>
      <point x="166" y="890"/>
      <point x="144" y="886" type="qcurve"/>
      <point x="107" y="877"/>
      <point x="71" y="808"/>
      <point x="61" y="758" type="qcurve"/>
    </contour>
    <contour>
      <point x="437" y="1" type="line"/>
      <point x="437" y="0" type="line"/>
      <point x="391" y="-6"/>
      <point x="394" y="0" type="qcurve"/>
      <point x="393" y="0" type="line"/>
      <point x="387" y="16"/>
      <point x="376" y="60"/>
      <point x="365" y="106"/>
      <point x="348" y="169" type="qcurve"/>
      <point x="83" y="172" type="line"/>
      <point x="72" y="111"/>
      <point x="63" y="64"/>
      <point x="52" y="3" type="qcurve"/>
      <point x="51" y="3"/>
      <point x="44" y="2"/>
      <point x="4" y="2" type="qcurve"/>
      <point x="6" y="9"/>
      <point x="16" y="73"/>
      <point x="34" y="175"/>
      <point x="59" y="308"/>
      <point x="93" y="458"/>
      <point x="133" y="620"/>
      <point x="166" y="700" type="qcurve"/>
      <point x="173" y="701"/>
      <point x="189" y="701"/>
      <point x="206" y="701"/>
      <point x="247" y="702"/>
      <point x="280" y="705" type="qcurve"/>
      <point x="283" y="692"/>
      <point x="296" y="639"/>
      <point x="311" y="572"/>
      <point x="328" y="496"/>
      <point x="344" y="426"/>
      <point x="358" y="368"/>
      <point x="362" y="351" type="qcurve"/>
    </contour>
    <contour>
      <point x="347" y="213" type="qcurve"/>
      <point x="256" y="659"/>
      <point x="239" y="659"/>
      <point x="202" y="659"/>
      <point x="183" y="658"/>
      <point x="136" y="451"/>
      <point x="88" y="213" type="qcurve"/>
      <point x="100" y="212"/>
      <point x="215" y="210"/>
    </contour>
  </outline>
</glyph>
<glyph name="Aring" format="1">
  <advance width="434"/>
  <unicode hex="00C5"/>
  <outline>
    <contour>
      <point x="292" y="777" type="qcurve"/>
      <point x="283" y="763"/>
      <point x="249" y="754"/>
      <point x="232" y="753" type="qcurve"/>
      <point x="218" y="751"/>
      <point x="190" y="751"/>
      <point x="176" y="752" type="qcurve"/>
      <point x="162" y="753"/>
      <point x="136" y="768"/>
      <point x="131" y="781" type="qcurve"/>
      <point x="126" y="809"/>
      <point x="123" y="868"/>
      <point x="130" y="895" type="qcurve"/>
      <point x="133" y="905"/>
      <point x="141" y="915" type="qcurve"/>
      <point x="155" y="928"/>
      <point x="196" y="937"/>
      <point x="219" y="935" type="qcurve"/>
      <point x="240" y="934"/>
      <point x="287" y="922"/>
      <point x="298" y="906" type="qcurve"/>
      <point x="307" y="875"/>
      <point x="304" y="807"/>
    </contour>
    <contour>
      <point x="186" y="885" type="qcurve"/>
      <point x="174" y="878"/>
      <point x="171" y="865" type="qcurve"/>
      <point x="169" y="855"/>
      <point x="169" y="848" type="qcurve"/>
      <point x="169" y="837"/>
      <point x="171" y="812"/>
      <point x="179" y="804" type="qcurve"/>
      <point x="189" y="795"/>
      <point x="204" y="795" type="qcurve"/>
      <point x="214" y="795" type="line"/>
      <point x="225" y="796"/>
      <point x="252" y="799"/>
      <point x="257" y="810" type="qcurve"/>
      <point x="259" y="820"/>
      <point x="263" y="844"/>
      <point x="262" y="855" type="qcurve"/>
      <point x="260" y="869"/>
      <point x="255" y="877" type="qcurve"/>
      <point x="247" y="885"/>
      <point x="227" y="891"/>
      <point x="216" y="891" type="qcurve"/>
      <point x="199" y="891"/>
    </contour>
    <contour>
      <point x="437" y="1" type="line"/>
      <point x="437" y="0" type="line"/>
      <point x="391" y="-6"/>
      <point x="394" y="0" type="qcurve"/>
      <point x="393" y="0" type="line"/>
      <point x="387" y="16"/>
      <point x="376" y="60"/>
      <point x="365" y="106"/>
      <point x="348" y="169" type="qcurve"/>
      <point x="83" y="172" type="line"/>
      <point x="72" y="111"/>
      <point x="63" y="64"/>
      <point x="52" y="3" type="qcurve"/>
      <point x="51" y="3"/>
      <point x="44" y="2"/>
      <point x="4" y="2" type="qcurve"/>
      <point x="6" y="9"/>
      <point x="16" y="73"/>
      <point x="34" y="175"/>
      <point x="59" y="308"/>
      <point x="93" y="458"/>
      <point x="133" y="620"/>
      <point x="166" y="700" type="qcurve"/>
      <point x="173" y="701"/>
      <point x="189" y="701"/>
      <point x="206" y="701"/>
      <point x="247" y="702"/>
      <point x="280" y="705" type="qcurve"/>
      <point x="283" y="692"/>
      <point x="296" y="639"/>
      <point x="311" y="572"/>
      <point x="328" y="496"/>
      <point x="344" y="426"/>
      <point x="358" y="368"/>
      <point x="362" y="351" type="qcurve"/>
    </contour>
    <contour>
      <point x="347" y="213" type="qcurve"/>
      <point x="256" y="659"/>
      <point x="239" y="659"/>
      <point x="202" y="659"/>
      <point x="183" y="658"/>
      <point x="136" y="451"/>
      <point x="88" y="213" type="qcurve"/>
      <point x="100" y="212"/>
      <point x="215" y="210"/>
    </contour>
  </outline>
</glyph>
<glyph name="AE" format="1">
  <advance width="716"/>
  <unicode hex="00C6"/>
  <outline>
    <contour>
      <point x="696" y="39" type="line"/>
      <point x="694" y="3" type="line"/>
      <point x="592" y="4"/>
      <point x="396" y="-6"/>
      <point x="399" y="0" type="qcurve"/>
      <point x="398" y="0" type="line"/>
      <point x="392" y="16"/>
      <point x="381" y="60"/>
      <point x="370" y="106"/>
      <point x="353" y="169" type="qcurve"/>
      <point x="88" y="172" type="line"/>
      <point x="77" y="111"/>
      <point x="68" y="64"/>
      <point x="57" y="3" type="qcurve"/>
      <point x="56" y="3"/>
      <point x="49" y="2"/>
      <point x="9" y="2" type="qcurve"/>
      <point x="11" y="9"/>
      <point x="21" y="73"/>
      <point x="39" y="175"/>
      <point x="64" y="308"/>
      <point x="98" y="458"/>
      <point x="138" y="620"/>
      <point x="171" y="700" type="qcurve"/>
      <point x="178" y="701"/>
      <point x="202" y="701" type="qcurve"/>
      <point x="211" y="701"/>
      <point x="593" y="698"/>
      <point x="659" y="698"/>
      <point x="699" y="696"/>
      <point x="699" y="695" type="qcurve"/>
      <point x="698" y="657" type="line"/>
      <point x="666" y="659"/>
      <point x="607" y="656"/>
      <point x="541" y="657"/>
      <point x="475" y="657"/>
      <point x="453" y="653" type="qcurve"/>
      <point x="450" y="653" type="line"/>
      <point x="449" y="652" type="line"/>
      <point x="450" y="623"/>
      <point x="444" y="461"/>
      <point x="445" y="368" type="qcurve"/>
      <point x="446" y="367" type="line"/>
      <point x="465" y="366"/>
      <point x="527" y="366"/>
      <point x="558" y="365" type="qcurve"/>
      <point x="558" y="364" type="line"/>
      <point x="559" y="345"/>
      <point x="559" y="335" type="qcurve"/>
      <point x="559" y="329" type="line"/>
      <point x="519" y="327"/>
      <point x="507" y="324"/>
      <point x="450" y="326" type="qcurve"/>
      <point x="445" y="290"/>
      <point x="448" y="165"/>
      <point x="444" y="46" type="qcurve"/>
      <point x="445" y="45" type="line"/>
      <point x="500" y="46"/>
      <point x="628" y="39"/>
      <point x="696" y="41" type="qcurve"/>
    </contour>
    <contour>
      <point x="352" y="213" type="qcurve"/>
      <point x="261" y="659"/>
      <point x="252" y="659" type="qcurve"/>
      <point x="225" y="659" type="line"/>
      <point x="207" y="659"/>
      <point x="188" y="658"/>
      <point x="141" y="451"/>
      <point x="93" y="213" type="qcurve"/>
      <point x="105" y="212"/>
      <point x="220" y="210"/>
    </contour>
    <contour>
      <point x="560" y="329" type="qcurve"/>
      <point x="559" y="329" type="line"/>
      <point x="559" y="327"/>
    </contour>
  </outline>
</glyph>
<glyph name="Egrave" format="1">
  <advance width="481"/>
  <unicode hex="00C8"/>
  <outline>
    <contour>
      <point x="457" y="39" type="line"/>
      <point x="455" y="3" type="line"/>
      <point x="353" y="4"/>
      <point x="142" y="-3"/>
      <point x="45" y="5" type="qcurve"/>
      <point x="45" y="92"/>
      <point x="41" y="263"/>
      <point x="39" y="433"/>
      <point x="41" y="603"/>
      <point x="46" y="689" type="qcurve"/>
      <point x="85" y="691"/>
      <point x="176" y="694"/>
      <point x="268" y="696"/>
      <point x="354" y="698"/>
      <point x="420" y="698"/>
      <point x="460" y="696"/>
      <point x="460" y="695" type="qcurve"/>
      <point x="459" y="657" type="line"/>
      <point x="427" y="659"/>
      <point x="368" y="656"/>
      <point x="302" y="657"/>
      <point x="236" y="657"/>
      <point x="95" y="653" type="qcurve"/>
      <point x="92" y="653" type="line"/>
      <point x="91" y="652" type="line"/>
      <point x="92" y="623"/>
      <point x="80" y="395"/>
      <point x="87" y="368" type="qcurve"/>
      <point x="88" y="367" type="line"/>
      <point x="226" y="366"/>
      <point x="288" y="366"/>
      <point x="319" y="365" type="qcurve"/>
      <point x="319" y="364" type="line"/>
      <point x="320" y="345"/>
      <point x="320" y="326"/>
      <point x="321" y="329" type="qcurve"/>
      <point x="280" y="327"/>
      <point x="268" y="324"/>
      <point x="233" y="326"/>
      <point x="97" y="323"/>
      <point x="92" y="319" type="qcurve"/>
      <point x="87" y="290"/>
      <point x="90" y="165"/>
      <point x="86" y="46" type="qcurve"/>
      <point x="87" y="45" type="line"/>
      <point x="261" y="46"/>
      <point x="389" y="39"/>
      <point x="457" y="41" type="qcurve"/>
    </contour>
    <contour>
      <point x="164" y="904" type="line"/>
      <point x="176" y="891"/>
      <point x="212" y="854"/>
      <point x="254" y="815"/>
      <point x="299" y="766"/>
      <point x="316" y="750" type="qcurve"/>
      <point x="309" y="748"/>
      <point x="279" y="745"/>
      <point x="251" y="748" type="qcurve"/>
      <point x="246" y="756"/>
      <point x="219" y="782"/>
      <point x="185" y="817"/>
      <point x="132" y="872"/>
      <point x="130" y="868" type="qcurve"/>
    </contour>
  </outline>
</glyph>
<glyph name="Idieresis" format="1">
  <advance width="260"/>
  <unicode hex="00CF"/>
  <outline>
    <contour>
      <point x="155" y="703" type="qcurve"/>
      <point x="155" y="699" type="line"/>
      <point x="155" y="613"/>
      <point x="150" y="439"/>
      <point x="152" y="264"/>
      <point x="149" y="90"/>
      <point x="154" y="1" type="qcurve"/>
      <point x="144" y="0"/>
      <point x="133" y="-1"/>
      <point x="106" y="-1"/>
      <point x="96" y="-4" type="qcurve"/>
      <point x="98" y="118"/>
      <point x="96" y="447"/>
      <point x="95" y="622"/>
      <point x="104" y="706" type="qcurve"/>
      <point x="104" y="708" type="line"/>
      <point x="120" y="709"/>
      <point x="126" y="706"/>
      <point x="128" y="706" type="qcurve"/>
      <point x="136" y="705"/>
    </contour>
    <contour>
      <point x="35" y="760" type="line"/>
      <point x="32" y="760" type="line"/>
      <point x="30" y="770"/>
      <point x="29" y="799"/>
      <point x="30" y="829"/>
      <point x="31" y="855"/>
      <point x="31" y="861" type="qcurve"/>
      <point x="40" y="864"/>
      <point x="75" y="865"/>
      <point x="82" y="862" type="qcurve"/>
      <point x="82" y="861"/>
      <point x="80" y="835"/>
      <point x="78" y="800"/>
      <point x="76" y="768"/>
      <point x="76" y="761" type="qcurve"/>
      <point x="76" y="760" type="line"/>
      <point x="76" y="759" type="line"/>
      <point x="74" y="759" type="line"/>
    </contour>
    <contour>
      <point x="193" y="760" type="line"/>
      <point x="190" y="760" type="line"/>
      <point x="188" y="770"/>
      <point x="187" y="799"/>
      <point x="188" y="829"/>
      <point x="189" y="855"/>
      <point x="189" y="861" type="qcurve"/>
      <point x="198" y="864"/>
      <point x="233" y="865"/>
      <point x="240" y="862" type="qcurve"/>
      <point x="240" y="861"/>
      <point x="238" y="835"/>
      <point x="236" y="800"/>
      <point x="234" y="768"/>
      <point x="234" y="761" type="qcurve"/>
      <point x="234" y="760" type="line"/>
      <point x="234" y="759" type="line"/>
      <point x="232" y="759" type="line"/>
    </contour>
  </outline>
</glyph>
<glyph name="Ntilde" format="1">
  <advance width="516"/>
  <unicode hex="00D1"/>
  <outline>
    <contour>
      <point x="412" y="4" type="qcurve"/>
      <point x="379" y="78"/>
      <point x="316" y="173"/>
      <point x="119" y="533" type="qcurve"/>
      <point x="102" y="568"/>
      <point x="95" y="587"/>
      <point x="92" y="569" type="qcurve"/>
      <point x="95" y="537"/>
      <point x="93" y="463"/>
      <point x="101" y="125"/>
      <point x="101" y="83" type="qcurve"/>
      <point x="101" y="60"/>
      <point x="101" y="17"/>
      <point x="102" y="0" type="qcurve"/>
      <point x="91" y="-3"/>
      <point x="65" y="1"/>
      <point x="42" y="1" type="qcurve"/>
      <point x="42" y="71" type="line"/>
      <point x="42" y="166"/>
      <point x="39" y="338"/>
      <point x="39" y="432" type="qcurve"/>
      <point x="39" y="501"/>
      <point x="43" y="636"/>
      <point x="48" y="700" type="qcurve"/>
      <point x="58" y="702"/>
      <point x="96" y="696"/>
      <point x="96" y="694" type="qcurve"/>
      <point x="103" y="676"/>
      <point x="115" y="652"/>
      <point x="142" y="603"/>
      <point x="151" y="582" type="qcurve"/>
      <point x="153" y="577"/>
      <point x="373" y="191"/>
      <point x="402" y="135"/>
      <point x="410" y="124" type="qcurve"/>
      <point x="410" y="173"/>
      <point x="410" y="190" type="qcurve"/>
      <point x="410" y="242"/>
      <point x="407" y="311"/>
      <point x="407" y="347" type="qcurve"/>
      <point x="402" y="640"/>
      <point x="398" y="683"/>
      <point x="398" y="708" type="qcurve"/>
      <point x="427" y="710"/>
      <point x="456" y="704" type="qcurve"/>
      <point x="456" y="382" type="line"/>
      <point x="457" y="340"/>
      <point x="457" y="254"/>
      <point x="457" y="211" type="qcurve"/>
      <point x="457" y="182"/>
      <point x="456" y="128"/>
      <point x="456" y="100" type="qcurve"/>
      <point x="451" y="66"/>
      <point x="457" y="20" type="qcurve"/>
      <point x="457" y="0" type="line"/>
      <point x="455" y="-1"/>
    </contour>
    <contour>
      <point x="105" y="757" type="line"/>
      <point x="93" y="758"/>
      <point x="76" y="758"/>
      <point x="61" y="757" type="qcurve"/>
      <point x="64" y="768"/>
      <point x="77" y="803"/>
      <point x="93" y="841"/>
      <point x="111" y="875"/>
      <point x="121" y="886" type="qcurve"/>
      <point x="134" y="899"/>
      <point x="168" y="917"/>
      <point x="204" y="923"/>
      <point x="240" y="916"/>
      <point x="256" y="905" type="qcurve"/>
      <point x="271" y="894"/>
      <point x="288" y="866"/>
      <point x="315" y="775"/>
      <point x="411" y="794"/>
      <point x="432" y="872"/>
      <point x="426" y="912" type="qcurve"/>
      <point x="463" y="913" type="line"/>
      <point x="463" y="912" type="line"/>
      <point x="467" y="887"/>
      <point x="458" y="834"/>
      <point x="434" y="788"/>
      <point x="395" y="755"/>
      <point x="369" y="751" type="qcurve"/>
      <point x="338" y="746"/>
      <point x="280" y="764"/>
      <point x="260" y="829" type="qcurve"/>
      <point x="244" y="872"/>
      <point x="210" y="890"/>
      <point x="188" y="886" type="qcurve"/>
      <point x="151" y="877"/>
      <point x="115" y="808"/>
      <point x="105" y="758" type="qcurve"/>
    </contour>
  </outline>
</glyph>
<glyph name="Ograve" format="1">
  <advance width="485"/>
  <unicode hex="00D2"/>
  <outline>
    <contour>
      <point x="437" y="592" type="qcurve"/>
      <point x="444" y="577"/>
      <point x="451" y="546"/>
      <point x="453" y="530" type="qcurve"/>
      <point x="455" y="505"/>
      <point x="456" y="456"/>
      <point x="455" y="431" type="qcurve"/>
      <point x="452" y="378"/>
      <point x="454" y="278"/>
      <point x="450" y="226" type="qcurve"/>
      <point x="447" y="193" type="line"/>
      <point x="445" y="158"/>
      <point x="427" y="87"/>
      <point x="409" y="58" type="qcurve"/>
      <point x="392" y="34"/>
      <point x="337" y="5"/>
      <point x="306" y="-3" type="qcurve"/>
      <point x="278" y="-11"/>
      <point x="221" y="-15"/>
      <point x="192" y="-13" type="qcurve"/>
      <point x="171" y="-11"/>
      <point x="132" y="-4"/>
      <point x="97" y="12"/>
      <point x="69" y="37"/>
      <point x="60" y="57" type="qcurve"/>
      <point x="46" y="82"/>
      <point x="37" y="139"/>
      <point x="36" y="168" type="qcurve"/>
      <point x="33" y="246"/>
      <point x="26" y="403"/>
      <point x="31" y="482" type="qcurve"/>
      <point x="32" y="527"/>
      <point x="53" y="618"/>
      <point x="84" y="653" type="qcurve"/>
      <point x="94" y="663"/>
      <point x="107" y="671" type="qcurve"/>
      <point x="140" y="687"/>
      <point x="217" y="702"/>
      <point x="294" y="698"/>
      <point x="367" y="675"/>
      <point x="396" y="653" type="qcurve"/>
      <point x="425" y="627"/>
    </contour>
    <contour>
      <point x="402" y="507" type="line"/>
      <point x="402" y="508"/>
      <point x="399" y="547"/>
      <point x="398" y="564" type="qcurve"/>
      <point x="396" y="592"/>
      <point x="357" y="638"/>
      <point x="334" y="649" type="qcurve"/>
      <point x="314" y="657"/>
      <point x="210" y="668"/>
      <point x="137" y="635" type="qcurve"/>
      <point x="102" y="608"/>
      <point x="90" y="566" type="qcurve"/>
      <point x="82" y="528"/>
      <point x="71" y="444"/>
      <point x="73" y="311" type="qcurve"/>
      <point x="76" y="181"/>
      <point x="90" y="108"/>
      <point x="100" y="75" type="qcurve"/>
      <point x="110" y="55"/>
      <point x="172" y="16"/>
      <point x="311" y="28"/>
      <point x="355" y="55"/>
      <point x="370" y="72" type="qcurve"/>
      <point x="379" y="84"/>
      <point x="387" y="99"/>
      <point x="396" y="115"/>
      <point x="400" y="142"/>
      <point x="402" y="163" type="qcurve"/>
      <point x="403" y="183"/>
      <point x="408" y="298"/>
      <point x="408" y="300" type="qcurve"/>
      <point x="408" y="439" type="line"/>
    </contour>
    <contour>
      <point x="120" y="904" type="line"/>
      <point x="132" y="891"/>
      <point x="168" y="854"/>
      <point x="210" y="815"/>
      <point x="255" y="766"/>
      <point x="272" y="750" type="qcurve"/>
      <point x="265" y="748"/>
      <point x="235" y="745"/>
      <point x="207" y="748" type="qcurve"/>
      <point x="202" y="756"/>
      <point x="175" y="782"/>
      <point x="141" y="817"/>
      <point x="88" y="872"/>
      <point x="86" y="868" type="qcurve"/>
    </contour>
  </outline>
</glyph>
<glyph name="Otilde" format="1">
  <advance width="484"/>
  <unicode hex="00D5"/>
  <outline>
    <contour>
      <point x="437" y="592" type="qcurve"/>
      <point x="444" y="577"/>
      <point x="451" y="546"/>
      <point x="453" y="530" type="qcurve"/>
      <point x="455" y="505"/>
      <point x="456" y="456"/>
      <point x="455" y="431" type="qcurve"/>
      <point x="452" y="378"/>
      <point x="454" y="278"/>
      <point x="450" y="226" type="qcurve"/>
      <point x="447" y="193" type="line"/>
      <point x="445" y="158"/>
      <point x="427" y="87"/>
      <point x="409" y="58" type="qcurve"/>
      <point x="392" y="34"/>
      <point x="337" y="5"/>
      <point x="306" y="-3" type="qcurve"/>
      <point x="278" y="-11"/>
      <point x="221" y="-15"/>
      <point x="192" y="-13" type="qcurve"/>
      <point x="171" y="-11"/>
      <point x="132" y="-4"/>
      <point x="97" y="12"/>
      <point x="69" y="37"/>
      <point x="60" y="57" type="qcurve"/>
      <point x="46" y="82"/>
      <point x="37" y="139"/>
      <point x="36" y="168" type="qcurve"/>
      <point x="33" y="246"/>
      <point x="26" y="403"/>
      <point x="31" y="482" type="qcurve"/>
      <point x="32" y="527"/>
      <point x="53" y="618"/>
      <point x="84" y="653" type="qcurve"/>
      <point x="94" y="663"/>
      <point x="107" y="671" type="qcurve"/>
      <point x="140" y="687"/>
      <point x="217" y="702"/>
      <point x="294" y="698"/>
      <point x="367" y="675"/>
      <point x="396" y="653" type="qcurve"/>
      <point x="425" y="627"/>
    </contour>
    <contour>
      <point x="402" y="507" type="line"/>
      <point x="402" y="508"/>
      <point x="399" y="547"/>
      <point x="398" y="564" type="qcurve"/>
      <point x="396" y="592"/>
      <point x="357" y="638"/>
      <point x="334" y="649" type="qcurve"/>
      <point x="314" y="657"/>
      <point x="210" y="668"/>
      <point x="137" y="635" type="qcurve"/>
      <point x="102" y="608"/>
      <point x="90" y="566" type="qcurve"/>
      <point x="82" y="528"/>
      <point x="71" y="444"/>
      <point x="73" y="311" type="qcurve"/>
      <point x="76" y="181"/>
      <point x="90" y="108"/>
      <point x="100" y="75" type="qcurve"/>
      <point x="110" y="55"/>
      <point x="172" y="16"/>
      <point x="311" y="28"/>
      <point x="355" y="55"/>
      <point x="370" y="72" type="qcurve"/>
      <point x="379" y="84"/>
      <point x="387" y="99"/>
      <point x="396" y="115"/>
      <point x="400" y="142"/>
      <point x="402" y="163" type="qcurve"/>
      <point x="403" y="183"/>
      <point x="408" y="298"/>
      <point x="408" y="300" type="qcurve"/>
      <point x="408" y="439" type="line"/>
    </contour>
    <contour>
      <point x="80" y="745" type="line"/>
      <point x="68" y="746"/>
      <point x="51" y="746"/>
      <point x="36" y="745" type="qcurve"/>
      <point x="39" y="756"/>
      <point x="52" y="791"/>
      <point x="68" y="829"/>
      <point x="86" y="863"/>
      <point x="96" y="874" type="qcurve"/>
      <point x="109" y="887"/>
      <point x="143" y="905"/>
      <point x="179" y="911"/>
      <point x="215" y="904"/>
      <point x="231" y="893" type="qcurve"/>
      <point x="246" y="882"/>
      <point x="263" y="854"/>
      <point x="290" y="763"/>
      <point x="386" y="782"/>
      <point x="407" y="860"/>
      <point x="401" y="900" type="qcurve"/>
      <point x="438" y="901" type="line"/>
      <point x="438" y="900" type="line"/>
      <point x="442" y="875"/>
      <point x="433" y="822"/>
      <point x="409" y="776"/>
      <point x="370" y="743"/>
      <point x="344" y="739" type="qcurve"/>
      <point x="313" y="734"/>
      <point x="255" y="752"/>
      <point x="235" y="817" type="qcurve"/>
      <point x="219" y="860"/>
      <point x="185" y="878"/>
      <point x="163" y="874" type="qcurve"/>
      <point x="126" y="865"/>
      <point x="90" y="796"/>
      <point x="80" y="746" type="qcurve"/>
    </contour>
  </outline>
</glyph>
<glyph name="multiply" format="1">
  <advance width="735"/>
  <unicode hex="00D7"/>
  <outline>
    <contour>
      <point x="688" y="724" type="line"/>
      <point x="688" y="679"/>
      <point x="687" y="563"/>
      <point x="687" y="435"/>
      <point x="687" y="300"/>
      <point x="688" y="172"/>
      <point x="691" y="57"/>
      <point x="693" y="13" type="qcurve"/>
      <point x="691" y="10"/>
      <point x="692" y="2"/>
      <point x="668" y="-3"/>
      <point x="600" y="-7"/>
      <point x="458" y="-7"/>
      <point x="224" y="-3"/>
      <point x="46" y="2" type="qcurve"/>
      <point x="51" y="98"/>
      <point x="51" y="277"/>
      <point x="46" y="452"/>
      <point x="41" y="630"/>
      <point x="41" y="726" type="qcurve"/>
    </contour>
    <contour>
      <point x="314" y="362" type="qcurve"/>
      <point x="133" y="625"/>
      <point x="95" y="692" type="qcurve"/>
      <point x="94" y="622"/>
      <point x="91" y="453"/>
      <point x="90" y="279"/>
      <point x="89" y="109"/>
      <point x="89" y="41" type="qcurve"/>
      <point x="274" y="298"/>
    </contour>
    <contour>
      <point x="406" y="364" type="qcurve"/>
      <point x="542" y="197"/>
      <point x="633" y="88"/>
      <point x="647" y="54" type="qcurve"/>
      <point x="650" y="125"/>
      <point x="652" y="283"/>
      <point x="651" y="455"/>
      <point x="650" y="618"/>
      <point x="650" y="683" type="qcurve"/>
      <point x="635" y="651"/>
    </contour>
    <contour>
      <point x="360" y="395" type="qcurve"/>
      <point x="366" y="412"/>
      <point x="576" y="644"/>
      <point x="595" y="685" type="qcurve"/>
      <point x="573" y="685"/>
      <point x="502" y="684"/>
      <point x="250" y="691"/>
      <point x="177" y="691"/>
      <point x="156" y="691" type="qcurve"/>
      <point x="224" y="575"/>
      <point x="355" y="410"/>
    </contour>
    <contour>
      <point x="360" y="334" type="line"/>
      <point x="350" y="313"/>
      <point x="143" y="42" type="qcurve"/>
      <point x="174" y="40"/>
      <point x="284" y="40"/>
      <point x="375" y="39"/>
      <point x="597" y="35"/>
      <point x="608" y="37" type="qcurve"/>
    </contour>
  </outline>
</glyph>
<glyph name="Oslash" format="1">
  <advance width="479"/>
  <unicode hex="00D8"/>
  <outline>
    <contour>
      <point x="105" y="49" type="qcurve"/>
      <point x="101" y="36"/>
      <point x="97" y="23" type="qcurve"/>
      <point x="91" y="7"/>
      <point x="85" y="-13"/>
      <point x="82" y="-20" type="qcurve"/>
      <point x="124" y="-18"/>
      <point x="130" y="-17" type="qcurve"/>
      <point x="131" y="-16"/>
      <point x="134" y="-12" type="qcurve"/>
      <point x="146" y="22" type="line"/>
      <point x="154" y="18"/>
      <point x="163" y="15" type="qcurve"/>
      <point x="191" y="4"/>
      <point x="228" y="2" type="qcurve"/>
      <point x="270" y="-1"/>
      <point x="338" y="30"/>
      <point x="388" y="87"/>
      <point x="424" y="161"/>
      <point x="445" y="247"/>
      <point x="453" y="333"/>
      <point x="451" y="372" type="qcurve"/>
      <point x="453" y="401"/>
      <point x="448" y="459"/>
      <point x="443" y="491" type="qcurve"/>
      <point x="437" y="534"/>
      <point x="404" y="614"/>
      <point x="377" y="644" type="qcurve"/>
      <point x="372" y="649"/>
      <point x="367" y="654" type="qcurve"/>
      <point x="377" y="685"/>
      <point x="382" y="699" type="qcurve"/>
      <point x="384" y="705"/>
      <point x="386" y="712"/>
      <point x="388" y="718" type="qcurve"/>
      <point x="375" y="724"/>
      <point x="341" y="726" type="qcurve"/>
      <point x="329" y="684" type="line"/>
      <point x="321" y="688"/>
      <point x="313" y="692" type="qcurve"/>
      <point x="277" y="710"/>
      <point x="230" y="708" type="qcurve"/>
      <point x="183" y="706"/>
      <point x="116" y="663"/>
      <point x="88" y="629" type="qcurve"/>
      <point x="82" y="623"/>
      <point x="78" y="617" type="qcurve"/>
      <point x="58" y="583"/>
      <point x="38" y="508"/>
      <point x="29" y="431"/>
      <point x="31" y="352"/>
      <point x="33" y="314" type="qcurve"/>
      <point x="34" y="269"/>
      <point x="40" y="180"/>
      <point x="65" y="98"/>
      <point x="90" y="66" type="qcurve"/>
      <point x="97" y="57"/>
    </contour>
    <contour>
      <point x="122" y="90" type="qcurve"/>
      <point x="92" y="132"/>
      <point x="84" y="200" type="qcurve"/>
      <point x="75" y="282"/>
      <point x="75" y="384"/>
      <point x="74" y="446" type="qcurve"/>
      <point x="77" y="476"/>
      <point x="83" y="511"/>
      <point x="95" y="553"/>
      <point x="154" y="667"/>
      <point x="254" y="665" type="qcurve"/>
      <point x="289" y="658"/>
      <point x="316" y="642" type="qcurve"/>
      <point x="306" y="611"/>
      <point x="288" y="556" type="qcurve"/>
      <point x="261" y="472"/>
      <point x="249" y="441" type="qcurve"/>
      <point x="218" y="356"/>
      <point x="182" y="255"/>
      <point x="168" y="217" type="qcurve"/>
      <point x="155" y="182"/>
    </contour>
    <contour>
      <point x="161" y="57" type="qcurve"/>
      <point x="190" y="139" type="line"/>
      <point x="197" y="155"/>
      <point x="208" y="187"/>
      <point x="213" y="202" type="qcurve"/>
      <point x="236" y="259"/>
      <point x="274" y="373"/>
      <point x="294" y="431" type="qcurve"/>
      <point x="304" y="459"/>
      <point x="323" y="517"/>
      <point x="333" y="546" type="qcurve"/>
      <point x="345" y="582"/>
      <point x="353" y="616" type="qcurve"/>
      <point x="364" y="595"/>
      <point x="372" y="578" type="qcurve"/>
      <point x="406" y="507"/>
      <point x="411" y="398"/>
      <point x="410" y="335"/>
      <point x="409" y="309" type="qcurve"/>
      <point x="407" y="283"/>
      <point x="405" y="238"/>
      <point x="392" y="172"/>
      <point x="313" y="45"/>
      <point x="239" y="40" type="qcurve"/>
      <point x="192" y="40"/>
    </contour>
  </outline>
</glyph>
<glyph name="Uacute" format="1">
  <advance width="505"/>
  <unicode hex="00DA"/>
  <outline>
    <contour>
      <point x="469" y="669" type="qcurve"/>
      <point x="475" y="541"/>
      <point x="471" y="280"/>
      <point x="457" y="151" type="qcurve"/>
      <point x="449" y="85"/>
      <point x="365" y="-7"/>
      <point x="293" y="-14" type="qcurve"/>
      <point x="251" y="-18"/>
      <point x="161" y="-3"/>
      <point x="88" y="36"/>
      <point x="46" y="122"/>
      <point x="44" y="168" type="qcurve"/>
      <point x="37" y="279"/>
      <point x="43" y="547"/>
      <point x="41" y="679" type="qcurve"/>
      <point x="40" y="680" type="line"/>
      <point x="41" y="680" type="line"/>
      <point x="56" y="680"/>
      <point x="94" y="680" type="qcurve"/>
      <point x="85" y="283"/>
      <point x="110" y="63"/>
      <point x="294" y="16"/>
      <point x="407" y="116"/>
      <point x="422" y="322"/>
      <point x="417" y="555"/>
      <point x="420" y="671" type="qcurve"/>
      <point x="457" y="676"/>
    </contour>
    <contour>
      <point x="346" y="907" type="line"/>
      <point x="334" y="894"/>
      <point x="298" y="857"/>
      <point x="256" y="818"/>
      <point x="211" y="769"/>
      <point x="194" y="753" type="qcurve"/>
      <point x="201" y="751"/>
      <point x="231" y="748"/>
      <point x="259" y="751" type="qcurve"/>
      <point x="264" y="759"/>
      <point x="291" y="785"/>
      <point x="325" y="820"/>
      <point x="378" y="875"/>
      <point x="380" y="871" type="qcurve"/>
    </contour>
  </outline>
</glyph>
<glyph name="Ucircumflex" format="1">
  <advance width="505"/>
  <unicode hex="00DB"/>
  <outline>
    <contour>
      <point x="469" y="669" type="qcurve"/>
      <point x="475" y="541"/>
      <point x="471" y="280"/>
      <point x="457" y="151" type="qcurve"/>
      <point x="449" y="85"/>
      <point x="365" y="-7"/>
      <point x="293" y="-14" type="qcurve"/>
      <point x="251" y="-18"/>
      <point x="161" y="-3"/>
      <point x="88" y="36"/>
      <point x="46" y="122"/>
      <point x="44" y="168" type="qcurve"/>
      <point x="37" y="279"/>
      <point x="43" y="547"/>
      <point x="41" y="679" type="qcurve"/>
      <point x="40" y="680" type="line"/>
      <point x="41" y="680" type="line"/>
      <point x="56" y="680"/>
      <point x="94" y="680" type="qcurve"/>
      <point x="85" y="283"/>
      <point x="110" y="63"/>
      <point x="294" y="16"/>
      <point x="407" y="116"/>
      <point x="422" y="322"/>
      <point x="417" y="555"/>
      <point x="420" y="671" type="qcurve"/>
      <point x="457" y="676"/>
    </contour>
    <contour>
      <point x="411" y="754" type="line"/>
      <point x="409" y="755"/>
      <point x="385" y="752"/>
      <point x="366" y="749" type="qcurve"/>
      <point x="362" y="749"/>
      <point x="285" y="823"/>
      <point x="271" y="840"/>
      <point x="256" y="855"/>
      <point x="252" y="857" type="qcurve"/>
      <point x="247" y="856"/>
      <point x="230" y="838"/>
      <point x="215" y="821"/>
      <point x="152" y="754"/>
      <point x="148" y="753" type="qcurve"/>
      <point x="139" y="752"/>
      <point x="121" y="752"/>
      <point x="90" y="753" type="qcurve"/>
      <point x="137" y="808"/>
      <point x="206" y="874"/>
      <point x="250" y="915" type="qcurve"/>
    </contour>
  </outline>
</glyph>
<glyph name="Yacute" format="1">
  <advance width="434"/>
  <unicode hex="00DD"/>
  <outline>
    <contour>
      <point x="331" y="904" type="line"/>
      <point x="319" y="891"/>
      <point x="283" y="854"/>
      <point x="241" y="815"/>
      <point x="196" y="766"/>
      <point x="179" y="750" type="qcurve"/>
      <point x="186" y="748"/>
      <point x="216" y="745"/>
      <point x="244" y="748" type="qcurve"/>
      <point x="249" y="756"/>
      <point x="276" y="782"/>
      <point x="310" y="817"/>
      <point x="363" y="872"/>
      <point x="365" y="868" type="qcurve"/>
    </contour>
    <contour>
      <point x="450" y="692" type="line"/>
      <point x="422" y="602"/>
      <point x="346" y="430"/>
      <point x="264" y="259"/>
      <point x="199" y="102"/>
      <point x="156" y="0" type="qcurve"/>
      <point x="150" y="1"/>
      <point x="109" y="-1"/>
      <point x="103" y="0" type="qcurve"/>
      <point x="101" y="0" type="line"/>
      <point x="183" y="195"/>
      <point x="223" y="298" type="qcurve"/>
      <point x="178" y="376"/>
      <point x="135" y="449"/>
      <point x="83" y="538"/>
      <point x="26" y="650"/>
      <point x="16" y="692" type="qcurve"/>
      <point x="36" y="692"/>
      <point x="56" y="695"/>
      <point x="61" y="693" type="qcurve"/>
      <point x="111" y="576"/>
      <point x="213" y="408"/>
      <point x="255" y="347" type="qcurve"/>
      <point x="323" y="496"/>
      <point x="395" y="670"/>
      <point x="404" y="692" type="qcurve"/>
      <point x="417" y="694"/>
      <point x="424" y="695"/>
      <point x="444" y="694"/>
      <point x="450" y="693" type="qcurve"/>
    </contour>
  </outline>
</glyph>
<glyph name="Thorn" format="1">
  <advance width="478"/>
  <unicode hex="00DE"/>
  <outline>
    <contour>
      <point x="97" y="713" type="line"/>
      <point x="98" y="693"/>
      <point x="97" y="655"/>
      <point x="96" y="558" type="qcurve"/>
      <point x="98" y="567"/>
      <point x="157" y="635"/>
      <point x="270" y="635"/>
      <point x="335" y="630"/>
      <point x="362" y="620" type="qcurve"/>
      <point x="384" y="612"/>
      <point x="415" y="573"/>
      <point x="434" y="518"/>
      <point x="443" y="452"/>
      <point x="443" y="417" type="qcurve"/>
      <point x="441" y="367"/>
      <point x="431" y="269"/>
      <point x="398" y="190"/>
      <point x="332" y="139"/>
      <point x="275" y="135" type="qcurve"/>
      <point x="247" y="131"/>
      <point x="165" y="136"/>
      <point x="104" y="187"/>
      <point x="88" y="238" type="qcurve"/>
      <point x="94" y="198"/>
      <point x="92" y="19"/>
      <point x="92" y="9" type="qcurve"/>
      <point x="92" y="4"/>
      <point x="91" y="2" type="qcurve"/>
      <point x="75" y="4"/>
      <point x="35" y="-1" type="qcurve"/>
      <point x="33" y="205"/>
      <point x="34" y="360"/>
      <point x="37" y="521"/>
      <point x="36" y="687"/>
      <point x="40" y="724" type="qcurve"/>
      <point x="56" y="727"/>
      <point x="97" y="725"/>
      <point x="97" y="724" type="qcurve"/>
    </contour>
    <contour>
      <point x="391" y="481" type="qcurve"/>
      <point x="389" y="542"/>
      <point x="296" y="584"/>
      <point x="224" y="584" type="qcurve"/>
      <point x="188" y="584"/>
      <point x="110" y="521"/>
      <point x="94" y="430"/>
      <point x="94" y="373" type="qcurve"/>
      <point x="94" y="327"/>
      <point x="120" y="251"/>
      <point x="190" y="175"/>
      <point x="236" y="175" type="qcurve"/>
      <point x="274" y="175"/>
      <point x="338" y="194"/>
      <point x="377" y="235"/>
      <point x="396" y="327"/>
      <point x="396" y="364" type="qcurve"/>
      <point x="396" y="384"/>
      <point x="393" y="428"/>
    </contour>
  </outline>
</glyph>
<glyph name="germandbls" format="1">
  <advance width="470"/>
  <unicode hex="00DF"/>
  <outline>
    <contour>
      <point x="377" y="557" type="qcurve"/>
      <point x="347" y="636"/>
      <point x="248" y="663" type="qcurve"/>
      <point x="212" y="672"/>
      <point x="98" y="668"/>
      <point x="83" y="660" type="qcurve"/>
      <point x="81" y="638"/>
      <point x="84" y="455"/>
      <point x="89" y="359"/>
      <point x="90" y="303"/>
      <point x="91" y="240"/>
      <point x="93" y="189"/>
      <point x="95" y="-1"/>
      <point x="85" y="0" type="qcurve"/>
      <point x="43" y="1"/>
      <point x="38" y="3" type="qcurve"/>
      <point x="32" y="177"/>
      <point x="38" y="518"/>
      <point x="35" y="692" type="qcurve"/>
      <point x="36" y="693" type="line"/>
      <point x="76" y="704"/>
      <point x="166" y="716"/>
      <point x="254" y="712"/>
      <point x="335" y="690"/>
      <point x="397" y="641"/>
      <point x="433" y="564"/>
      <point x="433" y="508" type="qcurve"/>
      <point x="433" y="466"/>
      <point x="404" y="386"/>
      <point x="384" y="352" type="qcurve"/>
      <point x="380" y="345"/>
      <point x="384" y="337"/>
      <point x="389" y="331" type="qcurve"/>
      <point x="405" y="311"/>
      <point x="434" y="272"/>
      <point x="455" y="229"/>
      <point x="463" y="177"/>
      <point x="457" y="145" type="qcurve"/>
      <point x="449" y="98"/>
      <point x="404" y="39"/>
      <point x="340" y="7"/>
      <point x="282" y="-4"/>
      <point x="220" y="0" type="qcurve"/>
      <point x="210" y="15"/>
      <point x="216" y="57" type="qcurve"/>
      <point x="241" y="58"/>
      <point x="257" y="58" type="qcurve"/>
      <point x="462" y="60"/>
      <point x="432" y="303"/>
      <point x="281" y="336" type="curve"/>
      <point x="419" y="437"/>
    </contour>
  </outline>
</glyph>
<glyph name="agrave" format="1">
  <advance width="476"/>
  <unicode hex="00E0"/>
  <outline>
    <contour>
      <point x="169" y="742" type="line"/>
      <point x="181" y="729"/>
      <point x="217" y="692"/>
      <point x="259" y="653"/>
      <point x="304" y="604"/>
      <point x="321" y="588" type="qcurve"/>
      <point x="314" y="586"/>
      <point x="284" y="583"/>
      <point x="256" y="586" type="qcurve"/>
      <point x="251" y="594"/>
      <point x="224" y="620"/>
      <point x="190" y="655"/>
      <point x="137" y="710"/>
      <point x="135" y="706" type="qcurve"/>
    </contour>
    <contour>
      <point x="439" y="498" type="qcurve"/>
      <point x="440" y="492"/>
      <point x="441" y="480"/>
      <point x="441" y="474" type="qcurve"/>
      <point x="441" y="464" type="line"/>
      <point x="438" y="356"/>
      <point x="446" y="147"/>
      <point x="439" y="40" type="qcurve"/>
      <point x="439" y="27"/>
      <point x="438" y="1"/>
      <point x="426" y="-1" type="qcurve"/>
      <point x="398" y="-1"/>
      <point x="399" y="-2" type="qcurve"/>
      <point x="392" y="0"/>
      <point x="391" y="20"/>
      <point x="391" y="45"/>
      <point x="391" y="55" type="qcurve"/>
      <point x="358" y="2"/>
      <point x="201" y="-2"/>
      <point x="166" y="-2" type="qcurve"/>
      <point x="127" y="-2"/>
      <point x="72" y="52"/>
      <point x="36" y="132"/>
      <point x="19" y="226"/>
      <point x="19" y="266" type="qcurve"/>
      <point x="19" y="316"/>
      <point x="45" y="400"/>
      <point x="90" y="461"/>
      <point x="152" y="496"/>
      <point x="187" y="497" type="qcurve"/>
      <point x="212" y="498"/>
      <point x="326" y="496"/>
      <point x="356" y="481"/>
      <point x="375" y="466"/>
      <point x="385" y="448" type="qcurve"/>
      <point x="389" y="473"/>
      <point x="389" y="499" type="qcurve"/>
      <point x="389" y="500"/>
      <point x="402" y="501"/>
      <point x="407" y="500"/>
    </contour>
    <contour>
      <point x="74" y="341" type="qcurve"/>
      <point x="67" y="316"/>
      <point x="64" y="264"/>
      <point x="64" y="239" type="qcurve"/>
      <point x="69" y="139"/>
      <point x="141" y="31"/>
      <point x="236" y="39" type="qcurve"/>
      <point x="283" y="38"/>
      <point x="344" y="58"/>
      <point x="389" y="113"/>
      <point x="390" y="199"/>
      <point x="390" y="253" type="qcurve"/>
      <point x="390" y="320"/>
      <point x="379" y="403"/>
      <point x="348" y="432"/>
      <point x="308" y="457"/>
      <point x="243" y="461" type="qcurve"/>
      <point x="175" y="464"/>
      <point x="85" y="388"/>
    </contour>
  </outline>
</glyph>
<glyph name="atilde" format="1">
  <advance width="476"/>
  <unicode hex="00E3"/>
  <outline>
    <contour>
      <point x="439" y="498" type="qcurve"/>
      <point x="440" y="492"/>
      <point x="441" y="480"/>
      <point x="441" y="474" type="qcurve"/>
      <point x="441" y="464" type="line"/>
      <point x="438" y="356"/>
      <point x="446" y="147"/>
      <point x="439" y="40" type="qcurve"/>
      <point x="439" y="27"/>
      <point x="438" y="1"/>
      <point x="426" y="-1" type="qcurve"/>
      <point x="398" y="-1"/>
      <point x="399" y="-2" type="qcurve"/>
      <point x="392" y="0"/>
      <point x="391" y="20"/>
      <point x="391" y="45"/>
      <point x="391" y="55" type="qcurve"/>
      <point x="358" y="2"/>
      <point x="201" y="-2"/>
      <point x="166" y="-2" type="qcurve"/>
      <point x="127" y="-2"/>
      <point x="72" y="52"/>
      <point x="36" y="132"/>
      <point x="19" y="226"/>
      <point x="19" y="266" type="qcurve"/>
      <point x="19" y="316"/>
      <point x="45" y="400"/>
      <point x="90" y="461"/>
      <point x="152" y="496"/>
      <point x="187" y="497" type="qcurve"/>
      <point x="212" y="498"/>
      <point x="326" y="496"/>
      <point x="356" y="481"/>
      <point x="375" y="466"/>
      <point x="385" y="448" type="qcurve"/>
      <point x="389" y="473"/>
      <point x="389" y="499" type="qcurve"/>
      <point x="389" y="500"/>
      <point x="402" y="501"/>
      <point x="407" y="500"/>
    </contour>
    <contour>
      <point x="74" y="341" type="qcurve"/>
      <point x="67" y="316"/>
      <point x="64" y="264"/>
      <point x="64" y="239" type="qcurve"/>
      <point x="69" y="139"/>
      <point x="141" y="31"/>
      <point x="236" y="39" type="qcurve"/>
      <point x="283" y="38"/>
      <point x="344" y="58"/>
      <point x="389" y="113"/>
      <point x="390" y="199"/>
      <point x="390" y="253" type="qcurve"/>
      <point x="390" y="320"/>
      <point x="379" y="403"/>
      <point x="348" y="432"/>
      <point x="308" y="457"/>
      <point x="243" y="461" type="qcurve"/>
      <point x="175" y="464"/>
      <point x="85" y="388"/>
    </contour>
    <contour>
      <point x="89" y="591" type="line"/>
      <point x="77" y="592"/>
      <point x="60" y="592"/>
      <point x="45" y="591" type="qcurve"/>
      <point x="48" y="602"/>
      <point x="61" y="637"/>
      <point x="77" y="675"/>
      <point x="95" y="709"/>
      <point x="105" y="720" type="qcurve"/>
      <point x="118" y="733"/>
      <point x="152" y="751"/>
      <point x="188" y="757"/>
      <point x="224" y="750"/>
      <point x="240" y="739" type="qcurve"/>
      <point x="255" y="728"/>
      <point x="272" y="700"/>
      <point x="299" y="609"/>
      <point x="395" y="628"/>
      <point x="416" y="706"/>
      <point x="410" y="746" type="qcurve"/>
      <point x="447" y="747" type="line"/>
      <point x="447" y="746" type="line"/>
      <point x="451" y="721"/>
      <point x="442" y="668"/>
      <point x="418" y="622"/>
      <point x="379" y="589"/>
      <point x="353" y="585" type="qcurve"/>
      <point x="322" y="580"/>
      <point x="264" y="598"/>
      <point x="244" y="663" type="qcurve"/>
      <point x="228" y="706"/>
      <point x="194" y="724"/>
      <point x="172" y="720" type="qcurve"/>
      <point x="135" y="711"/>
      <point x="99" y="642"/>
      <point x="89" y="592" type="qcurve"/>
    </contour>
  </outline>
</glyph>
<glyph name="adieresis" format="1">
  <advance width="476"/>
  <unicode hex="00E4"/>
  <outline>
    <contour>
      <point x="439" y="498" type="qcurve"/>
      <point x="440" y="492"/>
      <point x="441" y="480"/>
      <point x="441" y="474" type="qcurve"/>
      <point x="441" y="464" type="line"/>
      <point x="438" y="356"/>
      <point x="446" y="147"/>
      <point x="439" y="40" type="qcurve"/>
      <point x="439" y="27"/>
      <point x="438" y="1"/>
      <point x="426" y="-1" type="qcurve"/>
      <point x="398" y="-1"/>
      <point x="399" y="-2" type="qcurve"/>
      <point x="392" y="0"/>
      <point x="391" y="20"/>
      <point x="391" y="45"/>
      <point x="391" y="55" type="qcurve"/>
      <point x="358" y="2"/>
      <point x="201" y="-2"/>
      <point x="166" y="-2" type="qcurve"/>
      <point x="127" y="-2"/>
      <point x="72" y="52"/>
      <point x="36" y="132"/>
      <point x="19" y="226"/>
      <point x="19" y="266" type="qcurve"/>
      <point x="19" y="316"/>
      <point x="45" y="400"/>
      <point x="90" y="461"/>
      <point x="152" y="496"/>
      <point x="187" y="497" type="qcurve"/>
      <point x="212" y="498"/>
      <point x="326" y="496"/>
      <point x="356" y="481"/>
      <point x="375" y="466"/>
      <point x="385" y="448" type="qcurve"/>
      <point x="389" y="473"/>
      <point x="389" y="499" type="qcurve"/>
      <point x="389" y="500"/>
      <point x="402" y="501"/>
      <point x="407" y="500"/>
    </contour>
    <contour>
      <point x="74" y="341" type="qcurve"/>
      <point x="67" y="316"/>
      <point x="64" y="264"/>
      <point x="64" y="239" type="qcurve"/>
      <point x="69" y="139"/>
      <point x="141" y="31"/>
      <point x="236" y="39" type="qcurve"/>
      <point x="283" y="38"/>
      <point x="344" y="58"/>
      <point x="389" y="113"/>
      <point x="390" y="199"/>
      <point x="390" y="253" type="qcurve"/>
      <point x="390" y="320"/>
      <point x="379" y="403"/>
      <point x="348" y="432"/>
      <point x="308" y="457"/>
      <point x="243" y="461" type="qcurve"/>
      <point x="175" y="464"/>
      <point x="85" y="388"/>
    </contour>
    <contour>
      <point x="179" y="636" type="line"/>
      <point x="176" y="636" type="line"/>
      <point x="174" y="646"/>
      <point x="173" y="675"/>
      <point x="174" y="705"/>
      <point x="175" y="731"/>
      <point x="175" y="737" type="qcurve"/>
      <point x="184" y="740"/>
      <point x="219" y="741"/>
      <point x="226" y="738" type="qcurve"/>
      <point x="226" y="737"/>
      <point x="224" y="711"/>
      <point x="222" y="676"/>
      <point x="220" y="644"/>
      <point x="220" y="637" type="qcurve"/>
      <point x="220" y="636" type="line"/>
      <point x="220" y="635" type="line"/>
      <point x="218" y="635" type="line"/>
    </contour>
    <contour>
      <point x="337" y="636" type="line"/>
      <point x="334" y="636" type="line"/>
      <point x="332" y="646"/>
      <point x="331" y="675"/>
      <point x="332" y="705"/>
      <point x="333" y="731"/>
      <point x="333" y="737" type="qcurve"/>
      <point x="342" y="740"/>
      <point x="377" y="741"/>
      <point x="384" y="738" type="qcurve"/>
      <point x="384" y="737"/>
      <point x="382" y="711"/>
      <point x="380" y="676"/>
      <point x="378" y="644"/>
      <point x="378" y="637" type="qcurve"/>
      <point x="378" y="636" type="line"/>
      <point x="378" y="635" type="line"/>
      <point x="376" y="635" type="line"/>
    </contour>
  </outline>
</glyph>
<glyph name="aring" format="1">
  <advance width="476"/>
  <unicode hex="00E5"/>
  <outline>
    <contour>
      <point x="327" y="594" type="qcurve"/>
      <point x="318" y="580"/>
      <point x="284" y="571"/>
      <point x="267" y="570" type="qcurve"/>
      <point x="253" y="568"/>
      <point x="225" y="568"/>
      <point x="211" y="569" type="qcurve"/>
      <point x="197" y="570"/>
      <point x="171" y="585"/>
      <point x="166" y="598" type="qcurve"/>
      <point x="161" y="626"/>
      <point x="158" y="685"/>
      <point x="165" y="712" type="qcurve"/>
      <point x="168" y="722"/>
      <point x="176" y="732" type="qcurve"/>
      <point x="190" y="745"/>
      <point x="231" y="754"/>
      <point x="254" y="752" type="qcurve"/>
      <point x="275" y="751"/>
      <point x="322" y="739"/>
      <point x="333" y="723" type="qcurve"/>
      <point x="342" y="692"/>
      <point x="339" y="624"/>
    </contour>
    <contour>
      <point x="221" y="702" type="qcurve"/>
      <point x="209" y="695"/>
      <point x="206" y="682" type="qcurve"/>
      <point x="204" y="672"/>
      <point x="204" y="665" type="qcurve"/>
      <point x="204" y="654"/>
      <point x="206" y="629"/>
      <point x="214" y="621" type="qcurve"/>
      <point x="224" y="612"/>
      <point x="239" y="612" type="qcurve"/>
      <point x="249" y="612" type="line"/>
      <point x="260" y="613"/>
      <point x="287" y="616"/>
      <point x="292" y="627" type="qcurve"/>
      <point x="294" y="637"/>
      <point x="298" y="661"/>
      <point x="297" y="672" type="qcurve"/>
      <point x="295" y="686"/>
      <point x="290" y="694" type="qcurve"/>
      <point x="282" y="702"/>
      <point x="262" y="708"/>
      <point x="251" y="708" type="qcurve"/>
      <point x="234" y="708"/>
    </contour>
    <contour>
      <point x="439" y="498" type="qcurve"/>
      <point x="440" y="492"/>
      <point x="441" y="480"/>
      <point x="441" y="474" type="qcurve"/>
      <point x="441" y="464" type="line"/>
      <point x="438" y="356"/>
      <point x="446" y="147"/>
      <point x="439" y="40" type="qcurve"/>
      <point x="439" y="27"/>
      <point x="438" y="1"/>
      <point x="426" y="-1" type="qcurve"/>
      <point x="398" y="-1"/>
      <point x="399" y="-2" type="qcurve"/>
      <point x="392" y="0"/>
      <point x="391" y="20"/>
      <point x="391" y="45"/>
      <point x="391" y="55" type="qcurve"/>
      <point x="358" y="2"/>
      <point x="201" y="-2"/>
      <point x="166" y="-2" type="qcurve"/>
      <point x="127" y="-2"/>
      <point x="72" y="52"/>
      <point x="36" y="132"/>
      <point x="19" y="226"/>
      <point x="19" y="266" type="qcurve"/>
      <point x="19" y="316"/>
      <point x="45" y="400"/>
      <point x="90" y="461"/>
      <point x="152" y="496"/>
      <point x="187" y="497" type="qcurve"/>
      <point x="212" y="498"/>
      <point x="326" y="496"/>
      <point x="356" y="481"/>
      <point x="375" y="466"/>
      <point x="385" y="448" type="qcurve"/>
      <point x="389" y="473"/>
      <point x="389" y="499" type="qcurve"/>
      <point x="389" y="500"/>
      <point x="402" y="501"/>
      <point x="407" y="500"/>
    </contour>
    <contour>
      <point x="74" y="341" type="qcurve"/>
      <point x="67" y="316"/>
      <point x="64" y="264"/>
      <point x="64" y="239" type="qcurve"/>
      <point x="69" y="139"/>
      <point x="141" y="31"/>
      <point x="236" y="39" type="qcurve"/>
      <point x="283" y="38"/>
      <point x="344" y="58"/>
      <point x="389" y="113"/>
      <point x="390" y="199"/>
      <point x="390" y="253" type="qcurve"/>
      <point x="390" y="320"/>
      <point x="379" y="403"/>
      <point x="348" y="432"/>
      <point x="308" y="457"/>
      <point x="243" y="461" type="qcurve"/>
      <point x="175" y="464"/>
      <point x="85" y="388"/>
    </contour>
  </outline>
</glyph>
<glyph name="ae" format="1">
  <advance width="703"/>
  <unicode hex="00E6"/>
  <outline>
    <contour>
      <point x="365" y="234" type="line"/>
      <point x="366" y="206"/>
      <point x="369" y="170"/>
      <point x="381" y="109"/>
      <point x="446" y="26"/>
      <point x="640" y="32"/>
      <point x="659" y="151"/>
      <point x="657" y="190" type="qcurve"/>
      <point x="666" y="189"/>
      <point x="691" y="193"/>
      <point x="701" y="190" type="qcurve"/>
      <point x="699" y="166"/>
      <point x="696" y="118"/>
      <point x="690" y="78"/>
      <point x="682" y="49"/>
      <point x="675" y="43" type="qcurve"/>
      <point x="659" y="21"/>
      <point x="608" y="2"/>
      <point x="548" y="-2"/>
      <point x="485" y="2"/>
      <point x="458" y="2" type="qcurve"/>
      <point x="432" y="6"/>
      <point x="404" y="17" type="qcurve"/>
      <point x="380" y="31"/>
      <point x="349" y="61" type="qcurve"/>
      <point x="349" y="59" type="line"/>
      <point x="338" y="50"/>
      <point x="313" y="31"/>
      <point x="297" y="21" type="qcurve"/>
      <point x="258" y="-1"/>
      <point x="175" y="-11"/>
      <point x="100" y="7"/>
      <point x="40" y="50"/>
      <point x="8" y="112"/>
      <point x="11" y="189"/>
      <point x="37" y="233" type="qcurve"/>
      <point x="53" y="258"/>
      <point x="115" y="286"/>
      <point x="215" y="292"/>
      <point x="291" y="269"/>
      <point x="316" y="255" type="qcurve"/>
      <point x="315" y="277"/>
      <point x="315" y="304"/>
      <point x="320" y="426"/>
      <point x="261" y="450"/>
      <point x="134" y="440"/>
      <point x="79" y="397"/>
      <point x="88" y="341" type="qcurve"/>
      <point x="76" y="339"/>
      <point x="42" y="335"/>
      <point x="32" y="340" type="qcurve"/>
      <point x="27" y="379"/>
      <point x="61" y="436"/>
      <point x="120" y="473"/>
      <point x="196" y="490"/>
      <point x="270" y="489"/>
      <point x="335" y="469"/>
      <point x="354" y="451" type="qcurve"/>
      <point x="359" y="446"/>
      <point x="360" y="434" type="qcurve"/>
      <point x="369" y="446"/>
      <point x="382" y="456" type="qcurve"/>
      <point x="408" y="475"/>
      <point x="472" y="495"/>
      <point x="543" y="497"/>
      <point x="577" y="488" type="qcurve"/>
      <point x="620" y="481"/>
      <point x="673" y="436"/>
      <point x="700" y="372"/>
      <point x="706" y="294"/>
      <point x="703" y="255" type="qcurve"/>
      <point x="697" y="253"/>
      <point x="660" y="249"/>
      <point x="610" y="246"/>
      <point x="554" y="244"/>
      <point x="416" y="247"/>
      <point x="375" y="249"/>
      <point x="365" y="251" type="qcurve"/>
    </contour>
    <contour>
      <point x="142" y="31" type="qcurve"/>
      <point x="225" y="17"/>
      <point x="303" y="63"/>
      <point x="325" y="137"/>
      <point x="303" y="212"/>
      <point x="281" y="225" type="qcurve"/>
      <point x="232" y="252"/>
      <point x="131" y="256"/>
      <point x="83" y="222" type="qcurve"/>
      <point x="66" y="206"/>
      <point x="49" y="141"/>
      <point x="54" y="87"/>
      <point x="96" y="39"/>
    </contour>
    <contour>
      <point x="601" y="451" type="qcurve"/>
      <point x="580" y="458"/>
      <point x="554" y="462"/>
      <point x="532" y="462" type="qcurve"/>
      <point x="487" y="462"/>
      <point x="430" y="440"/>
      <point x="393" y="406"/>
      <point x="375" y="355"/>
      <point x="371" y="327" type="qcurve"/>
      <point x="368" y="305"/>
      <point x="371" y="287"/>
      <point x="417" y="283"/>
      <point x="486" y="280"/>
      <point x="555" y="283" type="qcurve"/>
      <point x="607" y="281"/>
      <point x="651" y="284"/>
      <point x="672" y="287"/>
      <point x="672" y="292" type="qcurve"/>
      <point x="672" y="309" type="line"/>
      <point x="670" y="344"/>
      <point x="638" y="425"/>
    </contour>
  </outline>
</glyph>
<glyph name="ecircumflex" format="1">
  <advance width="444"/>
  <unicode hex="00EA"/>
  <outline>
    <contour>
      <point x="397" y="597" type="line"/>
      <point x="395" y="598"/>
      <point x="371" y="595"/>
      <point x="352" y="592" type="qcurve"/>
      <point x="348" y="592"/>
      <point x="271" y="666"/>
      <point x="257" y="683"/>
      <point x="242" y="698"/>
      <point x="238" y="700" type="qcurve"/>
      <point x="233" y="699"/>
      <point x="216" y="681"/>
      <point x="201" y="664"/>
      <point x="138" y="597"/>
      <point x="134" y="596" type="qcurve"/>
      <point x="125" y="595"/>
      <point x="107" y="595"/>
      <point x="76" y="596" type="qcurve"/>
      <point x="123" y="651"/>
      <point x="192" y="717"/>
      <point x="236" y="758" type="qcurve"/>
    </contour>
    <contour>
      <point x="65" y="237" type="line"/>
      <point x="66" y="207"/>
      <point x="69" y="169"/>
      <point x="82" y="104"/>
      <point x="151" y="16"/>
      <point x="357" y="22"/>
      <point x="377" y="149"/>
      <point x="375" y="190" type="qcurve"/>
      <point x="385" y="189"/>
      <point x="411" y="193"/>
      <point x="422" y="190" type="qcurve"/>
      <point x="420" y="164"/>
      <point x="416" y="114"/>
      <point x="410" y="71"/>
      <point x="401" y="40"/>
      <point x="394" y="34" type="qcurve"/>
      <point x="377" y="10"/>
      <point x="323" y="-10"/>
      <point x="259" y="-14"/>
      <point x="192" y="-10"/>
      <point x="164" y="-10" type="qcurve"/>
      <point x="136" y="-6"/>
      <point x="112" y="8" type="qcurve"/>
      <point x="85" y="27"/>
      <point x="49" y="88"/>
      <point x="27" y="161"/>
      <point x="19" y="243"/>
      <point x="21" y="284" type="qcurve"/>
      <point x="24" y="321"/>
      <point x="31" y="390"/>
      <point x="43" y="423" type="qcurve"/>
      <point x="56" y="452"/>
      <point x="110" y="493"/>
      <point x="178" y="514"/>
      <point x="254" y="516"/>
      <point x="290" y="507" type="qcurve"/>
      <point x="336" y="499"/>
      <point x="392" y="451"/>
      <point x="421" y="383"/>
      <point x="427" y="301"/>
      <point x="424" y="259" type="qcurve"/>
      <point x="417" y="257"/>
      <point x="378" y="253"/>
      <point x="325" y="249"/>
      <point x="265" y="247"/>
      <point x="119" y="251"/>
      <point x="75" y="253"/>
      <point x="65" y="255" type="qcurve"/>
    </contour>
    <contour>
      <point x="315" y="467" type="qcurve"/>
      <point x="293" y="475"/>
      <point x="265" y="479"/>
      <point x="242" y="479" type="qcurve"/>
      <point x="194" y="479"/>
      <point x="134" y="456"/>
      <point x="94" y="420"/>
      <point x="75" y="365"/>
      <point x="71" y="336" type="qcurve"/>
      <point x="68" y="312"/>
      <point x="71" y="293"/>
      <point x="120" y="289"/>
      <point x="193" y="286"/>
      <point x="267" y="289" type="qcurve"/>
      <point x="322" y="287"/>
      <point x="369" y="290"/>
      <point x="391" y="293"/>
      <point x="391" y="304"/>
      <point x="391" y="316" type="qcurve"/>
      <point x="389" y="354"/>
      <point x="355" y="440"/>
    </contour>
  </outline>
</glyph>
<glyph name="igrave" format="1">
  <advance width="207"/>
  <unicode hex="00EC"/>
  <outline>
    <contour>
      <point x="-6" y="744" type="line"/>
      <point x="6" y="731"/>
      <point x="42" y="694"/>
      <point x="84" y="655"/>
      <point x="129" y="606"/>
      <point x="146" y="590" type="qcurve"/>
      <point x="139" y="588"/>
      <point x="109" y="585"/>
      <point x="81" y="588" type="qcurve"/>
      <point x="76" y="596"/>
      <point x="49" y="622"/>
      <point x="15" y="657"/>
      <point x="-38" y="712"/>
      <point x="-40" y="708" type="qcurve"/>
    </contour>
    <contour>
      <point x="139" y="503" type="qcurve"/>
      <point x="139" y="500" type="line"/>
      <point x="138" y="379"/>
      <point x="131" y="127"/>
      <point x="139" y="0" type="qcurve"/>
      <point x="112" y="2"/>
      <point x="90" y="0"/>
      <point x="83" y="-2" type="qcurve"/>
      <point x="83" y="108"/>
      <point x="83" y="214"/>
      <point x="83" y="319"/>
      <point x="81" y="444"/>
      <point x="87" y="503" type="qcurve"/>
      <point x="87" y="504" type="line"/>
      <point x="91" y="505"/>
    </contour>
  </outline>
</glyph>
<glyph name="divide" format="1">
  <advance width="466"/>
  <unicode hex="00F7"/>
  <outline>
    <contour>
      <point x="23" y="200" type="qcurve"/>
      <point x="23" y="213"/>
      <point x="25" y="222"/>
      <point x="26" y="254"/>
      <point x="26" y="257" type="qcurve"/>
      <point x="27" y="257"/>
      <point x="91" y="257"/>
      <point x="189" y="257"/>
      <point x="305" y="257"/>
      <point x="409" y="257"/>
      <point x="431" y="257"/>
      <point x="436" y="257" type="qcurve"/>
      <point x="437" y="226"/>
      <point x="439" y="192" type="qcurve"/>
      <point x="438" y="192" type="line"/>
      <point x="440" y="192"/>
      <point x="425" y="192"/>
      <point x="322" y="194"/>
      <point x="205" y="197"/>
      <point x="101" y="198"/>
      <point x="28" y="200"/>
    </contour>
    <contour>
      <point x="207" y="1" type="line"/>
      <point x="204" y="1" type="line"/>
      <point x="202" y="12"/>
      <point x="201" y="46"/>
      <point x="202" y="80"/>
      <point x="203" y="110"/>
      <point x="203" y="117" type="qcurve"/>
      <point x="213" y="121"/>
      <point x="235" y="125"/>
      <point x="248" y="122"/>
      <point x="255" y="119" type="qcurve"/>
      <point x="255" y="118"/>
      <point x="253" y="87"/>
      <point x="251" y="47"/>
      <point x="249" y="9"/>
      <point x="249" y="2" type="qcurve"/>
      <point x="249" y="1" type="line"/>
      <point x="249" y="0" type="line"/>
      <point x="247" y="0" type="line"/>
    </contour>
    <contour>
      <point x="208" y="337" type="line"/>
      <point x="205" y="337" type="line"/>
      <point x="203" y="348"/>
      <point x="202" y="382"/>
      <point x="203" y="416"/>
      <point x="204" y="446"/>
      <point x="204" y="453" type="qcurve"/>
      <point x="214" y="457"/>
      <point x="236" y="461"/>
      <point x="249" y="458"/>
      <point x="256" y="455" type="qcurve"/>
      <point x="256" y="454"/>
      <point x="254" y="423"/>
      <point x="252" y="383"/>
      <point x="250" y="345"/>
      <point x="250" y="338" type="qcurve"/>
      <point x="250" y="337" type="line"/>
      <point x="250" y="336" type="line"/>
      <point x="248" y="336" type="line"/>
    </contour>
  </outline>
</glyph>
<glyph name="ucircumflex" format="1">
  <advance width="450"/>
  <unicode hex="00FB"/>
  <outline>
    <contour>
      <point x="391" y="597" type="line"/>
      <point x="389" y="598"/>
      <point x="365" y="595"/>
      <point x="346" y="592" type="qcurve"/>
      <point x="342" y="592"/>
      <point x="265" y="666"/>
      <point x="251" y="683"/>
      <point x="236" y="698"/>
      <point x="232" y="700" type="qcurve"/>
      <point x="227" y="699"/>
      <point x="210" y="681"/>
      <point x="195" y="664"/>
      <point x="132" y="597"/>
      <point x="128" y="596" type="qcurve"/>
      <point x="119" y="595"/>
      <point x="101" y="595"/>
      <point x="70" y="596" type="qcurve"/>
      <point x="117" y="651"/>
      <point x="186" y="717"/>
      <point x="230" y="758" type="qcurve"/>
    </contour>
    <contour>
      <point x="368" y="53" type="qcurve"/>
      <point x="363" y="50"/>
      <point x="322" y="21"/>
      <point x="219" y="2"/>
      <point x="128" y="2"/>
      <point x="76" y="16"/>
      <point x="42" y="51"/>
      <point x="34" y="102"/>
      <point x="31" y="182"/>
      <point x="32" y="277"/>
      <point x="34" y="374"/>
      <point x="36" y="464"/>
      <point x="34" y="498" type="qcurve"/>
      <point x="74" y="498" type="line"/>
      <point x="76" y="475"/>
      <point x="76" y="417"/>
      <point x="75" y="355"/>
      <point x="75" y="267"/>
      <point x="73" y="49"/>
      <point x="227" y="31"/>
      <point x="370" y="94"/>
      <point x="376" y="183"/>
      <point x="374" y="251"/>
      <point x="371" y="393"/>
      <point x="370" y="459"/>
      <point x="369" y="492" type="qcurve"/>
      <point x="369" y="496" type="line"/>
      <point x="387" y="501"/>
      <point x="412" y="503" type="qcurve"/>
      <point x="412" y="380"/>
      <point x="417" y="134"/>
      <point x="413" y="2" type="qcurve"/>
      <point x="391" y="-2"/>
      <point x="381" y="-4"/>
      <point x="370" y="-3"/>
      <point x="370" y="0" type="qcurve"/>
      <point x="369" y="39"/>
    </contour>
  </outline>
</glyph>
<glyph name="udieresis" format="1">
  <advance width="449"/>
  <unicode hex="00FC"/>
  <outline>
    <contour>
      <point x="125" y="652" type="line"/>
      <point x="122" y="652" type="line"/>
      <point x="120" y="662"/>
      <point x="119" y="691"/>
      <point x="120" y="721"/>
      <point x="121" y="747"/>
      <point x="121" y="753" type="qcurve"/>
      <point x="130" y="756"/>
      <point x="165" y="757"/>
      <point x="172" y="754" type="qcurve"/>
      <point x="172" y="753"/>
      <point x="170" y="727"/>
      <point x="168" y="692"/>
      <point x="166" y="660"/>
      <point x="166" y="653" type="qcurve"/>
      <point x="166" y="652" type="line"/>
      <point x="166" y="651" type="line"/>
      <point x="164" y="651" type="line"/>
    </contour>
    <contour>
      <point x="283" y="652" type="line"/>
      <point x="280" y="652" type="line"/>
      <point x="278" y="662"/>
      <point x="277" y="691"/>
      <point x="278" y="721"/>
      <point x="279" y="747"/>
      <point x="279" y="753" type="qcurve"/>
      <point x="288" y="756"/>
      <point x="323" y="757"/>
      <point x="330" y="754" type="qcurve"/>
      <point x="330" y="753"/>
      <point x="328" y="727"/>
      <point x="326" y="692"/>
      <point x="324" y="660"/>
      <point x="324" y="653" type="qcurve"/>
      <point x="324" y="652" type="line"/>
      <point x="324" y="651" type="line"/>
      <point x="322" y="651" type="line"/>
    </contour>
    <contour>
      <point x="368" y="53" type="qcurve"/>
      <point x="363" y="50"/>
      <point x="322" y="21"/>
      <point x="219" y="2"/>
      <point x="128" y="2"/>
      <point x="76" y="16"/>
      <point x="42" y="51"/>
      <point x="34" y="102"/>
      <point x="31" y="182"/>
      <point x="32" y="277"/>
      <point x="34" y="374"/>
      <point x="36" y="464"/>
      <point x="34" y="498" type="qcurve"/>
      <point x="74" y="498" type="line"/>
      <point x="76" y="475"/>
      <point x="76" y="417"/>
      <point x="75" y="355"/>
      <point x="75" y="267"/>
      <point x="73" y="49"/>
      <point x="227" y="31"/>
      <point x="370" y="94"/>
      <point x="376" y="183"/>
      <point x="374" y="251"/>
      <point x="371" y="393"/>
      <point x="370" y="459"/>
      <point x="369" y="492" type="qcurve"/>
      <point x="369" y="496" type="line"/>
      <point x="387" y="501"/>
      <point x="412" y="503" type="qcurve"/>
      <point x="412" y="380"/>
      <point x="417" y="134"/>
      <point x="413" y="2" type="qcurve"/>
      <point x="391" y="-2"/>
      <point x="381" y="-4"/>
      <point x="370" y="-3"/>
      <point x="370" y="0" type="qcurve"/>
      <point x="369" y="39"/>
    </contour>
  </outline>
</glyph>
<glyph name="ydieresis" format="1">
  <advance width="449"/>
  <unicode hex="00FF"/>
  <outline>
    <contour>
      <point x="125" y="652" type="line"/>
      <point x="122" y="652" type="line"/>
      <point x="120" y="662"/>
      <point x="119" y="691"/>
      <point x="120" y="721"/>
      <point x="121" y="747"/>
      <point x="121" y="753" type="qcurve"/>
      <point x="130" y="756"/>
      <point x="165" y="757"/>
      <point x="172" y="754" type="qcurve"/>
      <point x="172" y="753"/>
      <point x="170" y="727"/>
      <point x="168" y="692"/>
      <point x="166" y="660"/>
      <point x="166" y="653" type="qcurve"/>
      <point x="166" y="652" type="line"/>
      <point x="166" y="651" type="line"/>
      <point x="164" y="651" type="line"/>
    </contour>
    <contour>
      <point x="283" y="652" type="line"/>
      <point x="280" y="652" type="line"/>
      <point x="278" y="662"/>
      <point x="277" y="691"/>
      <point x="278" y="721"/>
      <point x="279" y="747"/>
      <point x="279" y="753" type="qcurve"/>
      <point x="288" y="756"/>
      <point x="323" y="757"/>
      <point x="330" y="754" type="qcurve"/>
      <point x="330" y="753"/>
      <point x="328" y="727"/>
      <point x="326" y="692"/>
      <point x="324" y="660"/>
      <point x="324" y="653" type="qcurve"/>
      <point x="324" y="652" type="line"/>
      <point x="324" y="651" type="line"/>
      <point x="322" y="651" type="line"/>
    </contour>
    <contour>
      <point x="55" y="498" type="qcurve"/>
      <point x="202" y="-13"/>
      <point x="230" y="-33" type="qcurve"/>
      <point x="268" y="-29"/>
      <point x="379" y="466"/>
      <point x="391" y="496" type="qcurve"/>
      <point x="441" y="499" type="line"/>
      <point x="425" y="439"/>
      <point x="400" y="330"/>
      <point x="375" y="229"/>
      <point x="354" y="121"/>
      <point x="323" y="17"/>
      <point x="275" y="-77"/>
      <point x="196" y="-146"/>
      <point x="79" y="-182"/>
      <point x="-6" y="-177" type="qcurve"/>
      <point x="-16" y="-153"/>
      <point x="-7" y="-129" type="qcurve"/>
      <point x="81" y="-140"/>
      <point x="189" y="-92"/>
      <point x="178" y="-53" type="qcurve"/>
      <point x="94" y="202"/>
      <point x="34" y="387"/>
      <point x="3" y="500" type="qcurve"/>
      <point x="34" y="502"/>
    </contour>
  </outline>
</glyph>
<glyph name="OE" format="1">
  <advance width="830"/>
  <unicode hex="0152"/>
  <outline>
    <contour>
      <point x="808" y="39" type="line"/>
      <point x="806" y="3" type="line"/>
      <point x="704" y="4"/>
      <point x="518" y="-3"/>
      <point x="421" y="5" type="qcurve"/>
      <point x="421" y="42"/>
      <point x="420" y="79" type="qcurve"/>
      <point x="415" y="68"/>
      <point x="409" y="58" type="qcurve"/>
      <point x="392" y="34"/>
      <point x="337" y="5"/>
      <point x="306" y="-3" type="qcurve"/>
      <point x="278" y="-11"/>
      <point x="221" y="-15"/>
      <point x="192" y="-13" type="qcurve"/>
      <point x="171" y="-11"/>
      <point x="132" y="-4"/>
      <point x="97" y="12"/>
      <point x="69" y="37"/>
      <point x="60" y="57" type="qcurve"/>
      <point x="46" y="82"/>
      <point x="37" y="139"/>
      <point x="36" y="168" type="qcurve"/>
      <point x="33" y="246"/>
      <point x="26" y="403"/>
      <point x="31" y="482" type="qcurve"/>
      <point x="32" y="527"/>
      <point x="53" y="618"/>
      <point x="84" y="653" type="qcurve"/>
      <point x="94" y="663"/>
      <point x="107" y="671" type="qcurve"/>
      <point x="140" y="687"/>
      <point x="217" y="702"/>
      <point x="294" y="698"/>
      <point x="367" y="675"/>
      <point x="396" y="653" type="qcurve"/>
      <point x="409" y="641"/>
      <point x="418" y="627" type="qcurve"/>
      <point x="420" y="658"/>
      <point x="422" y="689" type="qcurve"/>
      <point x="461" y="691"/>
      <point x="527" y="694"/>
      <point x="619" y="696"/>
      <point x="705" y="698"/>
      <point x="771" y="698"/>
      <point x="811" y="696"/>
      <point x="811" y="695" type="qcurve"/>
      <point x="810" y="657" type="line"/>
      <point x="778" y="659"/>
      <point x="719" y="656"/>
      <point x="653" y="657"/>
      <point x="587" y="657"/>
      <point x="471" y="653" type="qcurve"/>
      <point x="468" y="653" type="line"/>
      <point x="467" y="652" type="line"/>
      <point x="468" y="623"/>
      <point x="456" y="395"/>
      <point x="463" y="368" type="qcurve"/>
      <point x="464" y="367" type="line"/>
      <point x="577" y="366"/>
      <point x="639" y="366"/>
      <point x="670" y="365" type="qcurve"/>
      <point x="670" y="364" type="line"/>
      <point x="671" y="345"/>
      <point x="671" y="335" type="qcurve"/>
      <point x="671" y="329" type="line"/>
      <point x="631" y="327"/>
      <point x="619" y="324"/>
      <point x="584" y="326"/>
      <point x="473" y="323"/>
      <point x="468" y="319" type="qcurve"/>
      <point x="463" y="290"/>
      <point x="466" y="165"/>
      <point x="462" y="46" type="qcurve"/>
      <point x="463" y="45" type="line"/>
      <point x="612" y="46"/>
      <point x="740" y="39"/>
      <point x="808" y="41" type="qcurve"/>
    </contour>
    <contour>
      <point x="402" y="507" type="line"/>
      <point x="402" y="508"/>
      <point x="399" y="547"/>
      <point x="398" y="564" type="qcurve"/>
      <point x="396" y="592"/>
      <point x="357" y="638"/>
      <point x="334" y="649" type="qcurve"/>
      <point x="314" y="657"/>
      <point x="210" y="668"/>
      <point x="137" y="635" type="qcurve"/>
      <point x="102" y="608"/>
      <point x="90" y="566" type="qcurve"/>
      <point x="82" y="528"/>
      <point x="71" y="444"/>
      <point x="73" y="311" type="qcurve"/>
      <point x="76" y="181"/>
      <point x="90" y="108"/>
      <point x="100" y="75" type="qcurve"/>
      <point x="110" y="55"/>
      <point x="172" y="16"/>
      <point x="311" y="28"/>
      <point x="355" y="55"/>
      <point x="370" y="72" type="qcurve"/>
      <point x="379" y="84"/>
      <point x="387" y="99"/>
      <point x="396" y="115"/>
      <point x="400" y="142"/>
      <point x="402" y="163" type="qcurve"/>
      <point x="403" y="183"/>
      <point x="408" y="298"/>
      <point x="408" y="300" type="qcurve"/>
      <point x="408" y="439" type="line"/>
    </contour>
    <contour>
      <point x="672" y="329" type="qcurve"/>
      <point x="671" y="329" type="line"/>
      <point x="671" y="327"/>
    </contour>
  </outline>
</glyph>
